<?xml version="1.0" standalone="no"?>
<!DOCTYPE svg PUBLIC "-//W3C//DTD SVG 1.1//EN" "http://www.w3.org/Graphics/SVG/1.1/DTD/svg11.dtd" >
<svg xmlns="http://www.w3.org/2000/svg" xmlns:xlink="http://www.w3.org/1999/xlink" version="1.1">
<metadata>
Created by FontForge 20150318 at Wed Jul 29 08:07:01 2015
 By uniteet7
Copyright (c) 2014 by www.moslemebrahimi.com. All rights reserved.
</metadata>
<defs>
<font id="IRANSANSExpanded" horiz-adv-x="0" >
  <font-face 
    font-family="IRAN SANS Expanded"
    font-weight="400"
    font-stretch="semi-expanded"
    units-per-em="2048"
    panose-1="2 11 6 6 3 8 4 2 2 4"
    ascent="1638"
    descent="-410"
    x-height="1062"
    cap-height="1466"
    bbox="-697 -1316 3911.22 2611"
    underline-thickness="102"
    underline-position="-103"
    unicode-range="U+0020-FEFC"
  />
<missing-glyph horiz-adv-x="1229" 
d="M1126 -362h-1024v1806h1024v-1806zM217 1329v-1577h795v1577h-795z" />
    <glyph glyph-name="allah" unicode="&#x627;&#xfedf;&#xfee0;&#xfeea;" horiz-adv-x="2633" arabic-form="isolated" 
d="M1247 -3h-41v-3q-32 0 -67 3h-12v1q-5 0 -19 2q-52 8 -84 31q-79 38 -131 121q-125 -18 -220 -18q-257 0 -358 125q-35 41 -47 94t-6.5 92.5t18.5 68.5l1 5q39 79 101.5 147t134 113.5t124.5 72t108 47.5q-4 43 -8 86.5t-6 64t-2 21.5l196 17q55 -647 103 -773
q47 -123 120 -124q74 -1 117 0q44 3 75 26q30 24 45 58q16 34 -38 894l198 21q62 -866 62 -868q0 -14 5 -46q6 -27 32 -58q26 -30 68 -31q136 -3 168 44q27 33 27 109q0 10 -75 902l194 44q70 -928 69 -1011q-2 -83 -68 -181t-263 -93q-50 -7 -102 9q-20 2 -38 9
q-70 29 -109 65q-35 -28 -40 -31q-87 -56 -232 -56zM771 696q-231 -103 -309 -258q-11 -33 8 -56q25 -30 101 -43q107 -15 253 2q-29 147 -53 355zM1323 1260q-53 0 -87 39q-39 53 -35 154q0 21 3 42t5 32t3 13l78 -17q-5 -35 -7 -74q-3 -70 17 -98q9 -9 23 -9q25 0 45 25.5
t32 61.5q8 23 14 50t8 42l1 15l83 -3q1 -53 17 -105q22 -83 61 -83q17 0 27 7q20 26 20 87q0 73 -54 164l70 40q5 -7 18.5 -33.5t30.5 -77.5t17 -93q0 -98 -46 -144q-32 -32 -83 -32q-57 0 -99 51q-19 24 -27 47q-49 -101 -135 -101zM1467 1635l-72 22q39 142 0 287l73 23
q38 -144 -1 -332zM2424 -13l-197 11q19 294 20.5 577.5t-12.5 493.5t-23 303t-18 165l-1 8l196 30q2 -6 15 -121q12 -105 22 -266q8 -130 13 -276q16 -479 -15 -925z" />
    <glyph glyph-name="riyal" unicode="&#x631;&#xfef3;&#xfe8e;&#x644;" horiz-adv-x="2976" arabic-form="isolated" 
d="M1811 -87q6 0 18 -11t23 -23t23 -27t14 -17q29 -28 87 -86l-24.5 -24.5t-28 -28.5t-24.5 -24q-2 -2 -22.5 -26t-38.5 -42t-26 -18q-7 0 -22.5 15.5t-35.5 38.5l-19 24q-14 14 -43 42.5t-44 43.5q52 52 78 77q3 3 22.5 26.5t37 41.5t25.5 18zM1304 533q8 -208 10 -312
q0 -16 3 -94t2.5 -108t-3 -90.5t-12 -106.5t-25.5 -91q-32 -90 -95.5 -165.5t-144 -126t-176.5 -80t-191.5 -32t-191 23t-174.5 79.5q-117 81 -179 205.5t-62 269.5q0 352 154 549q100 -84 149 -126q-65 -87 -89.5 -214.5t-13.5 -251.5q11 -125 99 -215.5t213 -114.5
q114 -21 239.5 21.5t201.5 129.5q41 46 64.5 102.5t30 111.5t8 117.5t-1.5 121.5q-2 134 -7 295.5t-9.5 270t-13.5 305t-12 278.5q-6 156 -10 229q16 0 47 2t46 2q4 0 31.5 3.5t44.5 4t28 -3.5q2 -2 2 -40q4 -77 5 -112q3 -76 9.5 -230t10.5 -233q3 -63 13 -374zM2485 506
q44 -264 -101 -403q-73 -70 -171 -93t-228 -23q-11 0 -41 -1.5t-56 -1t-48 3.5q-145 10 -244.5 81t-117.5 208q-4 30 -4.5 62t1 74.5t1.5 62.5q2 206 1 308q0 14 -0.5 118t-1.5 138t-3.5 112.5t-7.5 137t-13 117.5q0 3 -2.5 11.5t-4 16.5t-2.5 16t0.5 13.5t6.5 6.5
q21 4 61 12q43 7 127 23q20 -111 30 -248.5t11 -224t-1 -262.5t-2 -232q0 -20 -2.5 -60.5t-4 -69.5t1.5 -67t12.5 -64.5t31.5 -49t55 -31.5q20 -6 60 -8.5t50 -3.5q17 1 46 0t36 -1q38 0 61 0.5t61.5 4t63.5 10t55.5 19.5t48.5 32t31.5 47.5t15.5 65.5q5 105 -31 218
t-100 244q4 7 21 15.5t38 16.5t25 10q11 5 44 21.5l51 25.5q0 -21 27.5 -74t28.5 -55q62 -159 83 -279zM2784 711q7 -23 20.5 -65t22 -69t21 -67.5t20 -71.5t16.5 -70t14 -72.5t8.5 -70t3.5 -72t-4 -68.5q-11 -100 -56 -196.5t-109 -174t-149.5 -149.5t-170 -125.5
t-176.5 -99.5q-38 78 -46 94q-4 9 -14 28t-14 29q-2 5 -5.5 11t-4.5 7.5t0 5t4.5 6t11.5 6.5q292 149 433 345q124 169 90 381q-27 166 -107 398q128 40 191 60zM2240 -330q-3 -3 -22.5 -26.5t-37.5 -41.5t-26 -18q-7 0 -23 16t-34.5 38t-20.5 24l-86 86q52 52 78 77
q3 3 22.5 26.5t37 41.5t25.5 18q6 0 18 -11t23 -23t23 -27t14 -17q44 -42 86 -86l-24.5 -24.5t-28 -28.5t-24.5 -24z" />
    <glyph glyph-name="uni06440622.isol" unicode="&#xfedf;&#xfe82;" horiz-adv-x="1433" arabic-form="isolated" 
d="M1311 507q18 -233 -156 -392q-130 -120 -350 -171q-112 -23 -223 -23q-75 0 -147 12l34 195q134 -26 292 10q-24 133 -88.5 295.5t-136 297.5t-145 256.5t-116 185t-49.5 71.5l163 114q0 -1 14.5 -22t39 -58t55 -84t69.5 -112.5t75 -130.5q239 -423 307 -743q49 30 73 53
q102 92 92 232l-87 1014l196 19q2 -4 17.5 -159t37 -408t33.5 -452zM175 1413l-132 41q35 87 45 105q64 102 161 120q13 3 43 3q62 0 146 -35q69 -27 111 -28q64 -3 142 95l114 -74q-1 -4 -13 -20.5t-36.5 -41t-54.5 -47t-72 -38t-85 -14.5q-51 1 -140 32l-16 6
q-78 30 -117 23q-17 -2 -33.5 -17t-29 -37.5t-20 -39.5t-13.5 -33z" />
    <glyph glyph-name="uni06440622.fina" unicode="&#xfee0;&#xfe82;" horiz-adv-x="1470" arabic-form="final" 
d="M1327 232q42 -23 104 -35l30 -1h9q41 0 70 -29t29 -69q0 -41 -29 -69.5t-70 -28.5h-9h-40q-10 0 -31.5 3t-66.5 17t-86 36q-11 6 -20.5 12t-19 14.5t-15.5 14t-15 17t-12.5 16t-14 18.5l-13.5 18q-6 -7 -13.5 -14.5t-17.5 -17t-15 -14.5q-130 -120 -350 -171
q-112 -23 -223 -23q-75 0 -147 12l34 195q134 -26 292 10q-28 155 -104 340t-180.5 364t-146.5 246.5t-98 148.5l-4 7l161 114q0 -1 14.5 -22t39 -58t55 -84t69.5 -112.5t75 -130.5q239 -423 307 -743q49 30 73 53q102 95 92 229q-8 122 -20 271t-23.5 275t-21.5 234
t-16 171t-6 64l196 21q2 -6 19.5 -186t40.5 -459t35 -479q5 -69 21.5 -109t61.5 -66zM121 1387l-132 41q35 87 45 105q64 102 161 120q13 3 43 3q62 0 146 -35q69 -27 111 -28q64 -3 142 95l114 -74q-1 -4 -13 -20.5t-36.5 -41t-54.5 -47t-72 -38t-85 -14.5q-51 1 -140 32
l-16 6q-78 30 -117 23q-17 -2 -33.5 -17t-29 -37.5t-20 -39.5t-13.5 -33z" />
    <glyph glyph-name="uni06440623.isol" unicode="&#xfedf;&#xfe84;" horiz-adv-x="1315" arabic-form="isolated" 
d="M1209 507q18 -233 -156 -392q-130 -120 -350 -171q-112 -23 -223 -23q-75 0 -147 12l34 195q134 -26 292 10q-24 133 -88.5 295.5t-136 297.5t-145 256.5t-116 185t-49.5 71.5l163 114q0 -1 14.5 -22t39 -58t55 -84t69.5 -112.5t75 -130.5q239 -423 307 -743q49 30 73 53
q102 92 92 232l-87 1014l196 19q2 -4 17.5 -159t37 -408t33.5 -452zM312 1919l-28 -92q-41 13 -92 13q-34 0 -62 -12v2q-32 -13 -51.5 -42t-19.5 -62q0 -17 8 -36l-1 1q15 -35 50.5 -58.5t77.5 -23.5q26 0 42 7q31 10 66 29t54 33l19 13l59 -78q-51 -37 -242 -142l-227 -126
l-48 87l179 100q-40 17 -72 49t-49 71q-14 34 -14 74q0 62 36.5 115.5t96.5 77.5q47 19 98 19q27 0 57 -5t47 -9z" />
    <glyph glyph-name="uni06440623.fina" unicode="&#xfee0;&#xfe84;" horiz-adv-x="1470" arabic-form="final" 
d="M1327 232q42 -23 104 -35l30 -1h9q41 0 70 -29t29 -69q0 -41 -29 -69.5t-70 -28.5h-9h-40q-10 0 -31.5 3t-66.5 17t-86 36q-11 6 -20.5 12t-19 14.5t-15.5 14t-15 17t-12.5 16t-14 18.5l-13.5 18q-6 -7 -13.5 -14.5t-17.5 -17t-15 -14.5q-130 -120 -350 -171
q-112 -23 -223 -23q-75 0 -147 12l34 195q134 -26 292 10q-28 155 -104 340t-180.5 364t-146.5 246.5t-98 148.5l-4 7l161 114q0 -1 14.5 -22t39 -58t55 -84t69.5 -112.5t75 -130.5q239 -423 307 -743q49 30 73 53q102 95 92 229q-8 122 -20 271t-23.5 275t-21.5 234
t-16 171t-6 64l196 21q2 -6 19.5 -186t40.5 -459t35 -479q5 -69 21.5 -109t61.5 -66zM411 1950l-28 -92q-41 13 -92 13q-34 0 -62 -12v2q-32 -13 -51.5 -42t-19.5 -62q0 -17 8 -36l-1 1q15 -35 50.5 -58.5t77.5 -23.5q26 0 42 7q31 10 66 29t54 32l19 14l59 -78
q-51 -37 -242 -142l-227 -126l-48 87l179 100q-40 17 -72 49t-49 71q-14 34 -14 74q0 62 36.5 115.5t96.5 77.5q47 19 98 19q27 0 57 -4.5t46 -9.5z" />
    <glyph glyph-name="uni06440625.isol" unicode="&#xfedf;&#xfe88;" horiz-adv-x="1310" arabic-form="isolated" 
d="M1209 507q18 -233 -156 -392q-130 -120 -350 -171q-112 -23 -223 -23q-75 0 -147 12l34 195q134 -26 292 10q-24 133 -88.5 295.5t-136 297.5t-145 256.5t-116 185t-49.5 71.5l163 114q0 -1 14.5 -22t39 -58t55 -84t69.5 -112.5t75 -130.5q239 -423 307 -743q49 30 73 53
q102 92 92 232l-87 1014l196 19q2 -4 17.5 -159t37 -408t33.5 -452zM814 -193l-28 -92q-41 13 -92 13q-34 0 -62 -12v2q-32 -13 -51.5 -42t-19.5 -62q0 -17 8 -36l-1 1q15 -35 50.5 -58.5t77.5 -23.5q26 0 42 7q31 10 66 29t54 33l19 13l59 -78q-51 -37 -242 -142l-227 -126
l-48 87l179 100q-40 17 -72 49t-49 71q-14 34 -14 74q0 62 36.5 115.5t96.5 77.5q47 19 98 19q27 0 57 -5t47 -9z" />
    <glyph glyph-name="uni06440625.fina" unicode="&#xfee0;&#xfe88;" horiz-adv-x="1470" arabic-form="final" 
d="M1327 232q42 -23 104 -35l30 -1h9q41 0 70 -29t29 -69q0 -41 -29 -69.5t-70 -28.5h-9h-40q-10 0 -31.5 3t-66.5 17t-86 36q-11 6 -20.5 12t-19 14.5t-15.5 14t-15 17t-12.5 16t-14 18.5l-13.5 18q-6 -7 -13.5 -14.5t-17.5 -17t-15 -14.5q-130 -120 -350 -171
q-112 -23 -223 -23q-75 0 -147 12l34 195q134 -26 292 10q-28 155 -104 340t-180.5 364t-146.5 246.5t-98 148.5l-4 7l161 114q0 -1 14.5 -22t39 -58t55 -84t69.5 -112.5t75 -130.5q239 -423 307 -743q49 30 73 53q102 95 92 229q-8 122 -20 271t-23.5 275t-21.5 234
t-16 171t-6 64l196 21q2 -6 19.5 -186t40.5 -459t35 -479q5 -69 21.5 -109t61.5 -66zM966 -151l-28 -92q-41 13 -92 13q-34 0 -62 -12v2q-32 -13 -51.5 -42t-19.5 -62q0 -17 8 -36l-1 1q15 -35 50.5 -58.5t77.5 -23.5q26 0 42 7q31 10 66 29t54 33l19 13l59 -78
q-51 -37 -242 -142l-227 -126l-48 87l179 100q-40 17 -72 49t-49 71q-14 34 -14 74q0 62 36.5 115.5t96.5 77.5q47 19 98 19q27 0 57 -5t47 -9z" />
    <glyph glyph-name="uni06440627.isol" unicode="&#xfedf;&#xfe8e;" horiz-adv-x="1305" arabic-form="isolated" 
d="M1209 507q18 -233 -156 -392q-130 -120 -350 -171q-112 -23 -223 -23q-75 0 -147 12l34 195q134 -26 292 10q-24 133 -88.5 295.5t-136 297.5t-145 256.5t-116 185t-49.5 71.5l163 114q0 -1 14.5 -22t39 -58t55 -84t69.5 -112.5t75 -130.5q239 -423 307 -743q49 30 73 53
q102 92 92 232l-87 1014l196 19q2 -4 17.5 -159t37 -408t33.5 -452z" />
    <glyph glyph-name="uni06440627.fina" unicode="&#xfee0;&#xfe8e;" horiz-adv-x="1470" arabic-form="final" 
d="M1327 232q42 -23 104 -35l30 -1h9q41 0 70 -29t29 -69q0 -41 -29 -69.5t-70 -28.5h-9h-40q-10 0 -31.5 3t-66.5 17t-86 36q-11 6 -20.5 12t-19 14.5t-15.5 14t-15 17t-12.5 16t-14 18.5l-13.5 18q-6 -7 -13.5 -14.5t-17.5 -17t-15 -14.5q-130 -120 -350 -171
q-112 -23 -223 -23q-75 0 -147 12l34 195q134 -26 292 10q-28 155 -104 340t-180.5 364t-146.5 246.5t-98 148.5l-4 7l161 114q0 -1 14.5 -22t39 -58t55 -84t69.5 -112.5t75 -130.5q239 -423 307 -743q49 30 73 53q102 95 92 229q-8 122 -20 271t-23.5 275t-21.5 234
t-16 171t-6 64l196 21q2 -6 19.5 -186t40.5 -459t35 -479q5 -69 21.5 -109t61.5 -66z" />
    <glyph glyph-name="uni06440671.isol" unicode="&#xfedf;&#xfb51;" horiz-adv-x="1294" 
d="M1209 507q18 -233 -156 -392q-130 -120 -350 -171q-112 -23 -223 -23q-75 0 -147 12l34 195q134 -26 292 10q-24 133 -88.5 295.5t-136 297.5t-145 256.5t-116 185t-49.5 71.5l163 114q0 -1 14.5 -22t39 -58t55 -84t69.5 -112.5t75 -130.5q239 -423 307 -743q49 30 73 53
q102 92 92 232l-87 1014l196 19q2 -4 17.5 -159t37 -408t33.5 -452zM246 1556q40 -3 83.5 -3.5t91 11t74.5 33.5q26 23 29 57q0 26 -18 41q-29 32 -82 23q-58 -11 -103 -55q-46 -46 -75 -107zM-10 1519l-18 68q10 5 26.5 12.5t54 17.5t57.5 6t38.5 -15t26.5 -20l8 -9
q43 83 94 132q61 59 135 70q86 18 141 -40q41 -42 35 -92q-2 -62 -53 -104q-73 -58 -224 -58q-20 0 -85 5q-25 3 -49 14q-30 13 -53 44q-24 14 -53.5 7t-54.5 -23z" />
    <glyph glyph-name="uni06440671.fina" unicode="&#xfee0;&#xfb51;" horiz-adv-x="1470" 
d="M1327 232q42 -23 104 -35l30 -1h9q41 0 70 -29t29 -69q0 -41 -29 -69.5t-70 -28.5h-9h-40q-10 0 -31.5 3t-66.5 17t-86 36q-11 6 -20.5 12t-19 14.5t-15.5 14t-15 17t-12.5 16t-14 18.5l-13.5 18q-6 -7 -13.5 -14.5t-17.5 -17t-15 -14.5q-130 -120 -350 -171
q-112 -23 -223 -23q-75 0 -147 12l34 195q134 -26 292 10q-28 155 -104 340t-180.5 364t-146.5 246.5t-98 148.5l-4 7l161 114q0 -1 14.5 -22t39 -58t55 -84t69.5 -112.5t75 -130.5q239 -423 307 -743q49 30 73 53q102 95 92 229q-8 122 -20 271t-23.5 275t-21.5 234
t-16 171t-6 64l196 21q2 -6 19.5 -186t40.5 -459t35 -479q5 -69 21.5 -109t61.5 -66zM299 1578q40 -3 83.5 -3.5t91 11t74.5 33.5q26 23 29 57q0 26 -18 41q-29 32 -82 23q-58 -11 -103 -55q-46 -46 -75 -107zM43 1541l-18 68q10 5 26.5 12.5t54 17.5t57.5 6t38.5 -15
t26.5 -20l8 -9q43 83 94 132q61 59 135 70q86 18 141 -40q41 -42 35 -92q-2 -62 -53 -104q-73 -58 -224 -58q-20 0 -85 5q-25 3 -49 14q-30 13 -53 44q-24 14 -53.5 7t-55.5 -23z" />
    <glyph glyph-name="uni0621" unicode="&#x621;" horiz-adv-x="1019" arabic-form="isolated" 
d="M809 639l-59 -122q-54 27 -124 38q-43 6 -88 -1q-47 -12 -80 -47.5t-41 -80.5q-3 -22 4 -53l-1 3q13 -52 57 -92t102 -49q38 -6 60 1q45 8 97.5 26.5t81.5 33.5l30 14l64 -120q-17 -9 -35.5 -17.5t-43 -19t-43.5 -18.5t-53.5 -21t-55 -20.5t-65.5 -24t-68 -25.5
l-341 -126l-48 130l268 101q-52 32 -89.5 83t-51.5 109q-13 50 -4 105q13 87 75 153t150 86q71 17 140 6q37 -6 77.5 -19t62.5 -23z" />
    <glyph glyph-name="uni0622" unicode="&#x622;" horiz-adv-x="573" arabic-form="isolated" 
d="M399 -7l-197 11q15 226 18 429q5 203 0 374q-5 181 -13 280q-6 88 -17 205q-3 36 -6.5 70t-6.5 56.5t-5 40.5l-3 27l-1 8l196 30q2 -6 15 -121q28 -249 35 -485q15 -467 -15 -925zM9 1618l-132 41q35 87 45 105q64 102 161 120q13 3 43 3q62 0 146 -35q69 -27 111 -28
q64 -3 142 95l114 -74q-1 -4 -13 -20.5t-36.5 -41t-54.5 -47t-72 -38t-85 -14.5q-51 1 -140 32l-16 6q-78 30 -117 23q-17 -2 -33.5 -17t-29 -37.5t-20 -39.5t-13.5 -33z" />
    <glyph glyph-name="uni0623" unicode="&#x623;" horiz-adv-x="573" arabic-form="isolated" 
d="M397 -7l-197 11q15 226 18 429q5 203 0 374q-5 181 -13 280q-6 88 -17 205q-3 36 -6.5 70t-6.5 56.5t-5 40.5l-3 27l-1 8l196 30q2 -6 15 -121q28 -249 35 -485q15 -467 -15 -925zM405 2138l-28 -92q-41 13 -92 13q-34 0 -62 -12v2q-32 -13 -51.5 -42t-19.5 -62
q0 -17 8 -36l-1 1q15 -35 50.5 -58.5t77.5 -23.5q26 0 42 7q31 10 66 29t54 32l19 14l59 -78q-51 -37 -242 -142l-227 -126l-48 87l179 100q-40 17 -72 49t-49 71q-14 34 -14 74q0 62 36.5 115.5t96.5 77.5q47 19 98 19q27 0 57 -4.5t46 -9.5z" />
    <glyph glyph-name="uni0624" unicode="&#x624;" horiz-adv-x="1052" arabic-form="isolated" 
d="M290 -688l-97 172q201 112 348.5 251.5t200.5 264.5q-107 -2 -192 5q-217 14 -321 142q-91 115 -60 292q26 164 116 280q101 128 234 128q142 0 261 -128q101 -113 151 -287.5t33 -356.5q-18 -196 -214 -408q-185 -202 -460 -355zM519 650q-36 0 -78 -53
q-52 -63 -77 -192q-16 -90 21 -136q44 -57 178 -68q109 -7 207 1q-5 120 -43.5 221.5t-93.5 162.5q-62 64 -114 64zM552 1551l-28 -92q-41 13 -92 13q-34 0 -62 -12v2q-32 -13 -51.5 -42t-19.5 -62q0 -17 8 -36l-1 1q15 -35 50.5 -58.5t77.5 -23.5q26 0 42 7q31 10 66 29
t54 33l19 13l59 -78q-51 -37 -242 -142l-227 -126l-48 87l179 100q-40 17 -72 49t-49 71q-14 34 -14 74q0 62 36.5 115.5t96.5 77.5q47 19 98 19q27 0 57 -5t47 -9z" />
    <glyph glyph-name="uni0625" unicode="&#x625;" horiz-adv-x="616" arabic-form="isolated" 
d="M376 -7l-197 11q15 226 18 429q5 203 0 374q-5 181 -13 280q-6 88 -17 205q-3 36 -6.5 70t-6.5 56.5t-5 40.5l-3 27l-1 8l196 30q2 -6 15 -121q28 -249 35 -485q15 -467 -15 -925zM456 -116l-28 -92q-41 13 -92 13q-34 0 -62 -12v2q-32 -13 -51.5 -42t-19.5 -62
q0 -17 8 -36l-1 1q15 -35 50.5 -58.5t77.5 -23.5q26 0 42 7q31 10 66 29t54 32l19 14l59 -78q-51 -37 -242 -142l-227 -126l-48 87l179 100q-40 17 -72 49t-49 71q-14 34 -14 74q0 62 36.5 115.5t96.5 77.5q47 19 98 19q27 0 57 -4.5t47 -9.5z" />
    <glyph glyph-name="uni0626" unicode="&#x626;" horiz-adv-x="1831" arabic-form="isolated" 
d="M1418 832q52 11 107 10.5t95.5 -7.5t76.5 -17.5t52.5 -17t21.5 -9.5l-87 -183l-4 2q-4 1 -11 4t-17 6t-23 6t-27.5 6t-31.5 5t-34.5 2.5t-37 -1.5t-38.5 -6q-89 -18 -165 -75.5t-126 -144.5q-35 -60 -47.5 -122t1.5 -102q12 -36 56.5 -53t143.5 -35q130 -25 180 -46
q30 -14 55 -31q135 -96 101 -292q-18 -98 -88.5 -180t-185.5 -140q-225 -114 -553 -114q-188 0 -334 54.5t-239 158.5q-168 192 -131 489q14 116 52.5 267.5t66 236t35.5 103.5l191 -67q-115 -354 -142 -564q-28 -206 81 -329q127 -144 420 -144q269 0 438 79.5t188 186.5
q12 68 -16 88q-30 21 -155 43q-133 25 -192 51q-125 54 -165 172q-28 84 -12 187.5t73 203.5q72 125 183.5 208t243.5 111zM864 1327l-28 -92q-41 13 -92 13q-34 0 -62 -12v2q-32 -13 -51.5 -42t-19.5 -62q0 -17 8 -36l-1 1q15 -35 50.5 -58.5t77.5 -23.5q26 0 42 7
q31 10 66 29t54 33l19 13l59 -78q-51 -37 -242 -142l-227 -126l-48 87l179 100q-40 17 -72 49t-49 71q-14 34 -14 74q0 62 36.5 115.5t96.5 77.5q47 19 98 19q27 0 57 -5t47 -9z" />
    <glyph glyph-name="uni0627" unicode="&#x627;" horiz-adv-x="573" arabic-form="isolated" 
d="M398 -10l-197 11q19 294 20.5 577.5t-12.5 493.5t-23 303t-18 165l-1 8l196 30q2 -6 15 -121q12 -105 22 -266q8 -130 13 -276q15 -467 -15 -925z" />
    <glyph glyph-name="uni0628" unicode="&#x628;" horiz-adv-x="2035" arabic-form="isolated" 
d="M1009 -1q-359 3 -575 83q-206 80 -280 229q-83 162 -3 374q13 33 29 66t27.5 52t22.5 35l10 17l159 -118q-14 -19 -23 -36q-27 -49 -42 -90q-46 -127 -4 -210q49 -98 224 -150.5t455 -53.5q195 0 394 34.5t352 118.5q-5 59 -31 132.5t-63 141.5t-56.5 100.5t-36.5 58.5
l-2 3l166 108q19 -28 44.5 -70.5t76 -152t71.5 -201.5q16 -67 16.5 -117t-26 -90.5t-88.5 -79.5q-132 -81 -373.5 -133.5t-443.5 -50.5zM1021 -198l164 -164l-163 -163l-164 164z" />
    <glyph glyph-name="uni0629" unicode="&#x629;" horiz-adv-x="1020" arabic-form="isolated" 
d="M522 0q-110 0 -212 48q-94 43 -144 120t-50 179q0 180 163 377q52 61 117 122l-34 30t-24 22l-8 6l126 153l14 -12q14 -12 36.5 -32.5t50.5 -46.5t63 -62t67 -72q243 -276 243 -485q0 -102 -46 -178.5t-133 -119.5q-99 -49 -229 -49zM534 704q-47 -41 -93 -93t-87 -127.5
t-41 -136.5q0 -82 81 -120q59 -28 128 -28q89 0 141 26q70 37 70 122q0 135 -195 353zM242 1524l164 -164l-162 -162l-164 163zM658 1522l164 -163l-162 -163l-164 164z" />
    <glyph glyph-name="uni062A" unicode="&#x62a;" horiz-adv-x="1997" arabic-form="isolated" 
d="M988 0q-359 3 -575 83q-206 80 -280 229q-83 162 -3 374q13 33 29 66t27.5 52t21.5 36l11 16l159 -118q-14 -19 -23 -36q-27 -49 -42 -90q-46 -127 -4 -210q49 -98 224 -150.5t455 -53.5q195 0 394 34.5t352 118.5q-5 59 -31 132.5t-63 141.5t-56.5 100.5t-36.5 58.5
l-2 3l166 108q19 -28 44.5 -70.5t76 -152t71.5 -201.5q16 -67 16.5 -117t-26 -90.5t-88.5 -79.5q-132 -81 -373.5 -133.5t-443.5 -50.5zM796 1162l164 -164l-162 -162l-164 163zM1212 1160l164 -163l-162 -163l-164 164z" />
    <glyph glyph-name="uni062B" unicode="&#x62b;" horiz-adv-x="2008" arabic-form="isolated" 
d="M995 0q-359 3 -575 83q-206 80 -280 229q-83 162 -3 374q13 33 29 66t27.5 52t22.5 36l10 16l159 -118q-14 -19 -23 -36q-27 -49 -42 -90q-46 -127 -4 -210q49 -98 224 -150.5t455 -53.5q195 0 394 34.5t352 118.5q-5 59 -31 132.5t-63 141.5t-56.5 100.5t-36.5 58.5
l-2 3l166 108q19 -28 44.5 -70.5t76 -152t71.5 -201.5q16 -67 16.5 -117t-26 -90.5t-88.5 -79.5q-132 -81 -373.5 -133.5t-443.5 -50.5zM1237 808l-164 164l162 162l164 -164zM807 809l-164 164l162 163l164 -164zM1028 1154l-149 149l148 148l149 -149z" />
    <glyph glyph-name="uni062C" unicode="&#x62c;" horiz-adv-x="1675" arabic-form="isolated" 
d="M985 -775q-205 0 -324 41q-227 73 -348 217q-158 182 -134 435q20 205 155 364q124 143 298 223q217 101 511 137q-18 10 -54.5 27t-54.5 26q-88 43 -135.5 65.5t-105.5 44.5t-95 27q-139 19 -250 -99q-34 -37 -66 -90q-16 -26 -23 -42l-182 76q1 1 7.5 15t16 32
t23.5 40.5t35 50t45 52.5q177 193 421 161q53 -7 123.5 -32.5t117.5 -47.5t157 -75q298 -150 499 -217l-36 -192h-3q-36 1 -77 1.5t-149 -4.5t-205 -17.5t-219 -42.5t-217 -74q-35 -16 -70 -37t-83.5 -60t-85 -83.5t-66 -109.5t-35.5 -136q-28 -323 346 -448
q41 -16 142.5 -25t211.5 -1q288 24 449 162l131 -150q-132 -115 -310 -164.5t-361 -49.5zM944 83l164 -164l-163 -163l-164 164z" />
    <glyph glyph-name="uni062D" unicode="&#x62d;" horiz-adv-x="1772" arabic-form="isolated" 
d="M985 -775q-205 0 -324 41q-227 73 -348 217q-158 182 -134 435q20 205 155 364q124 143 298 223q217 101 511 137q-18 10 -54.5 27t-54.5 26q-88 43 -135.5 65.5t-105.5 44.5t-95 27q-139 19 -250 -99q-34 -37 -66 -90q-16 -26 -23 -42l-182 76q1 1 7.5 15t16 32
t23.5 40.5t35 50t45 52.5q177 193 421 161q53 -7 123.5 -32.5t117.5 -47.5t157 -75q298 -150 499 -217l-36 -192h-3q-36 1 -77 1.5t-149 -4.5t-205 -17.5t-219 -42.5t-217 -74q-35 -16 -70 -37t-83.5 -60t-85 -83.5t-66 -109.5t-35.5 -136q-28 -323 346 -448
q41 -16 142.5 -25t211.5 -1q288 24 449 162l131 -150q-132 -115 -310 -164.5t-361 -49.5z" />
    <glyph glyph-name="uni062E" unicode="&#x62e;" horiz-adv-x="1670" arabic-form="isolated" 
d="M985 -775q-205 0 -324 41q-227 73 -348 217q-158 182 -134 435q20 205 155 364q124 143 298 223q217 101 511 137q-18 10 -54.5 27t-54.5 26q-88 43 -135.5 65.5t-105.5 44.5t-95 27q-139 19 -250 -99q-34 -37 -66 -90q-16 -26 -23 -42l-182 76q1 1 7.5 15t16 32
t23.5 40.5t35 50t45 52.5q177 193 421 161q53 -7 123.5 -32.5t117.5 -47.5t157 -75q298 -150 499 -217l-36 -192h-3q-36 1 -77 1.5t-149 -4.5t-205 -17.5t-219 -42.5t-217 -74q-35 -16 -70 -37t-83.5 -60t-85 -83.5t-66 -109.5t-35.5 -136q-28 -323 346 -448
q41 -16 142.5 -25t211.5 -1q288 24 449 162l131 -150q-132 -115 -310 -164.5t-361 -49.5zM597 1603l164 -164l-163 -163l-164 164z" />
    <glyph glyph-name="uni062F" unicode="&#x62f;" horiz-adv-x="1144" arabic-form="isolated" 
d="M556 1q-57 0 -105 5q-47 4 -96 12.5t-85.5 17.5t-66.5 17.5t-46.5 13.5t-17.5 5l66 188l7 -2q8 -3 22 -7t32.5 -9.5t42.5 -11t49.5 -11t56.5 -10t60 -7.5q259 -24 355 90q27 31 7 116q-33 146 -170.5 313.5t-272.5 226.5l81 182q116 -54 234 -165.5t205 -249t117 -262.5
q40 -181 -49 -287q-92 -111 -257 -147q-69 -18 -169 -18z" />
    <glyph glyph-name="uni0630" unicode="&#x630;" horiz-adv-x="1138" arabic-form="isolated" 
d="M556 1q-57 0 -105 5q-47 4 -96 12.5t-85.5 17.5t-66.5 17.5t-46.5 13.5t-17.5 5l66 188l7 -2q8 -3 22 -7t32.5 -9.5t42.5 -11t49.5 -11t56.5 -10t60 -7.5q259 -24 355 90q27 31 7 116q-33 146 -170.5 313.5t-272.5 226.5l81 182q116 -54 234 -165.5t205 -249t117 -262.5
q40 -181 -49 -287q-92 -111 -257 -147q-69 -18 -169 -18zM462 1705l164 -164l-163 -163l-164 164z" />
    <glyph glyph-name="uni0631" unicode="&#x631;" horiz-adv-x="993" arabic-form="isolated" 
d="M531 588l190 60q102 -323 122 -504q3 -45 3 -56q0 -125 -55.5 -247.5t-150.5 -224.5t-209.5 -185.5t-245.5 -148.5l-87 176q109 54 204.5 121.5t175.5 147.5t126 174t46 187q0 3 -0.5 9.5t-1.5 15t-1 14.5v-1q-8 74 -37 189.5t-54 194.5z" />
    <glyph glyph-name="uni0632" unicode="&#x632;" horiz-adv-x="993" arabic-form="isolated" 
d="M531 588l190 60q102 -323 122 -504q3 -45 3 -56q0 -125 -55.5 -247.5t-150.5 -224.5t-209.5 -185.5t-245.5 -148.5l-87 176q109 54 204.5 121.5t175.5 147.5t126 174t46 187q0 3 -0.5 9.5t-1.5 15t-1 14.5v-1q-8 74 -37 189.5t-54 194.5zM615 1255l164 -164l-163 -163
l-164 164z" />
    <glyph glyph-name="uni0633" unicode="&#x633;" horiz-adv-x="2781" arabic-form="isolated" 
d="M2320 644l175 92q156 -297 155 -509q-1 -70 -13 -130.5t-38.5 -113t-65 -89.5t-95.5 -58t-128 -21q-60 0 -127 35.5t-108 96.5q-106 -125 -294 -133q-56 -3 -106.5 12.5t-72.5 31.5l-22 17q12 -403 -263 -585q-180 -122 -470 -136q-7 0 -20 -0.5t-19 -0.5
q-266 0 -434 150q-76 67 -125.5 161.5t-65.5 204.5q-32 200 42 439q56 185 128 282l159 -117q-53 -71 -104 -247.5t-29 -328.5q6 -39 17.5 -77t42.5 -89t74.5 -88.5t119.5 -64t172 -26.5h33q426 18 517 298q84 261 -66 607q-14 32 -29 60t-22 41l-8 13l167 108
q22 -52 63 -145q27 -61 45.5 -99.5t48.5 -86t59.5 -74t70.5 -44.5t88 -16q38 1 67 13.5t47.5 30t31 48.5t18 58.5t8.5 70.5t3 73.5t-0.5 79t-0.5 75.5l203 20q3 -52 4 -86q16 -392 164 -392q66 0 104 70t33 166q-1 31 -6.5 63.5t-11.5 58.5t-17 58t-18.5 52t-21.5 51
t-20.5 44l-21 42t-17.5 34z" />
    <glyph glyph-name="uni0634" unicode="&#x634;" horiz-adv-x="2738" arabic-form="isolated" 
d="M2320 644l175 92q156 -297 155 -509q-1 -70 -13 -130.5t-38.5 -113t-65 -89.5t-95.5 -58t-128 -21q-60 0 -127 35.5t-108 96.5q-106 -125 -294 -133q-56 -3 -106.5 12.5t-72.5 31.5l-22 17q12 -403 -263 -585q-180 -122 -470 -136q-7 0 -20 -0.5t-19 -0.5
q-266 0 -434 150q-76 67 -125.5 161.5t-65.5 204.5q-32 200 42 439q56 185 128 282l159 -117q-53 -71 -104 -247.5t-29 -328.5q6 -39 17.5 -77t42.5 -89t74.5 -88.5t119.5 -64t172 -26.5h33q426 18 517 298q84 261 -66 607q-14 32 -29 60t-22 41l-8 13l167 108
q22 -52 63 -145q27 -61 45.5 -99.5t48.5 -86t59.5 -74t70.5 -44.5t88 -16q38 1 67 13.5t47.5 30t31 48.5t18 58.5t8.5 70.5t3 73.5t-0.5 79t-0.5 75.5l203 20q3 -52 4 -86q16 -392 164 -392q66 0 104 70t33 166q-1 31 -6.5 63.5t-11.5 58.5t-17 58t-18.5 52t-21.5 51
t-20.5 44l-21 42t-17.5 34zM2202 862l-164 164l162 162l164 -164zM1772 863l-164 164l162 163l164 -164zM1993 1208l-149 149l148 148l149 -149z" />
    <glyph glyph-name="uni0635" unicode="&#x635;" horiz-adv-x="2942" arabic-form="isolated" 
d="M844 -649q-59 0 -101 6q-191 13 -327 95q-118 69 -187 201q-58 123 -57 280q0 116 38 266q26 106 66 198.5t65 130.5l166 -106q-11 -16 -33.5 -64.5t-48 -127t-42.5 -161.5t-13 -173t37 -156q79 -164 353 -187q280 -24 430 105q140 115 155 337q15 214 -112 566
q-4 10 -5 14q-3 3 -5 9.5t-4 8.5l184 77l8 -23q43 -99 147 -264q22 -35 74 -79q104 193 245 329q182 173 408 215q263 45 425 -124q120 -120 109 -277q-17 -230 -214 -358q-175 -113 -452 -122q-236 -9 -426 60q-110 44 -184 97q3 -74 0 -144q-10 -139 -63 -255
q-56 -129 -161 -219q-184 -155 -475 -155zM1806 209q91 -32 212 -42.5t255 10.5t223 78q115 72 127 205q4 69 -54 127q-36 36 -83 54.5t-87.5 18t-78.5 -6.5q-164 -28 -306 -162q-120 -115 -208 -282z" />
    <glyph glyph-name="uni0636" unicode="&#x636;" horiz-adv-x="2910" arabic-form="isolated" 
d="M844 -649q-59 0 -101 6q-191 13 -327 95q-118 69 -187 201q-58 123 -57 280q0 116 38 266q26 106 66 198.5t65 130.5l166 -106q-11 -16 -33.5 -64.5t-48 -127t-42.5 -161.5t-13 -173t37 -156q79 -164 353 -187q280 -24 430 105q140 115 155 337q15 214 -112 566
q-4 10 -5 14q-3 3 -5 9.5t-4 8.5l184 77l8 -23q43 -99 147 -264q22 -35 74 -79q104 193 245 329q182 173 408 215q263 45 425 -124q120 -120 109 -277q-17 -230 -214 -358q-175 -113 -452 -122q-236 -9 -426 60q-110 44 -184 97q3 -74 0 -144q-10 -139 -63 -255
q-56 -129 -161 -219q-184 -155 -475 -155zM1806 209q91 -32 212 -42.5t255 10.5t223 78q115 72 127 205q4 69 -54 127q-36 36 -83 54.5t-87.5 18t-78.5 -6.5q-164 -28 -306 -162q-120 -115 -208 -282zM2294 1420l164 -164l-163 -163l-164 164z" />
    <glyph glyph-name="uni0637" unicode="&#x637;" horiz-adv-x="1815" arabic-form="isolated" 
d="M856 0q-73 0 -126 4h-5q-309 15 -634 140l72 185q133 -52 258 -83q52 76 125 168l7 10q24 165 25 289t-14 314q-4 59 -9.5 118.5t-10.5 108t-10 93t-9 77.5t-7 58t-5 38l-2 13l196 36l2 -19q2 -19 6 -52t8.5 -75t10 -90.5t10.5 -95.5t9 -93.5t7 -81.5q13 -176 15 -268
q2 -75 3 -128q241 229 461 262q197 32 359 -99q101 -82 107 -216q8 -100 -36 -197.5t-107 -165.5l-1 -2l-2 -2q-85 -76 -179 -128t-188 -76t-171.5 -33t-164.5 -9zM702 294l-61 -86q22 -3 94 -7h2q62 0 124.5 -3t135.5 6.5t141.5 27t143.5 58t140 99.5q38 42 64 101t23 112
q-5 52 -35 74q-92 75 -205 56q-205 -32 -477 -333l-48 -56z" />
    <glyph glyph-name="uni0638" unicode="&#x638;" horiz-adv-x="1787" arabic-form="isolated" 
d="M856 0q-73 0 -126 4h-5q-309 15 -634 140l72 185q133 -52 258 -83q52 76 125 168l7 10q24 165 25 289t-14 314q-4 59 -9.5 118.5t-10.5 108t-10 93t-9 77.5t-7 58t-5 38l-2 13l196 36l2 -19q2 -19 6 -52t8.5 -75t10 -90.5t10.5 -95.5t9 -93.5t7 -81.5q13 -176 15 -268
q2 -75 3 -128q241 229 461 262q197 32 359 -99q101 -82 107 -216q8 -100 -36 -197.5t-107 -165.5l-1 -2l-2 -2q-85 -76 -179 -128t-188 -76t-171.5 -33t-164.5 -9zM702 294l-61 -86q22 -3 94 -7h2q62 0 124.5 -3t135.5 6.5t141.5 27t143.5 58t140 99.5q38 42 64 101t23 112
q-5 52 -35 74q-92 75 -205 56q-205 -32 -477 -333l-48 -56zM1298 1502l164 -164l-163 -163l-164 164z" />
    <glyph glyph-name="uni0639" unicode="&#x639;" horiz-adv-x="1713" arabic-form="isolated" 
d="M940 -763q-180 0 -278 31q-226 66 -356 207q-160 173 -145 432q10 199 144 369q113 141 291 231q24 14 87 41l-6 4q-136 94 -152 265q-20 184 99 320q63 72 147.5 113t177.5 45q155 7 315 -96q33 -22 62.5 -46t46 -39.5t17.5 -15.5l-144 -137q-6 6 -16 15.5t-42 34
t-64 42.5t-77.5 32.5t-87.5 12.5q-117 -6 -185 -90q-61 -72 -53 -172q8 -80 68 -122q53 -35 140 -50.5t193 -0.5l230 36l42 -192q-2 0 -33 -5.5t-97 -16.5t-128 -21q-164 -27 -258.5 -56t-191.5 -77q-34 -16 -69.5 -38.5t-82 -62.5t-82.5 -86t-63 -112t-31 -137
q-20 -328 358 -436q48 -15 137 -21.5t219 4.5q291 33 444 175l134 -144q-93 -88 -223.5 -143.5t-246.5 -74t-240 -18.5z" />
    <glyph glyph-name="uni063A" unicode="&#x63a;" horiz-adv-x="1670" arabic-form="isolated" 
d="M940 -763q-180 0 -278 31q-226 66 -356 207q-160 173 -145 432q10 199 144 369q113 141 291 231q24 14 87 41l-6 4q-136 94 -152 265q-20 184 99 320q63 72 147.5 113t177.5 45q155 7 315 -96q33 -22 62.5 -46t46 -39.5t17.5 -15.5l-144 -137q-6 6 -16 15.5t-42 34
t-64 42.5t-77.5 32.5t-87.5 12.5q-117 -6 -185 -90q-61 -72 -53 -172q8 -80 68 -122q53 -35 140 -50.5t193 -0.5l230 36l42 -192q-2 0 -33 -5.5t-97 -16.5t-128 -21q-164 -27 -258.5 -56t-191.5 -77q-34 -16 -69.5 -38.5t-82 -62.5t-82.5 -86t-63 -112t-31 -137
q-20 -328 358 -436q48 -15 137 -21.5t219 4.5q291 33 444 175l134 -144q-93 -88 -223.5 -143.5t-246.5 -74t-240 -18.5zM934 1853l164 -164l-163 -163l-164 164z" />
    <glyph glyph-name="uni0641" unicode="&#x641;" horiz-adv-x="1944" arabic-form="isolated" 
d="M1716 1013q99 -108 147 -294t4 -367q-28 -125 -167 -211q-107 -68 -306.5 -104t-436.5 -36q-606 0 -784 304q-29 48 -45 102t-19.5 102.5t0 99.5t13.5 92t22 80t23 64t19 44l9 19l174 -95l-4 -9q-4 -9 -10.5 -24.5t-14.5 -36.5t-15 -46.5t-12.5 -53.5t-7 -59t0.5 -60.5
t12 -61t26 -58.5q61 -102 202 -154t382 -59q436 -11 639 100q54 28 86 64h-51q-73 0 -99 3q-199 12 -294 131q-84 99 -56 269q16 92 55 174t110 141t158 59q133 0 240 -119zM1516 555q104 -6 173 0q-7 37 -10.5 54t-12 56t-16.5 61t-20.5 56t-27 54.5t-33 43t-42.5 36
t-51 19.5q-24 5 -56.5 -30t-54.5 -87.5t-27 -110t26 -96.5q37 -50 152 -56zM1633 1520l-164 164l-163 -163l164 -164z" />
    <glyph glyph-name="uni0642" unicode="&#x642;" horiz-adv-x="1568" arabic-form="isolated" 
d="M1188 -3q-60 0 -109 4q-226 16 -322 143q-92 118 -61 291q28 167 117 280q100 129 233 129q141 0 261 -129q101 -113 150.5 -286t32.5 -352h2q0 -17 -4.5 -56.5t-28.5 -129.5t-65 -166q-81 -157 -216 -249q-164 -115 -396 -115h-2q-197 0 -345 76q-162 81 -241 222
q-106 172 -88 401q16 228 154 487l175 -94q-110 -205 -129 -385t56 -308q58 -97 166.5 -149t251.5 -52h2q99 -7 186 26.5t149.5 96.5t104.5 143.5t61 172.5q-14 0 -45.5 -0.5t-49.5 -0.5zM1046 645q-36 0 -78 -52q-53 -64 -77 -192q-15 -90 21 -135q43 -54 179 -68
q118 -7 206 0q-5 120 -43.5 221t-92.5 163q-61 63 -115 63zM807 1418l164 -164l-162 -162l-164 163zM1223 1416l164 -163l-162 -163l-164 164z" />
    <glyph glyph-name="uni0643" unicode="&#x643;" horiz-adv-x="2024" arabic-form="isolated" 
d="M1172 960l-28 -92q-41 13 -92 13q-34 0 -62 -12v2q-32 -13 -51.5 -42t-19.5 -62q0 -17 8 -36l-1 1q15 -35 50.5 -58.5t77.5 -23.5q26 0 42 7q31 10 66 29t54 32l19 14l59 -78q-51 -37 -242 -142l-227 -126l-48 87l179 100q-40 17 -72 49t-49 71q-14 34 -14 74
q0 62 36.5 115.5t96.5 77.5q47 19 98 19q27 0 57 -4.5t47 -9.5zM1862 955q14 -420 14 -447q-2 -113 -48 -199q-82 -153 -284 -233q-224 -87 -573 -87q-361 5 -575 84q-206 78 -280 229q-83 162 -3 374q13 33 29 66t27.5 52t22.5 36l10 16l159 -118q-14 -19 -23 -36
q-27 -49 -42 -90q-46 -127 -4 -210q49 -98 224 -150.5t455 -53.5q321 0 500 71q135 55 182 143q25 45 27 115q-3 124 -17 431q-12 361 -35 543l196 21q27 -280 38 -557z" />
    <glyph glyph-name="uni0644" unicode="&#x644;" horiz-adv-x="1509" arabic-form="isolated" 
d="M270 419l179 -80q-4 -6 -11 -17t-25 -51t-32 -85t-25.5 -117.5t-11.5 -150.5q0 -76 25 -140t64.5 -105t90 -71t98 -44t91.5 -17q62 -4 127 8.5t130 45.5t116 83.5t82.5 130t31.5 177.5q0 188 -13 571.5t-27 673.5l-13 290l196 8q53 -1122 53 -1543q0 -105 -24 -195
t-64.5 -155.5t-96 -118t-117 -85.5t-128.5 -54.5t-130 -28.5t-123 -4q-77 4 -152.5 25.5t-151.5 67t-133.5 109t-93 159.5t-34.5 212q1 96 13.5 182.5t30.5 142t35.5 97.5t30.5 60z" />
    <glyph glyph-name="uni0645" unicode="&#x645;" horiz-adv-x="1326" arabic-form="isolated" 
d="M409 -731h-196l-37 927q0 133 81 192q75 60 193 26q26 77 64 151q60 112 126 180q102 100 220 96q167 -6 261 -131q75 -103 85 -251q9 -142 -38 -256q-61 -151 -179 -171q-52 -8 -129.5 16t-237.5 89q-131 57 -217 84q-21 7 -29 7q-3 -15 -3 -24zM635 346l63 -26
q91 -39 171 -67q64 -23 86 -25q23 16 42 88q26 99 3 186q-34 142 -147 142q-35 1 -78.5 -44.5t-83.5 -125.5q-16 -29 -56 -128z" />
    <glyph glyph-name="uni0646" unicode="&#x646;" horiz-adv-x="1595" arabic-form="isolated" 
d="M755 -688q-265 0 -433 150q-159 138 -192 366q-32 200 42 439q53 174 128 282l159 -117q-30 -41 -65 -127.5t-59 -215t-9 -233.5q6 -36 21 -75t49.5 -87t83 -85.5t128 -65.5t176.5 -32h2q425 18 518 298q31 105 28 207t-25.5 195t-52 164t-51.5 113t-25 42l166 106
q11 -15 34.5 -57.5t62 -137.5t63.5 -197t25.5 -237.5t-38.5 -257.5q-60 -190 -227 -300q-178 -122 -470 -136q-7 0 -20 -0.5t-19 -0.5zM843 793l164 -164l-163 -163l-164 164z" />
    <glyph glyph-name="uni0647" unicode="&#x647;" horiz-adv-x="974" arabic-form="isolated" 
d="M485 0q-110 0 -212 48q-94 43 -144 120t-50 179q0 180 163 377q52 61 117 122l-34 30t-25 22l-7 6l126 153l14 -12q14 -12 36.5 -32.5t50.5 -46.5t63 -62t67 -72q243 -276 243 -485q0 -102 -46 -178.5t-133 -119.5q-99 -49 -229 -49zM497 704q-47 -41 -93 -93t-87 -127.5
t-41 -136.5q0 -82 81 -120q59 -28 128 -28q89 0 141 26q70 37 70 122q0 135 -195 353z" />
    <glyph glyph-name="uni0648" unicode="&#x648;" horiz-adv-x="1079" arabic-form="isolated" 
d="M290 -688l-97 172q201 112 348.5 251.5t200.5 264.5q-107 -2 -192 5q-217 14 -321 142q-91 115 -60 292q26 164 116 280q101 128 234 128q142 0 261 -128q101 -113 151 -287.5t33 -356.5q-18 -196 -214 -408q-185 -202 -460 -355zM519 650q-36 0 -78 -53
q-52 -63 -77 -192q-16 -90 21 -136q44 -57 178 -68q109 -7 207 1q-5 120 -43.5 221.5t-93.5 162.5q-62 64 -114 64z" />
    <glyph glyph-name="uni0649" unicode="&#x649;" horiz-adv-x="1842" arabic-form="isolated" 
d="M1418 832q52 11 107 10.5t95.5 -7.5t76.5 -17.5t52.5 -17t21.5 -9.5l-87 -183l-4 2q-4 1 -11 4t-17 6t-23 6t-27.5 6t-31.5 5t-34.5 2.5t-37 -1.5t-38.5 -6q-89 -18 -165 -75.5t-126 -144.5q-35 -60 -47.5 -122t1.5 -102q12 -36 56.5 -53t143.5 -35q130 -25 180 -46
q30 -14 55 -31q135 -96 101 -292q-18 -98 -88.5 -180t-185.5 -140q-225 -114 -553 -114q-188 0 -334 54.5t-239 158.5q-168 192 -131 489q14 116 52.5 267.5t66 236t35.5 103.5l191 -67q-115 -354 -142 -564q-28 -206 81 -329q127 -144 420 -144q269 0 438 79.5t188 186.5
q12 68 -16 88q-30 21 -155 43q-133 25 -192 51q-125 54 -165 172q-28 84 -12 187.5t73 203.5q72 125 183.5 208t243.5 111z" />
    <glyph glyph-name="uni064A" unicode="&#x64a;" horiz-adv-x="1831" arabic-form="isolated" 
d="M1418 832q52 11 107 10.5t95.5 -7.5t76.5 -17.5t52.5 -17t21.5 -9.5l-87 -183l-4 2q-4 1 -11 4t-17 6t-23 6t-27.5 6t-31.5 5t-34.5 2.5t-37 -1.5t-38.5 -6q-89 -18 -165 -75.5t-126 -144.5q-35 -60 -47.5 -122t1.5 -102q12 -36 56.5 -53t143.5 -35q130 -25 180 -46
q30 -14 55 -31q135 -96 101 -292q-18 -98 -88.5 -180t-185.5 -140q-225 -114 -553 -114q-188 0 -334 54.5t-239 158.5q-168 192 -131 489q14 116 52.5 267.5t66 236t35.5 103.5l191 -67q-115 -354 -142 -564q-28 -206 81 -329q127 -144 420 -144q269 0 438 79.5t188 186.5
q12 68 -16 88q-30 21 -155 43q-133 25 -192 51q-125 54 -165 172q-28 84 -12 187.5t73 203.5q72 125 183.5 208t243.5 111zM691 -799l164 -164l-162 -162l-164 163zM1107 -801l164 -163l-162 -163l-164 164z" />
    <glyph glyph-name="uni066E.init" unicode="&#x66e;" horiz-adv-x="789" 
d="M-98 98q0 41 28.5 69.5t69.5 28.5h183q61 -2 103.5 1t87 14t75.5 37t50 66q40 84 -29 308q-12 38 -34 91.5t-38 88.5l-15 34l178 88l15 -32q15 -33 39 -93t42 -117q93 -287 23 -448q-71 -161 -252 -212q-75 -22 -202 -22h-217h-9q-41 0 -69.5 28.5t-28.5 69.5z" />
    <glyph glyph-name="uni066E.medi" unicode="&#x66e;" horiz-adv-x="789" 
d="M-94 98q0 41 28.5 69.5t69.5 28.5h101q166 0 243 59.5t77 180.5q0 135 -46 297l188 53q54 -187 54 -350v-5q0 -41 7.5 -78.5t24.5 -75t51.5 -59.5t83.5 -22q41 0 70 -29t29 -69q0 -41 -29 -69.5t-69 -28.5q-179 0 -274 124q-127 -124 -410 -124h-101q-41 0 -69.5 28.5
t-28.5 69.5z" />
    <glyph glyph-name="uni066E.fina" unicode="&#x66e;" horiz-adv-x="2316" 
d="M1925 164q-39 46 -62 109q-264 -276 -833 -276q-309 2 -507 73.5t-286 221.5q-105 177 -48 401q33 134 77 213l173 -95l-7 -15q-6 -14 -15.5 -38t-19.5 -55.5t-15.5 -69.5t-6.5 -76t8.5 -79t30.5 -76q121 -204 616 -206q437 0 634 161q83 65 127.5 151.5t77.5 201.5
l190 -52q-13 -49 -23 -98q-12 -59 -11 -100q6 -116 55 -174q71 -89 238 -89q41 0 70 -29t29 -70t-29 -69.5t-70 -28.5h-8q-260 3 -385 164z" />
    <glyph glyph-name="uni066F.init" unicode="&#x66f;" horiz-adv-x="940" 
d="M428 927q-33 0 -73.5 -58t-55.5 -152q-14 -75 17 -112q41 -51 151 -57q105 -5 173 0q-7 99 -38 185t-81 141q-46 53 -93 53zM-101 98q0 41 29.5 69.5t70.5 28.5q204 0 359.5 35t211.5 79q20 18 37 38h-101q-110 0 -202.5 35t-143.5 100q-83 107 -56 269q27 152 107 254
q92 119 217 119q132 0 240 -117q93 -101 139 -261t29 -321h-1q-6 -40 -17 -81q-24 -110 -126 -189q-93 -74 -277.5 -114t-400.5 -42h-17q-41 0 -69.5 29t-28.5 69z" />
    <glyph glyph-name="uni066F.medi" unicode="&#x66f;" horiz-adv-x="969" 
d="M479 741q-61 0 -120 -78.5t-59 -193.5q0 -46 44.5 -92t127.5 -84l16 -7q38 22 65 50t40 51t20 55t8 48.5t1 45.5q0 54 -12 94t-28 60.5t-38 32.5t-36.5 15t-28.5 3zM-103 98q0 42 28.5 70t69.5 28q127 0 239 15q-130 114 -130 258q0 190 111 329q54 67 123.5 103.5
t142.5 36.5q140 0 233 -99q107 -116 107 -303q0 -194 -104 -316q119 -24 251 -24q42 0 70.5 -28t28.5 -70q0 -41 -28.5 -69.5t-70.5 -28.5h-9q-125 0 -240 18q-124 20 -224 53q-189 -71 -492 -71h-8q-41 0 -69.5 28.5t-28.5 69.5z" />
    <glyph glyph-name="uni066F.fina" unicode="&#x66f;" horiz-adv-x="1632" 
d="M1083 648q-36 0 -78 -53q-53 -64 -77 -190q-15 -92 21 -136q43 -55 177 -69q118 -6 208 -4q-5 121 -43.5 223t-94.5 166q-58 63 -113 63zM1317 -3h-24q-79 0 -179 6q-219 15 -321 143q-91 119 -60 292q27 169 116 279q101 129 234 129q143 0 260 -129q85 -93 134 -229
t54 -289q81 -3 107 -3q41 0 70 -28.5t29 -69.5q0 -40 -29 -69t-70 -29h-9h-111q-24 -145 -88 -271q-81 -157 -214 -251q-167 -115 -398 -115q-197 0 -348 77q-155 77 -241 221q-104 173 -87 401q16 228 154 488l175 -93q-110 -206 -129 -386t56 -307q59 -98 167 -150
t253 -52q301 0 433 252q44 83 66 183z" />
    <glyph glyph-name="uni0671" unicode="&#x671;" horiz-adv-x="573" arabic-form="isolated" 
d="M393 -7l-197 11q15 226 18 429q5 203 0 374q-5 181 -13 280q-6 88 -17 205q-3 36 -6.5 70t-6.5 56.5t-5 40.5l-3 27l-1 8l196 30q2 -6 15 -121q28 -249 35 -485q15 -467 -15 -925zM220 1737q40 -3 83.5 -3.5t91 11t74.5 33.5q26 23 29 57q0 26 -18 41q-29 32 -82 23
q-58 -11 -103 -55q-46 -46 -75 -107zM-36 1700l-18 68q10 5 26.5 12.5t54 17.5t57.5 6t38.5 -15t26.5 -20l8 -9q43 83 94 132q61 59 135 70q86 18 141 -40q41 -42 35 -92q-2 -62 -53 -104q-73 -58 -224 -58q-20 0 -85 5q-25 3 -49 14q-30 13 -53 44q-24 14 -53.5 7
t-54.5 -22z" />
    <glyph glyph-name="uni0672.fina" unicode="&#x672;" horiz-adv-x="610" 
d="M610 0q-214 0 -321 106q-31 31 -50.5 68.5t-26.5 80t-8.5 65.5t-1.5 60v19v8q0 8 0.5 21.5t1 33t1 44.5t0.5 53v61.5v68v73t-1 76.5q0 464 -35 640l196 36q36 -194 36 -652v-466v-18q-1 -53 4.5 -83t25.5 -50q46 -48 170 -49h9q41 0 70 -29t29 -69q0 -41 -29 -69.5
t-70 -28.5zM579 1983l-56 -69q-6 7 -17 17.5t-46.5 28t-72.5 17.5q-51 0 -79.5 -32t-28.5 -77q0 -57 46.5 -92.5t109.5 -32.5q32 2 67 7t54 9l18 4l12 -87q-9 -2 -44.5 -13t-59.5 -16t-65 -10.5t-89 -3t-103 12.5q-5 1 -43 11t-52 9q-27 -2 -47.5 -9.5t-28.5 -13t-25.5 -22
t-22.5 -20.5l-48 65q2 2 20.5 20t28 25t28.5 20t39 20t42 9q14 2 47.5 -6.5t59.5 -17.5l26 -9q-60 56 -60 141q0 82 57 140.5t141 58.5q51 0 99 -21t70 -42z" />
    <glyph glyph-name="uni0673.fina" unicode="&#x673;" horiz-adv-x="628" 
d="M621 0q-214 0 -321 106q-31 31 -50.5 68.5t-26.5 80t-8.5 65.5t-1.5 60v19v8q0 8 0.5 21.5t1 33t1 44.5t0.5 53v61.5v68v73t-1 76.5q0 464 -35 640l196 36q36 -194 36 -652v-466v-18q-1 -53 4.5 -83t25.5 -50q45 -47 170 -48h9q41 0 70 -29.5t29 -69.5q0 -41 -29 -69.5
t-70 -28.5zM658 -203l-56 -69q-6 7 -17 17.5t-46.5 28t-72.5 17.5q-51 0 -79.5 -32t-28.5 -77q0 -57 46.5 -92.5t109.5 -32.5q32 2 67 7t53 9l19 4l12 -87q-9 -2 -44.5 -13t-59.5 -16t-65 -10.5t-89 -3t-103 12.5q-5 1 -43 11t-52 9q-27 -2 -47.5 -9.5t-28.5 -13t-25.5 -22
t-22.5 -20.5l-48 65q2 2 20.5 20t28 25t28.5 20t39 20t42 9q14 2 47.5 -6.5t59.5 -17.5l26 -9q-60 56 -60 141q0 82 57 140.5t141 58.5q51 0 99 -21t71 -42z" />
    <glyph glyph-name="uni0675.fina" unicode="&#x675;" horiz-adv-x="610" 
d="M590 0q-214 0 -321 106q-31 31 -50.5 68.5t-26.5 80t-8.5 65.5t-1.5 60v19v8q0 8 0.5 21.5t1 33t1 44.5t0.5 53v61.5v68v73t-1 76.5q0 464 -35 640l196 36q36 -194 36 -652v-466v-18q-1 -53 4.5 -83t25.5 -50q46 -48 170 -49h9q41 0 70 -29t29 -69q0 -41 -29 -69.5
t-70 -28.5zM411 2143l-28 -92q-41 13 -92 13q-34 0 -62 -12v2q-32 -13 -51.5 -42t-19.5 -62q0 -17 8 -36l-1 1q15 -35 50.5 -58.5t77.5 -23.5q26 0 42 7q31 10 66 29t54 33l19 13l59 -78q-51 -37 -242 -142l-227 -126l-48 87l179 100q-40 17 -72 49t-49 71q-14 34 -14 74
q0 62 36.5 115.5t96.5 77.5q47 19 98 19q27 0 57 -5t46 -9z" />
    <glyph glyph-name="uni0676.fina" unicode="&#x676;" horiz-adv-x="1069" 
d="M534 653q-37 0 -78 -53q-53 -66 -77 -192q-15 -90 21 -135q48 -62 178 -77h207q-4 124 -43 227.5t-94 164.5q-57 65 -114 65zM305 -684l-97 172q198 111 343.5 248.5t202.5 263.5q-159 6 -189 9q-219 12 -320 143q-92 116 -61 291q33 174 117 278q100 129 233 129
q144 0 261 -129q84 -92 133 -231.5t54 -293.5h87q42 0 71 -28.5t29 -70.5q0 -40 -29.5 -68.5t-70.5 -28.5h-105q-42 -155 -199 -330q-188 -204 -460 -354zM647 1488l-28 -92q-41 13 -92 13q-34 0 -62 -12v2q-32 -13 -51.5 -42t-19.5 -62q0 -17 8 -36l-1 1q15 -35 50.5 -58.5
t77.5 -23.5q26 0 42 7q31 10 66 29t54 32l19 14l59 -78q-51 -37 -242 -142l-227 -126l-48 87l179 100q-40 17 -72 49t-49 71q-14 34 -14 74q0 62 36.5 115.5t96.5 77.5q47 19 98 19q27 0 57 -4.5t46 -9.5z" />
    <glyph glyph-name="uni0677.fina" unicode="&#x677;" horiz-adv-x="1108" 
d="M565 653q-37 0 -78 -53q-53 -66 -77 -192q-15 -90 21 -135q48 -62 178 -77h207q-4 124 -43 227.5t-94 164.5q-57 65 -114 65zM336 -684l-97 172q198 111 343.5 248.5t202.5 263.5q-159 6 -189 9q-219 12 -320 143q-92 116 -61 291q33 174 117 278q100 129 233 129
q144 0 261 -129q84 -92 133 -231.5t54 -293.5h87q42 0 71 -28.5t29 -70.5q0 -40 -29.5 -68.5t-70.5 -28.5h-105q-42 -155 -199 -330q-188 -204 -460 -354zM293 1497l-24 84q177 50 272 122l-9 4q-8 4 -54 26q-38 19 -62 46t-31.5 54.5t-6 52t10.5 44.5q29 60 94.5 90.5
t121.5 3.5q59 -28 78 -95q24 -79 -8 -184q3 -1 13 -3.5t15 -4.5l-25 -83q-23 6 -48 16q-20 -21 -48 -41.5t-58.5 -37t-59 -30t-59.5 -25.5t-50.5 -19t-40.5 -13zM550 1951q-22 0 -46.5 -17.5t-35.5 -41.5q-1 0 -3 -5t-1.5 -14t4 -19t15.5 -21.5t32 -21.5q10 -5 28.5 -14
t26.5 -13l24 -11q21 89 5 136q-11 29 -32 38q-5 4 -17 4zM681 1428l-28 -92q-41 13 -92 13q-34 0 -62 -12v2q-32 -13 -51.5 -42t-19.5 -62q0 -17 8 -36l-1 1q15 -35 50.5 -58.5t77.5 -23.5q26 0 42 7q31 10 66 29t54 32l19 14l59 -78q-51 -37 -242 -142l-227 -126l-48 87
l179 100q-40 17 -72 49t-49 71q-14 34 -14 74q0 62 36.5 115.5t96.5 77.5q47 19 98 19q27 0 57 -4.5t46 -9.5z" />
    <glyph glyph-name="uni0678.fina" unicode="&#x678;" horiz-adv-x="1761" 
d="M871 -652h-50q-153 0 -254 25q-224 56 -331 217q-108 158 -96 410q14 275 170 652l183 -74q-257 -633 -94 -879q23 -33 55 -58.5t61.5 -41.5t73 -27t70.5 -16t73 -8t62 -3h56h21q72 0 174 19.5t187 56.5q38 13 79 35t80 59.5t39 74.5q0 28 -51 67.5t-155 78.5
q-105 37 -230 63l-22 4l15 194l767 -1q41 0 70 -28.5t29 -69.5t-29 -69.5t-70 -28.5h-236q109 -90 109 -210q0 -43 -13.5 -85t-46.5 -90t-100 -94.5t-162 -83.5q-104 -44 -225.5 -66.5t-208.5 -22.5zM868 924l-28 -92q-41 13 -92 13q-34 0 -62 -12v2q-32 -13 -51.5 -42
t-19.5 -62q0 -17 8 -36l-1 1q15 -35 50.5 -58.5t77.5 -23.5q26 0 42 7q31 10 66 29t54 32l19 14l59 -78q-51 -37 -242 -142l-227 -126l-48 87l179 100q-40 17 -72 49t-49 71q-14 34 -14 74q0 62 36.5 115.5t96.5 77.5q47 19 98 19q27 0 57 -4.5t47 -9.5z" />
    <glyph glyph-name="uni0679" unicode="&#x679;" horiz-adv-x="2008" arabic-form="isolated" 
d="M1002 0q-359 3 -575 83q-206 80 -280 229q-83 162 -3 374q13 33 29 66t27.5 52t21.5 36l11 16l159 -118q-14 -19 -23 -36q-27 -49 -42 -90q-46 -127 -4 -210q49 -98 224 -150.5t455 -53.5q195 0 394 34.5t352 118.5q-5 59 -31 132.5t-63 141.5t-56.5 100.5t-36.5 58.5
l-2 3l166 108q19 -28 44.5 -70.5t76 -152t71.5 -201.5q16 -67 16.5 -117t-26 -90.5t-88.5 -79.5q-132 -81 -373.5 -133.5t-443.5 -50.5zM982 775q-22 0 -54 2h-3q-133 6 -272 60l32 79q52 -20 110 -35q7 10 26.5 36t26.5 36l3 4q11 71 11.5 123.5t-6.5 135.5q-4 55 -9.5 109
t-9.5 81l-4 26l84 16l2 -16q2 -15 5 -40t6 -53t6 -58t4 -50q7 -89 8 -170q103 97 197 112q69 11 133 -27t67 -108q4 -43 -15 -85t-46 -70l-1 -2q-118 -106 -301 -106zM916 901l-27 -36q21 -3 40 -3h2h91.5t101 19.5t100.5 60.5q34 31 36.5 69.5t-26.5 61.5t-75 16
q-90 -14 -205 -143q-23 -27 -38 -45z" />
    <glyph glyph-name="uni067A.init" unicode="&#x67a;" horiz-adv-x="832" arabic-form="initial" 
d="M-98 98q0 41 28.5 69.5t69.5 28.5h235q61 -2 103.5 1t87 14t75.5 37t50 66q40 84 -29 308q-12 38 -34 91.5t-38 88.5l-15 34l178 88l15 -32q15 -33 39 -93t42 -117q93 -287 23 -448q-71 -161 -252 -212q-75 -22 -202 -22h-269h-9q-41 0 -69.5 28.5t-28.5 69.5zM329 1741
l164 -164l-163 -163l-164 164zM328 1352l164 -164l-163 -163l-164 164z" />
    <glyph glyph-name="uni067A.medi" unicode="&#x67a;" horiz-adv-x="918" arabic-form="medial" 
d="M-115 98q0 41 28.5 70t69.5 29h79q186 0 272.5 59.5t86.5 180.5q0 134 -46 297l187 53q55 -192 55 -350v-6q0 -111 81.5 -172.5t215.5 -61.5q41 0 70.5 -29t29.5 -70t-29 -69.5t-69 -28.5q-156 0 -247.5 30t-141.5 106q-65 -64 -184.5 -100t-280.5 -36h-79
q-41 0 -69.5 28.5t-28.5 69.5zM323 1685l164 -164l-163 -163l-164 164zM322 1296l164 -164l-163 -163l-164 164z" />
    <glyph glyph-name="uni067A.fina" unicode="&#x67a;" horiz-adv-x="2241" arabic-form="final" 
d="M1844 164q-39 46 -62 109q-264 -276 -833 -276q-309 2 -507 73.5t-286 221.5q-105 177 -48 401q33 134 77 213l173 -95l-6 -15q-7 -14 -16.5 -38t-19.5 -55.5t-15.5 -69.5t-6.5 -76t8.5 -79t30.5 -76q121 -204 616 -206q437 0 634 161q83 65 127.5 151.5t77.5 201.5
l190 -52q-13 -49 -23 -98q-12 -59 -11 -100q6 -116 55 -174q71 -89 238 -89q41 0 70 -29t29 -70t-29 -69.5t-70 -28.5h-8q-260 3 -385 164zM1010 1355l164 -164l-163 -163l-164 164zM1009 966l164 -164l-163 -163l-164 164z" />
    <glyph glyph-name="uni067B.init" unicode="&#x67b;" horiz-adv-x="816" arabic-form="initial" 
d="M-98 98q0 41 28.5 69.5t69.5 28.5h183q61 -2 103.5 1t87 14t75.5 37t50 66q40 84 -29 308q-12 38 -34 91.5t-38 88.5l-15 34l178 88l15 -32q15 -33 39 -93t42 -117q93 -287 23 -448q-71 -161 -252 -212q-75 -22 -202 -22h-217h-9q-41 0 -69.5 28.5t-28.5 69.5zM307 -153
l164 -164l-163 -163l-164 164zM316 -552l164 -164l-163 -163l-164 164z" />
    <glyph glyph-name="uni067B.medi" unicode="&#x67b;" horiz-adv-x="800" arabic-form="medial" 
d="M-94 98q0 41 28.5 69.5t69.5 28.5h101q166 0 243 59.5t77 180.5q0 135 -46 297l188 53q54 -187 54 -350v-5q0 -41 7.5 -78.5t24.5 -75t51.5 -59.5t83.5 -22q41 0 70 -29t29 -69q0 -41 -29 -69.5t-69 -28.5q-179 0 -274 124q-127 -124 -410 -124h-101q-41 0 -69.5 28.5
t-28.5 69.5zM428 -161l164 -164l-163 -163l-164 164zM437 -560l164 -164l-163 -163l-164 164z" />
    <glyph glyph-name="uni067B.fina" unicode="&#x67b;" horiz-adv-x="2231" arabic-form="final" 
d="M1844 164q-39 46 -62 109q-264 -276 -833 -276q-309 2 -507 73.5t-286 221.5q-105 177 -48 401q33 134 77 213l173 -95l-6 -15q-7 -14 -16.5 -38t-19.5 -55.5t-15.5 -69.5t-6.5 -76t8.5 -79t30.5 -76q121 -204 616 -206q437 0 634 161q83 65 127.5 151.5t77.5 201.5
l190 -52q-13 -49 -23 -98q-12 -59 -11 -100q6 -116 55 -174q71 -89 238 -89q41 0 70 -29t29 -70t-29 -69.5t-70 -28.5h-8q-260 3 -385 164zM1020 -174l164 -164l-163 -163l-164 164zM1029 -573l164 -164l-163 -163l-164 164z" />
    <glyph glyph-name="uni067C.init" unicode="&#x67c;" horiz-adv-x="827" 
d="M-98 98q0 41 28.5 69.5t69.5 28.5h183q61 -2 103.5 1t87 14t75.5 37t50 66q40 84 -29 308q-12 38 -34 91.5t-38 88.5l-15 34l178 88l15 -32q15 -33 39 -93t42 -117q93 -287 23 -448q-71 -161 -252 -212q-75 -22 -202 -22h-217h-9q-41 0 -69.5 28.5t-28.5 69.5zM213 1503
q37 0 66 36.5t29 76.5q0 39 -29 75.5t-66 36.5q-38 0 -67 -36.5t-29 -75.5q0 -40 29 -76.5t67 -36.5zM213 1835q83 0 145 -72q56 -65 56 -147t-56 -147q-62 -73 -145 -73q-84 0 -146 73q-56 65 -56 147t56 147q62 72 146 72zM197 1362l164 -164l-162 -162l-164 163z
M613 1360l164 -163l-162 -163l-164 164z" />
    <glyph glyph-name="uni067C.medi" unicode="&#x67c;" horiz-adv-x="913" 
d="M-115 98q0 41 28.5 70t69.5 29h79q186 0 272.5 59.5t86.5 180.5q0 134 -46 297l187 53q55 -192 55 -350v-6q0 -111 81.5 -172.5t215.5 -61.5q41 0 70.5 -29t29.5 -70t-29 -69.5t-69 -28.5q-156 0 -247.5 30t-141.5 106q-65 -64 -184.5 -100t-280.5 -36h-79
q-41 0 -69.5 28.5t-28.5 69.5zM235 1284l164 -164l-162 -162l-164 163zM651 1282l164 -163l-162 -163l-164 164zM218 1441q37 0 66 36.5t29 76.5q0 39 -29 75.5t-66 36.5q-38 0 -67 -36.5t-29 -75.5q0 -40 29 -76.5t67 -36.5zM218 1773q83 0 145 -72q56 -65 56 -147
t-56 -147q-62 -73 -145 -73q-84 0 -146 73q-56 65 -56 147t56 147q62 72 146 72z" />
    <glyph glyph-name="uni067C.fina" unicode="&#x67c;" horiz-adv-x="2236" 
d="M1844 164q-39 46 -62 109q-264 -276 -833 -276q-309 2 -507 73.5t-286 221.5q-105 177 -48 401q33 134 77 213l173 -95l-6 -15q-7 -14 -16.5 -38t-19.5 -55.5t-15.5 -69.5t-6.5 -76t8.5 -79t30.5 -76q121 -204 616 -206q437 0 634 161q83 65 127.5 151.5t77.5 201.5
l190 -52q-13 -49 -23 -98q-12 -59 -11 -100q6 -116 55 -174q71 -89 238 -89q41 0 70 -29t29 -70t-29 -69.5t-70 -28.5h-8q-260 3 -385 164zM843 1128l164 -164l-162 -162l-164 163zM1259 1126l164 -163l-162 -163l-164 164zM935 1429q37 0 66 36.5t29 76.5q0 39 -29 75.5
t-66 36.5q-38 0 -67 -36.5t-29 -75.5q0 -40 29 -76.5t67 -36.5zM935 1761q83 0 145 -72q56 -65 56 -147t-56 -147q-62 -73 -145 -73q-84 0 -146 73q-56 65 -56 147t56 147q62 72 146 72z" />
    <glyph glyph-name="uni067D.init" unicode="&#x67d;" horiz-adv-x="827" 
d="M-98 98q0 41 28.5 69.5t69.5 28.5h235q61 -2 103.5 1t87 14t75.5 37t50 66q40 84 -29 308q-12 38 -34 91.5t-38 88.5l-15 34l178 88l15 -32q15 -33 39 -93t42 -117q93 -287 23 -448q-71 -161 -252 -212q-75 -22 -202 -22h-269h-9q-41 0 -69.5 28.5t-28.5 69.5zM167 1642
l164 -164l-162 -162l-164 164zM521 1641l164 -164l-162 -163l-164 164zM353 1366l164 -164l-162 -162l-164 164z" />
    <glyph glyph-name="uni067D.medi" unicode="&#x67d;" horiz-adv-x="913" 
d="M-115 98q0 41 28.5 70t69.5 29h79q186 0 272.5 59.5t86.5 180.5q0 134 -46 297l187 53q55 -192 55 -350v-6q0 -111 81.5 -172.5t215.5 -61.5q41 0 70.5 -29t29.5 -70t-29 -69.5t-69 -28.5q-156 0 -247.5 30t-141.5 106q-65 -64 -184.5 -100t-280.5 -36h-79
q-41 0 -69.5 28.5t-28.5 69.5zM259 1568l164 -164l-162 -162l-164 164zM613 1567l164 -164l-162 -163l-164 164zM445 1292l164 -164l-162 -162l-164 164z" />
    <glyph glyph-name="uni067D.fina" unicode="&#x67d;" horiz-adv-x="2239" 
d="M1844 164q-39 46 -62 109q-264 -276 -833 -276q-309 2 -507 73.5t-286 221.5q-105 177 -48 401q33 134 77 213l173 -95l-6 -15q-7 -14 -16.5 -38t-19.5 -55.5t-15.5 -69.5t-6.5 -76t8.5 -79t30.5 -76q121 -204 616 -206q437 0 634 161q83 65 127.5 151.5t77.5 201.5
l190 -52q-13 -49 -23 -98q-12 -59 -11 -100q6 -116 55 -174q71 -89 238 -89q41 0 70 -29t29 -70t-29 -69.5t-70 -28.5h-8q-260 3 -385 164zM831 1247l164 -164l-162 -162l-164 164zM1185 1246l164 -164l-162 -163l-164 164zM1017 971l164 -164l-162 -162l-164 164z" />
    <glyph glyph-name="uni067E" unicode="&#x67e;" horiz-adv-x="2024" arabic-form="isolated" 
d="M1001 0q-359 3 -575 83q-206 80 -280 229q-83 162 -3 374q13 33 29 66t27.5 52t22.5 36l10 16l159 -118q-14 -19 -23 -36q-27 -49 -42 -90q-46 -127 -4 -210q49 -98 224 -150.5t455 -53.5q195 0 394 34.5t352 118.5q-5 59 -31 132.5t-63 141.5t-56.5 100.5t-36.5 58.5
l-2 3l166 108q19 -28 44.5 -70.5t76 -152t71.5 -201.5q16 -67 16.5 -117t-26 -90.5t-88.5 -79.5q-132 -81 -373.5 -133.5t-443.5 -50.5zM780 -205l164 -164l-162 -162l-164 164zM1211 -206l164 -164l-162 -163l-164 164zM993 -840l-149 149l148 148l149 -149z" />
    <glyph glyph-name="uni067F.init" unicode="&#x67f;" horiz-adv-x="827" arabic-form="initial" 
d="M-98 98q0 41 28.5 69.5t69.5 28.5h235q61 -2 103.5 1t87 14t75.5 37t50 66q40 84 -29 308q-12 38 -34 91.5t-38 88.5l-15 34l178 88l15 -32q15 -33 39 -93t42 -117q93 -287 23 -448q-71 -161 -252 -212q-75 -22 -202 -22h-269h-9q-41 0 -69.5 28.5t-28.5 69.5zM571 1373
l164 -163l-162 -163l-164 164zM211 1368l164 -164l-162 -162l-164 163zM568 1774l164 -163l-162 -163l-164 164zM208 1769l164 -164l-162 -162l-164 163z" />
    <glyph glyph-name="uni067F.medi" unicode="&#x67f;" horiz-adv-x="918" arabic-form="medial" 
d="M-115 98q0 41 28.5 70t69.5 29h79q186 0 272.5 59.5t86.5 180.5q0 134 -46 297l187 53q55 -192 55 -350v-6q0 -111 81.5 -172.5t215.5 -61.5q41 0 70.5 -29t29.5 -70t-29 -69.5t-69 -28.5q-156 0 -247.5 30t-141.5 106q-65 -64 -184.5 -100t-280.5 -36h-79
q-41 0 -69.5 28.5t-28.5 69.5zM643 1225l164 -163l-162 -163l-164 164zM283 1220l164 -164l-162 -162l-164 163zM640 1626l164 -163l-162 -163l-164 164zM280 1621l164 -164l-162 -162l-164 163z" />
    <glyph glyph-name="uni067F.fina" unicode="&#x67f;" horiz-adv-x="2248" arabic-form="final" 
d="M1844 164q-39 46 -62 109q-264 -276 -833 -276q-309 2 -507 73.5t-286 221.5q-105 177 -48 401q33 134 77 213l173 -95l-6 -15q-7 -14 -16.5 -38t-19.5 -55.5t-15.5 -69.5t-6.5 -76t8.5 -79t30.5 -76q121 -204 616 -206q437 0 634 161q83 65 127.5 151.5t77.5 201.5
l190 -52q-13 -49 -23 -98q-12 -59 -11 -100q6 -116 55 -174q71 -89 238 -89q41 0 70 -29t29 -70t-29 -69.5t-70 -28.5h-8q-260 3 -385 164zM1212 1036l164 -163l-162 -163l-164 164zM852 1031l164 -164l-162 -162l-164 163zM1209 1437l164 -163l-162 -163l-164 164z
M849 1432l164 -164l-162 -162l-164 163z" />
    <glyph glyph-name="uni0680.init" unicode="&#x680;" horiz-adv-x="827" arabic-form="initial" 
d="M-96 98q0 41 28.5 69.5t69.5 28.5h235q61 -2 103.5 1t87 14t75.5 37t50 66q40 84 -29 308q-12 38 -34 91.5t-38 88.5l-15 34l178 88l15 -32q15 -33 39 -93t42 -117q93 -287 23 -448q-71 -161 -252 -212q-75 -22 -202 -22h-269h-9q-41 0 -69.5 28.5t-28.5 69.5zM527 -523
l164 -163l-162 -163l-164 164zM167 -528l164 -164l-162 -162l-164 163zM524 -122l164 -163l-162 -163l-164 164zM164 -127l164 -164l-162 -162l-164 163z" />
    <glyph glyph-name="uni0680.medi" unicode="&#x680;" horiz-adv-x="902" arabic-form="medial" 
d="M-115 98q0 41 28.5 70t69.5 29h79q186 0 272.5 59.5t86.5 180.5q0 134 -46 297l187 53q55 -192 55 -350v-6q0 -111 81.5 -172.5t215.5 -61.5q41 0 70.5 -29t29.5 -70t-29 -69.5t-69 -28.5q-156 0 -247.5 30t-141.5 106q-65 -64 -184.5 -100t-280.5 -36h-79
q-41 0 -69.5 28.5t-28.5 69.5zM658 -579l164 -163l-162 -163l-164 164zM298 -584l164 -164l-162 -162l-164 163zM655 -178l164 -163l-162 -163l-164 164zM295 -183l164 -164l-162 -162l-164 163z" />
    <glyph glyph-name="uni0680.fina" unicode="&#x680;" horiz-adv-x="2238" arabic-form="final" 
d="M1844 164q-39 46 -62 109q-264 -276 -833 -276q-309 2 -507 73.5t-286 221.5q-105 177 -48 401q33 134 77 213l173 -95l-6 -15q-7 -14 -16.5 -38t-19.5 -55.5t-15.5 -69.5t-6.5 -76t8.5 -79t30.5 -76q121 -204 616 -206q437 0 634 161q83 65 127.5 151.5t77.5 201.5
l190 -52q-13 -49 -23 -98q-12 -59 -11 -100q6 -116 55 -174q71 -89 238 -89q41 0 70 -29t29 -70t-29 -69.5t-70 -28.5h-8q-260 3 -385 164zM1194 -534l164 -163l-162 -163l-164 164zM834 -539l164 -164l-162 -162l-164 163zM1191 -133l164 -163l-162 -163l-164 164z
M831 -138l164 -164l-162 -162l-164 163z" />
    <glyph glyph-name="uni0681.init" unicode="&#x681;" horiz-adv-x="1532" 
d="M-101 98q0 41 29.5 69.5t70.5 28.5h175q127 0 250 22.5t253.5 72t212.5 87t225 108.5l18 10q-98 35 -256 109q-81 39 -124.5 58t-102 37.5t-97.5 18.5q-44 0 -88.5 -24t-74.5 -54t-59.5 -71t-40 -60t-19.5 -36l-1 -2l-180 81q0 1 3 7t8 15t12 22t16 28.5t20 31.5t25 35
t29 36q155 188 350 188q60 0 136 -21.5t127 -43.5t146 -67q106 -50 165 -75t152 -50.5t169 -25.5l38 -190q-93 -38 -283 -133q-117 -58 -184 -90t-185.5 -80.5t-210 -74t-212.5 -45.5t-237 -20h-167h-8q-41 0 -70.5 29t-29.5 69zM685 1548l-28 -92q-41 13 -92 13
q-34 0 -62 -12v2q-32 -13 -51.5 -42t-19.5 -62q0 -17 8 -36l-1 1q15 -35 50.5 -58.5t77.5 -23.5q26 0 42 7q31 10 66 29t54 32l19 14l59 -78q-51 -37 -242 -142l-227 -126l-48 87l179 100q-40 17 -72 49t-49 71q-14 34 -14 74q0 62 36.5 115.5t96.5 77.5q47 19 98 19
q27 0 57 -4.5t46 -9.5z" />
    <glyph glyph-name="uni0681.medi" unicode="&#x681;" horiz-adv-x="1707" 
d="M-99 97q0 41 29 70t70 29h189q103 0 211 18.5t188 41t193 69.5t171.5 75t177.5 87l18 9q-69 24 -256 110q-78 37 -123.5 56.5t-103.5 37.5t-98 18q-47 0 -94 -27t-76 -56.5t-60 -76t-36.5 -57.5t-14.5 -28l-181 82q50 100 112 175q161 187 350 187q60 0 136.5 -21.5
t126 -43t146.5 -66.5q102 -49 164.5 -76t154 -52t167.5 -25l39 -189q-43 -18 -182 -84q13 -43 50.5 -75t81 -48.5t97 -26t87.5 -12t64 -2.5h6h8q41 0 70 -29t29 -70t-29 -69t-70 -28h-14q-201 0 -355.5 73.5t-203.5 198.5q-121 -60 -216 -101.5t-219.5 -84.5t-254 -65
t-261.5 -22l-189 1q-41 0 -70 28t-29 69zM652 1550l-28 -92q-41 13 -92 13q-34 0 -62 -12v2q-32 -13 -51.5 -42t-19.5 -62q0 -17 8 -36l-1 1q15 -35 50.5 -58.5t77.5 -23.5q26 0 42 7q31 10 66 29t54 32l19 14l59 -78q-51 -37 -242 -142l-227 -126l-48 87l179 100
q-40 17 -72 49t-49 71q-14 34 -14 74q0 62 36.5 115.5t96.5 77.5q47 19 98 19q27 0 57 -4.5t47 -9.5z" />
    <glyph glyph-name="uni0681.fina" unicode="&#x681;" horiz-adv-x="1702" 
d="M956 -779q-203 0 -322 41q-224 73 -350 217q-154 178 -130 435q17 202 152 364q120 140 300 224q220 101 511 136l-108 52q-247 125 -337 138q-139 19 -251 -99q-51 -55 -83 -120l-5 -12l-184 76q58 116 128 190q177 193 421 161q53 -7 121.5 -31.5t122.5 -49.5t154 -75
q304 -151 500 -216l-38 -192h-6q-7 1 -17.5 1t-25 0.5t-33.5 0t-40.5 -0.5t-48 -1t-53.5 -3q-6 -34 1 -81.5t38 -86.5q43 -51 140.5 -72t195.5 -21q41 0 70 -29.5t29 -70.5q0 -40 -29 -68t-70 -28q-186 0 -305.5 41.5t-187.5 127.5q-75 100 -81 232q-3 21 0 38
q-270 -35 -447 -116q-36 -18 -70 -38t-83 -59.5t-85 -83.5t-65 -109t-35 -136q-30 -324 345 -448q43 -16 142 -25t213 -1q300 25 449 162l130 -150q-130 -115 -309 -164.5t-364 -49.5zM728 1657l-28 -92q-41 13 -92 13q-34 0 -62 -12v2q-32 -13 -51.5 -42t-19.5 -62
q0 -17 8 -36l-1 1q15 -35 50.5 -58.5t77.5 -23.5q26 0 42 7q31 10 66 29t54 33l19 13l59 -78q-51 -37 -242 -142l-227 -126l-48 87l179 100q-40 17 -72 49t-49 71q-14 34 -14 74q0 62 36.5 115.5t96.5 77.5q47 19 98 19q27 0 57 -5t47 -9z" />
    <glyph glyph-name="uni0682.init" unicode="&#x682;" horiz-adv-x="1595" 
d="M-101 98q0 41 29.5 69.5t70.5 28.5h175q127 0 250 22.5t253.5 72t212.5 87t225 108.5l18 10q-98 35 -256 109q-81 39 -124.5 58t-102 37.5t-97.5 18.5q-44 0 -88.5 -24t-74.5 -54t-59.5 -71t-40 -60t-19.5 -36l-1 -2l-180 81q0 1 3 7t8 15t12 22t16 28.5t20 31.5t25 35
t29 36q155 188 350 188q60 0 136 -21.5t127 -43.5t146 -67q106 -50 165 -75t152 -50.5t169 -25.5l38 -190q-93 -38 -283 -133q-117 -58 -184 -90t-185.5 -80.5t-210 -74t-212.5 -45.5t-237 -20h-167h-8q-41 0 -70.5 29t-29.5 69zM527 1756l164 -164l-163 -163l-164 164z
M526 1367l164 -164l-163 -163l-164 164z" />
    <glyph glyph-name="uni0682.medi" unicode="&#x682;" horiz-adv-x="1702" 
d="M-99 97q0 41 29 70t70 29h189q103 0 211 18.5t188 41t193 69.5t171.5 75t177.5 87l18 9q-69 24 -256 110q-78 37 -123.5 56.5t-103.5 37.5t-98 18q-47 0 -94 -27t-76 -56.5t-60 -76t-36.5 -57.5t-14.5 -28l-181 82q50 100 112 175q161 187 350 187q60 0 136.5 -21.5
t126 -43t146.5 -66.5q102 -49 164.5 -76t154 -52t167.5 -25l39 -189q-43 -18 -182 -84q13 -43 50.5 -75t81 -48.5t97 -26t87.5 -12t64 -2.5h6h8q41 0 70 -29t29 -70t-29 -69t-70 -28h-14q-201 0 -355.5 73.5t-203.5 198.5q-121 -60 -216 -101.5t-219.5 -84.5t-254 -65
t-261.5 -22l-189 1q-41 0 -70 28t-29 69zM474 1759l164 -164l-163 -163l-164 164zM473 1370l164 -164l-163 -163l-164 164z" />
    <glyph glyph-name="uni0682.fina" unicode="&#x682;" horiz-adv-x="1697" 
d="M956 -779q-203 0 -322 41q-224 73 -350 217q-154 178 -130 435q17 202 152 364q120 140 300 224q220 101 511 136l-108 52q-247 125 -337 138q-139 19 -251 -99q-51 -55 -83 -120l-5 -12l-184 76q58 116 128 190q177 193 421 161q53 -7 121.5 -31.5t122.5 -49.5t154 -75
q304 -151 500 -216l-38 -192h-6q-7 1 -17.5 1t-25 0.5t-33.5 0t-40.5 -0.5t-48 -1t-53.5 -3q-6 -34 1 -81.5t38 -86.5q43 -51 140.5 -72t195.5 -21q41 0 70 -29.5t29 -70.5q0 -40 -29 -68t-70 -28q-186 0 -305.5 41.5t-187.5 127.5q-75 100 -81 232q-3 21 0 38
q-270 -35 -447 -116q-36 -18 -70 -38t-83 -59.5t-85 -83.5t-65 -109t-35 -136q-30 -324 345 -448q43 -16 142 -25t213 -1q300 25 449 162l130 -150q-130 -115 -309 -164.5t-364 -49.5zM595 1917l164 -164l-163 -163l-164 164zM594 1528l164 -164l-163 -163l-164 164z" />
    <glyph glyph-name="uni0683.init" unicode="&#x683;" horiz-adv-x="1532" arabic-form="initial" 
d="M-101 98q0 41 29.5 69.5t70.5 28.5h175q127 0 250 22.5t253.5 72t212.5 87t225 108.5l18 10q-98 35 -256 109q-81 39 -124.5 58t-102 37.5t-97.5 18.5q-44 0 -88.5 -24t-74.5 -54t-59.5 -71t-40 -60t-19.5 -36l-1 -2l-180 81q0 1 3 7t8 15t12 22t16 28.5t20 31.5t25 35
t29 36q155 188 350 188q60 0 136 -21.5t127 -43.5t146 -67q106 -50 165 -75t152 -50.5t169 -25.5l38 -190q-93 -38 -283 -133q-117 -58 -184 -90t-185.5 -80.5t-210 -74t-212.5 -45.5t-237 -20h-167h-8q-41 0 -70.5 29t-29.5 69zM473 -206l164 -164l-162 -162l-164 163z
M844 -208l164 -163l-162 -163l-164 164z" />
    <glyph glyph-name="uni0683.medi" unicode="&#x683;" horiz-adv-x="1697" arabic-form="medial" 
d="M-99 97q0 41 29 70t70 29h189q103 0 211 18.5t188 41t193 69.5t171.5 75t177.5 87l18 9q-69 24 -256 110q-78 37 -123.5 56.5t-103.5 37.5t-98 18q-47 0 -94 -27t-76 -56.5t-60 -76t-36.5 -57.5t-14.5 -28l-181 82q50 100 112 175q161 187 350 187q60 0 136.5 -21.5
t126 -43t146.5 -66.5q102 -49 164.5 -76t154 -52t167.5 -25l39 -189q-43 -18 -182 -84q13 -43 50.5 -75t81 -48.5t97 -26t87.5 -12t64 -2.5h6h8q41 0 70 -29t29 -70t-29 -69t-70 -28h-14q-201 0 -355.5 73.5t-203.5 198.5q-121 -60 -216 -101.5t-219.5 -84.5t-254 -65
t-261.5 -22l-189 1q-41 0 -70 28t-29 69zM585 -189l164 -164l-162 -162l-164 163zM956 -191l164 -163l-162 -163l-164 164z" />
    <glyph glyph-name="uni0683.fina" unicode="&#x683;" horiz-adv-x="1663" arabic-form="final" 
d="M956 -779q-203 0 -322 41q-224 73 -350 217q-154 178 -130 435q17 202 152 364q120 140 300 224q220 101 511 136l-108 52q-247 125 -337 138q-139 19 -251 -99q-51 -55 -83 -120l-5 -12l-184 76q58 116 128 190q177 193 421 161q53 -7 121.5 -31.5t122.5 -49.5t154 -75
q304 -151 500 -216l-38 -192h-6q-7 1 -17.5 1t-25 0.5t-33.5 0t-40.5 -0.5t-48 -1t-53.5 -3q-6 -34 1 -81.5t38 -86.5q43 -51 140.5 -72t195.5 -21q41 0 70 -29.5t29 -70.5q0 -40 -29 -68t-70 -28q-186 0 -305.5 41.5t-187.5 127.5q-75 100 -81 232q-3 21 0 38
q-270 -35 -447 -116q-36 -18 -70 -38t-83 -59.5t-85 -83.5t-65 -109t-35 -136q-30 -324 345 -448q43 -16 142 -25t213 -1q300 25 449 162l130 -150q-130 -115 -309 -164.5t-364 -49.5zM715 59l164 -164l-162 -162l-164 163zM1086 57l164 -163l-162 -163l-164 164z" />
    <glyph glyph-name="uni0684.init" unicode="&#x684;" horiz-adv-x="1532" arabic-form="initial" 
d="M-101 98q0 41 29.5 69.5t70.5 28.5h175q127 0 250 22.5t253.5 72t212.5 87t225 108.5l18 10q-98 35 -256 109q-81 39 -124.5 58t-102 37.5t-97.5 18.5q-44 0 -88.5 -24t-74.5 -54t-59.5 -71t-40 -60t-19.5 -36l-1 -2l-180 81q0 1 3 7t8 15t12 22t16 28.5t20 31.5t25 35
t29 36q155 188 350 188q60 0 136 -21.5t127 -43.5t146 -67q106 -50 165 -75t152 -50.5t169 -25.5l38 -190q-93 -38 -283 -133q-117 -58 -184 -90t-185.5 -80.5t-210 -74t-212.5 -45.5t-237 -20h-167h-8q-41 0 -70.5 29t-29.5 69zM637 -132l164 -164l-163 -163l-164 164z
M646 -531l164 -164l-163 -163l-164 164z" />
    <glyph glyph-name="uni0684.medi" unicode="&#x684;" horiz-adv-x="1691" arabic-form="medial" 
d="M-99 97q0 41 29 70t70 29h189q103 0 211 18.5t188 41t193 69.5t171.5 75t177.5 87l18 9q-69 24 -256 110q-78 37 -123.5 56.5t-103.5 37.5t-98 18q-47 0 -94 -27t-76 -56.5t-60 -76t-36.5 -57.5t-14.5 -28l-181 82q50 100 112 175q161 187 350 187q60 0 136.5 -21.5
t126 -43t146.5 -66.5q102 -49 164.5 -76t154 -52t167.5 -25l39 -189q-43 -18 -182 -84q13 -43 50.5 -75t81 -48.5t97 -26t87.5 -12t64 -2.5h6h8q41 0 70 -29t29 -70t-29 -69t-70 -28h-14q-201 0 -355.5 73.5t-203.5 198.5q-121 -60 -216 -101.5t-219.5 -84.5t-254 -65
t-261.5 -22l-189 1q-41 0 -70 28t-29 69zM707 -132l164 -164l-163 -163l-164 164zM716 -531l164 -164l-163 -163l-164 164z" />
    <glyph glyph-name="uni0684.fina" unicode="&#x684;" horiz-adv-x="1738" arabic-form="final" 
d="M1020 -777q-203 0 -322 41q-224 73 -350 217q-154 178 -130 435q17 202 152 364q120 140 300 224q220 101 511 136l-108 52q-247 125 -337 138q-139 19 -251 -99q-51 -55 -83 -120l-5 -12l-184 76q58 116 128 190q177 193 421 161q53 -7 121.5 -31.5t122.5 -49.5t154 -75
q304 -151 500 -216l-38 -192h-6q-7 1 -17.5 1t-25 0.5t-33.5 0t-40.5 -0.5t-48 -1t-53.5 -3q-6 -34 1 -81.5t38 -86.5q42 -51 122.5 -73t167.5 -22q41 0 70 -28.5t29 -69.5q0 -40 -29 -69t-70 -29q-312 0 -447 171q-75 100 -81 232q-3 21 0 38q-270 -35 -447 -116
q-36 -18 -70 -38t-83 -59.5t-85 -83.5t-65 -109t-35 -136q-30 -324 345 -448q43 -16 142 -25t213 -1q300 25 449 162l130 -150q-130 -115 -309 -164.5t-364 -49.5zM950 245l164 -164l-163 -163l-164 164zM959 -154l164 -164l-163 -163l-164 164z" />
    <glyph glyph-name="uni0685.init" unicode="&#x685;" horiz-adv-x="1589" 
d="M-101 98q0 41 29.5 69.5t70.5 28.5h175q127 0 250 22.5t253.5 72t212.5 87t225 108.5l18 10q-98 35 -256 109q-81 39 -124.5 58t-102 37.5t-97.5 18.5q-44 0 -88.5 -24t-74.5 -54t-59.5 -71t-40 -60t-19.5 -36l-1 -2l-180 81q0 1 3 7t8 15t12 22t16 28.5t20 31.5t25 35
t29 36q155 188 350 188q60 0 136 -21.5t127 -43.5t146 -67q106 -50 165 -75t152 -50.5t169 -25.5l38 -190q-93 -38 -283 -133q-117 -58 -184 -90t-185.5 -80.5t-210 -74t-212.5 -45.5t-237 -20h-167h-8q-41 0 -70.5 29t-29.5 69zM761 1088l-164 164l162 162l164 -164z
M331 1089l-164 164l162 163l164 -164zM552 1434l-149 149l148 148l149 -149z" />
    <glyph glyph-name="uni0685.medi" unicode="&#x685;" horiz-adv-x="1707" 
d="M-99 97q0 41 29 70t70 29h189q103 0 211 18.5t188 41t193 69.5t171.5 75t177.5 87l18 9q-69 24 -256 110q-78 37 -123.5 56.5t-103.5 37.5t-98 18q-47 0 -94 -27t-76 -56.5t-60 -76t-36.5 -57.5t-14.5 -28l-181 82q50 100 112 175q161 187 350 187q60 0 136.5 -21.5
t126 -43t146.5 -66.5q102 -49 164.5 -76t154 -52t167.5 -25l39 -189q-43 -18 -182 -84q13 -43 50.5 -75t81 -48.5t97 -26t87.5 -12t64 -2.5h6h8q41 0 70 -29t29 -70t-29 -69t-70 -28h-14q-201 0 -355.5 73.5t-203.5 198.5q-121 -60 -216 -101.5t-219.5 -84.5t-254 -65
t-261.5 -22l-189 1q-41 0 -70 28t-29 69zM760 1096l-164 164l162 162l164 -164zM330 1097l-164 164l162 163l164 -164zM551 1442l-149 149l148 148l149 -149z" />
    <glyph glyph-name="uni0685.fina" unicode="&#x685;" horiz-adv-x="1707" 
d="M956 -779q-203 0 -322 41q-224 73 -350 217q-154 178 -130 435q17 202 152 364q120 140 300 224q220 101 511 136l-108 52q-247 125 -337 138q-139 19 -251 -99q-51 -55 -83 -120l-5 -12l-184 76q58 116 128 190q177 193 421 161q53 -7 121.5 -31.5t122.5 -49.5t154 -75
q304 -151 500 -216l-38 -192h-6q-7 1 -17.5 1t-25 0.5t-33.5 0t-40.5 -0.5t-48 -1t-53.5 -3q-6 -34 1 -81.5t38 -86.5q43 -51 140.5 -72t195.5 -21q41 0 70 -29.5t29 -70.5q0 -40 -29 -68t-70 -28q-186 0 -305.5 41.5t-187.5 127.5q-75 100 -81 232q-3 21 0 38
q-270 -35 -447 -116q-36 -18 -70 -38t-83 -59.5t-85 -83.5t-65 -109t-35 -136q-30 -324 345 -448q43 -16 142 -25t213 -1q300 25 449 162l130 -150q-130 -115 -309 -164.5t-364 -49.5zM820 1188l-164 164l162 162l164 -164zM390 1189l-164 164l162 163l164 -164zM611 1534
l-149 149l148 148l149 -149z" />
    <glyph glyph-name="uni0686" unicode="&#x686;" horiz-adv-x="1691" arabic-form="isolated" 
d="M1009 -775q-205 0 -324 41q-227 73 -348 217q-158 182 -134 435q20 205 155 364q124 143 298 223q217 101 511 137q-19 10 -54.5 27t-54.5 26q-88 43 -135.5 65.5t-105.5 44.5t-95 27q-139 19 -250 -99q-34 -37 -66 -90q-16 -26 -23 -42l-182 76q1 1 7.5 15t16 32
t23.5 40.5t35 50t45 52.5q177 193 421 161q53 -7 123.5 -32.5t117.5 -47.5t157 -75q298 -150 499 -217l-36 -192h-3q-36 1 -77 1.5t-149 -4.5t-205 -17.5t-219 -42.5t-217 -74q-35 -16 -70 -37t-83.5 -60t-85 -83.5t-66 -109.5t-35.5 -136q-28 -323 346 -448
q41 -16 142.5 -25t211.5 -1q288 24 449 162l131 -150q-132 -115 -310 -164.5t-361 -49.5zM807 157l164 -164l-162 -162l-164 164zM1238 156l164 -164l-162 -163l-164 164zM1020 -478l-149 149l148 148l149 -149z" />
    <glyph glyph-name="uni0687.init" unicode="&#x687;" horiz-adv-x="1584" arabic-form="initial" 
d="M-101 98q0 41 29.5 69.5t70.5 28.5h175q127 0 250 22.5t253.5 72t212.5 87t225 108.5l18 10q-98 35 -256 109q-81 39 -124.5 58t-102 37.5t-97.5 18.5q-44 0 -88.5 -24t-74.5 -54t-59.5 -71t-40 -60t-19.5 -36l-1 -2l-180 81q0 1 3 7t8 15t12 22t16 28.5t20 31.5t25 35
t29 36q155 188 350 188q60 0 136 -21.5t127 -43.5t146 -67q106 -50 165 -75t152 -50.5t169 -25.5l38 -190q-93 -38 -283 -133q-117 -58 -184 -90t-185.5 -80.5t-210 -74t-212.5 -45.5t-237 -20h-167h-8q-41 0 -70.5 29t-29.5 69zM807 -511l164 -163l-162 -163l-164 164z
M447 -516l164 -164l-162 -162l-164 163zM804 -110l164 -163l-162 -163l-164 164zM444 -115l164 -164l-162 -162l-164 163z" />
    <glyph glyph-name="uni0687.medi" unicode="&#x687;" horiz-adv-x="1702" arabic-form="medial" 
d="M-99 97q0 41 29 70t70 29h189q103 0 211 18.5t188 41t193 69.5t171.5 75t177.5 87l18 9q-69 24 -256 110q-78 37 -123.5 56.5t-103.5 37.5t-98 18q-47 0 -94 -27t-76 -56.5t-60 -76t-36.5 -57.5t-14.5 -28l-181 82q50 100 112 175q161 187 350 187q60 0 136.5 -21.5
t126 -43t146.5 -66.5q102 -49 164.5 -76t154 -52t167.5 -25l39 -189q-43 -18 -182 -84q13 -43 50.5 -75t81 -48.5t97 -26t87.5 -12t64 -2.5h6h8q41 0 70 -29t29 -70t-29 -69t-70 -28h-14q-201 0 -355.5 73.5t-203.5 198.5q-121 -60 -216 -101.5t-219.5 -84.5t-254 -65
t-261.5 -22l-189 1q-41 0 -70 28t-29 69zM792 -486l164 -163l-162 -163l-164 164zM432 -491l164 -164l-162 -162l-164 163zM789 -85l164 -163l-162 -163l-164 164zM429 -90l164 -164l-162 -162l-164 163z" />
    <glyph glyph-name="uni0687.fina" unicode="&#x687;" horiz-adv-x="1722" arabic-form="final" 
d="M1020 -777q-203 0 -322 41q-224 73 -350 217q-154 178 -130 435q17 202 152 364q120 140 300 224q220 101 511 136l-108 52q-247 125 -337 138q-139 19 -251 -99q-51 -55 -83 -120l-5 -12l-184 76q58 116 128 190q177 193 421 161q53 -7 121.5 -31.5t122.5 -49.5t154 -75
q304 -151 500 -216l-38 -192h-6q-7 1 -17.5 1t-25 0.5t-33.5 0t-40.5 -0.5t-48 -1t-53.5 -3q-6 -34 1 -81.5t38 -86.5q42 -51 122.5 -73t167.5 -22q41 0 70 -28.5t29 -69.5q0 -40 -29 -69t-70 -29q-312 0 -447 171q-75 100 -81 232q-3 21 0 38q-270 -35 -447 -116
q-36 -18 -70 -38t-83 -59.5t-85 -83.5t-65 -109t-35 -136q-30 -324 345 -448q43 -16 142 -25t213 -1q300 25 449 162l130 -150q-130 -115 -309 -164.5t-364 -49.5zM1110 -149l164 -163l-162 -163l-164 164zM750 -154l164 -164l-162 -162l-164 163zM1107 252l164 -163
l-162 -163l-164 164zM747 247l164 -164l-162 -162l-164 163z" />
    <glyph glyph-name="uni0688" unicode="&#x688;" horiz-adv-x="1160" arabic-form="isolated" 
d="M564 1q-58 0 -105 5q-47 4 -96 12.5t-85.5 17.5t-66.5 17.5t-46.5 13.5t-17.5 5l66 188l7 -2q8 -3 22 -7t32.5 -9.5t42.5 -11t49.5 -11t56.5 -10t60 -7.5q259 -24 355 90q27 31 7 116q-33 146 -170.5 313.5t-272.5 226.5l81 182q116 -54 234 -165.5t205 -249t117 -262.5
q40 -181 -49 -287q-92 -111 -257 -147q-69 -18 -169 -18zM486 1217q-22 0 -54 2h-3q-133 6 -272 60l32 79q52 -20 110 -35q7 10 26.5 36t26.5 36l3 4q11 71 11.5 123.5t-6.5 135.5q-4 55 -10 109t-10 81l-3 26l84 16l2 -16q2 -15 5 -40t6 -53t6 -58t4 -50q7 -89 8 -170
q103 97 197 112q69 11 133 -27t67 -108q4 -43 -15 -85t-46 -70l-1 -2q-118 -106 -301 -106zM420 1343l-27 -36q21 -3 40 -3h2h91.5t101 19.5t100.5 60.5q34 31 36.5 69.5t-26.5 61.5t-75 16q-90 -14 -205 -143q-23 -27 -38 -45z" />
    <glyph glyph-name="uni0689.fina" unicode="&#x689;" horiz-adv-x="1208" 
d="M493 0q-208 0 -435 118l91 175q295 -151 511 -65q82 33 133 84l-316 760l182 76q103 -254 306 -739q6 -13 16.5 -40.5t15.5 -38.5t15 -32.5t18 -30.5t21.5 -23.5t28 -21t34 -14t44 -10t54.5 -2.5q41 0 70 -28.5t29 -69.5t-29 -69.5t-70 -28.5q-218 0 -322 133
q-82 -59 -157 -90q-110 -43 -240 -43zM395 1505q37 0 66 36.5t29 76.5q0 39 -29 75.5t-66 36.5q-38 0 -67 -36.5t-29 -75.5q0 -40 29 -76.5t67 -36.5zM395 1837q83 0 145 -72q56 -65 56 -147t-56 -147q-62 -73 -145 -73q-84 0 -146 73q-56 65 -56 147t56 147q62 72 146 72z
" />
    <glyph glyph-name="uni068A.fina" unicode="&#x68a;" horiz-adv-x="1213" 
d="M493 0q-208 0 -435 118l91 175q295 -151 511 -65q82 33 133 84l-316 760l182 76q103 -254 306 -739q6 -13 16.5 -40.5t15.5 -38.5t15 -32.5t18 -30.5t21.5 -23.5t28 -21t34 -14t44 -10t54.5 -2.5q41 0 70 -28.5t29 -69.5t-29 -69.5t-70 -28.5q-218 0 -322 133
q-82 -59 -157 -90q-110 -43 -240 -43zM543 -194l164 -164l-163 -163l-164 164z" />
    <glyph glyph-name="uni068B.fina" unicode="&#x68b;" horiz-adv-x="1224" 
d="M493 0q-208 0 -435 118l91 175q295 -151 511 -65q82 33 133 84l-316 760l182 76q103 -254 306 -739q6 -13 16.5 -40.5t15.5 -38.5t15 -32.5t18 -30.5t21.5 -23.5t28 -21t34 -14t44 -10t54.5 -2.5q41 0 70 -28.5t29 -69.5t-29 -69.5t-70 -28.5q-218 0 -322 133
q-82 -59 -157 -90q-110 -43 -240 -43zM543 -194l164 -164l-163 -163l-164 164zM510 1243q-22 0 -54 2h-3q-133 6 -272 60l32 79q52 -20 110 -35q7 10 26.5 36t26.5 36l3 4q11 71 11.5 123.5t-6.5 135.5q-4 55 -10 109t-10 81l-3 26l84 16l2 -16q2 -15 5 -40t6 -53t6 -58
t4 -50q7 -89 8 -170q103 97 197 112q69 11 133 -27t67 -108q4 -43 -15 -85t-46 -70l-1 -2q-118 -106 -301 -106zM444 1369l-27 -36q21 -3 40 -3h2h91.5t101 19.5t100.5 60.5q34 31 36.5 69.5t-26.5 61.5t-75 16q-90 -14 -205 -143q-23 -27 -38 -45z" />
    <glyph glyph-name="uni068C.fina" unicode="&#x68c;" horiz-adv-x="1208" arabic-form="final" 
d="M493 0q-208 0 -435 118l91 175q295 -151 511 -65q82 33 133 84l-316 760l182 76q103 -254 306 -739q6 -13 16.5 -40.5t15.5 -38.5t15 -32.5t18 -30.5t21.5 -23.5t28 -21t34 -14t44 -10t54.5 -2.5q41 0 70 -28.5t29 -69.5t-29 -69.5t-70 -28.5q-218 0 -322 133
q-82 -59 -157 -90q-110 -43 -240 -43zM364 1605l164 -164l-162 -162l-164 163zM780 1603l164 -163l-162 -163l-164 164z" />
    <glyph glyph-name="uni068D.fina" unicode="&#x68d;" horiz-adv-x="1224" arabic-form="final" 
d="M493 0q-208 0 -435 118l91 175q295 -151 511 -65q82 33 133 84l-316 760l182 76q103 -254 306 -739q6 -13 16.5 -40.5t15.5 -38.5t15 -32.5t18 -30.5t21.5 -23.5t28 -21t34 -14t44 -10t54.5 -2.5q41 0 70 -28.5t29 -69.5t-29 -69.5t-70 -28.5q-218 0 -322 133
q-82 -59 -157 -90q-110 -43 -240 -43zM452 -204l164 -164l-162 -162l-164 163zM823 -206l164 -163l-162 -163l-164 164z" />
    <glyph glyph-name="uni068E.fina" unicode="&#x68e;" horiz-adv-x="1219" arabic-form="final" 
d="M493 0q-208 0 -435 118l91 175q295 -151 511 -65q82 33 133 84l-316 760l182 76q103 -254 306 -739q6 -13 16.5 -40.5t15.5 -38.5t15 -32.5t18 -30.5t21.5 -23.5t28 -21t34 -14t44 -10t54.5 -2.5q41 0 70 -28.5t29 -69.5t-29 -69.5t-70 -28.5q-218 0 -322 133
q-82 -59 -157 -90q-110 -43 -240 -43zM785 1292l-164 164l162 162l164 -164zM355 1293l-164 164l162 163l164 -164zM576 1638l-149 149l148 148l149 -149z" />
    <glyph glyph-name="uni068F.fina" unicode="&#x68f;" horiz-adv-x="1224" 
d="M493 0q-208 0 -435 118l91 175q295 -151 511 -65q82 33 133 84l-316 760l182 76q103 -254 306 -739q6 -13 16.5 -40.5t15.5 -38.5t15 -32.5t18 -30.5t21.5 -23.5t28 -21t34 -14t44 -10t54.5 -2.5q41 0 70 -28.5t29 -69.5t-29 -69.5t-70 -28.5q-218 0 -322 133
q-82 -59 -157 -90q-110 -43 -240 -43zM326 1844l164 -164l-162 -162l-164 164zM680 1843l164 -164l-162 -163l-164 164zM512 1568l164 -164l-162 -162l-164 164z" />
    <glyph glyph-name="uni0690.fina" unicode="&#x690;" horiz-adv-x="1219" 
d="M493 0q-208 0 -435 118l91 175q295 -151 511 -65q82 33 133 84l-316 760l182 76q103 -254 306 -739q6 -13 16.5 -40.5t15.5 -38.5t15 -32.5t18 -30.5t21.5 -23.5t28 -21t34 -14t44 -10t54.5 -2.5q41 0 70 -28.5t29 -69.5t-29 -69.5t-70 -28.5q-218 0 -322 133
q-82 -59 -157 -90q-110 -43 -240 -43zM683 1556l164 -163l-162 -163l-164 164zM323 1551l164 -164l-162 -162l-164 163zM680 1957l164 -163l-162 -163l-164 164zM320 1952l164 -164l-162 -162l-164 163z" />
    <glyph glyph-name="uni0691" unicode="&#x691;" horiz-adv-x="999" arabic-form="isolated" 
d="M531 588l190 60q102 -323 122 -504q3 -45 3 -56q0 -125 -55.5 -247.5t-150.5 -224.5t-209.5 -185.5t-245.5 -148.5l-87 176q109 54 204.5 121.5t175.5 147.5t126 174t46 187q0 3 -0.5 9.5t-1.5 15t-1 14.5v-1q-8 74 -37 189.5t-54 194.5zM531 880q-22 0 -54 2h-3
q-133 6 -272 60l32 79q52 -20 110 -35q7 10 26.5 36t26.5 36l3 4q11 71 11.5 123.5t-6.5 135.5q-4 55 -9.5 109t-9.5 80l-4 27l84 16l2 -15q2 -16 5 -41t6 -53t6 -58t4 -50q7 -89 8 -170q103 97 197 112q69 11 133 -27t67 -108q4 -43 -15 -85t-46 -70l-1 -2
q-118 -106 -301 -106zM465 1006l-27 -36q21 -3 40 -3h2h91.5t101 19.5t100.5 60.5q34 31 36.5 69.5t-26.5 61.5t-75 16q-90 -14 -205 -143q-23 -27 -38 -45z" />
    <glyph glyph-name="uni0692.fina" unicode="&#x692;" horiz-adv-x="1085" 
d="M816 73v-4q0 -101 -37 -201t-99 -185.5t-148 -164.5t-179.5 -141.5t-197.5 -114.5l-86 177q91 46 171 98.5t154.5 119t125.5 136.5t78 151.5t19 163.5v-2q-19 152 -116 462l188 58v-2q11 -31 20.5 -58t29.5 -73t40 -83t49.5 -78.5t59.5 -70t69 -47t80 -18.5h33h8
q41 0 70 -29t29 -70t-29 -69t-70 -28h-8l-33 -1q-117 0 -221 74zM585 797l-105 6q-39 124 -92 229.5t-101 139.5l64 92q74 -51 146 -197q23 -47 38 -86l16 48q26 78 41 117.5t43 90t61 81.5l77 -82q-23 -23 -45 -65t-34.5 -75t-35.5 -102q-42 -127 -73 -197z" />
    <glyph glyph-name="uni0693.fina" unicode="&#x693;" horiz-adv-x="1079" 
d="M816 73v-4q0 -101 -37 -201t-99 -185.5t-148 -164.5t-179.5 -141.5t-197.5 -114.5l-86 177q91 46 171 98.5t154.5 119t125.5 136.5t78 151.5t19 163.5v-2q-19 152 -116 462l188 58v-2q11 -31 20.5 -58t29.5 -73t40 -83t49.5 -78.5t59.5 -70t69 -47t80 -18.5h33h8
q41 0 70 -29t29 -70t-29 -69t-70 -28h-8l-33 -1q-117 0 -221 74zM300 1020q37 0 66 36.5t29 76.5q0 39 -29 75.5t-66 36.5q-38 0 -67 -36.5t-29 -75.5q0 -40 29 -76.5t67 -36.5zM300 1352q83 0 145 -72q56 -65 56 -147t-56 -147q-62 -73 -145 -73q-84 0 -146 73
q-56 65 -56 147t56 147q62 72 146 72z" />
    <glyph glyph-name="uni0694.fina" unicode="&#x694;" horiz-adv-x="1085" 
d="M816 73v-4q0 -101 -37 -201t-99 -185.5t-148 -164.5t-179.5 -141.5t-197.5 -114.5l-86 177q91 46 171 98.5t154.5 119t125.5 136.5t78 151.5t19 163.5v-2q-19 152 -116 462l188 58v-2q11 -31 20.5 -58t29.5 -73t40 -83t49.5 -78.5t59.5 -70t69 -47t80 -18.5h33h8
q41 0 70 -29t29 -70t-29 -69t-70 -28h-8l-33 -1q-117 0 -221 74zM678 -463l164 -164l-163 -163l-164 164z" />
    <glyph glyph-name="uni0695.fina" unicode="&#x695;" horiz-adv-x="1079" 
d="M816 73v-4q0 -101 -37 -201t-99 -185.5t-148 -164.5t-179.5 -141.5t-197.5 -114.5l-86 177q91 46 171 98.5t154.5 119t125.5 136.5t78 151.5t19 163.5v-2q-19 152 -116 462l188 58v-2q11 -31 20.5 -58t29.5 -73t40 -83t49.5 -78.5t59.5 -70t69 -47t80 -18.5h33h8
q41 0 70 -29t29 -70t-29 -69t-70 -28h-8l-33 -1q-117 0 -221 74zM646 -1105l-105 6q-39 124 -92 229.5t-101 139.5l64 92q74 -51 146 -197q23 -47 38 -86q3 7 5.5 15.5t5.5 18t5 14.5q26 78 41 117.5t43 90t61 81.5l77 -82q-23 -23 -45 -65t-34.5 -75t-35.5 -102
q-42 -127 -73 -197z" />
    <glyph glyph-name="uni0696.fina" unicode="&#x696;" horiz-adv-x="1090" 
d="M816 73v-4q0 -101 -37 -201t-99 -185.5t-148 -164.5t-179.5 -141.5t-197.5 -114.5l-86 177q91 46 171 98.5t154.5 119t125.5 136.5t78 151.5t19 163.5v-2q-19 152 -116 462l188 58v-2q11 -31 20.5 -58t29.5 -73t40 -83t49.5 -78.5t59.5 -70t69 -47t80 -18.5h33h8
q41 0 70 -29t29 -70t-29 -69t-70 -28h-8l-33 -1q-117 0 -221 74zM799 -367l164 -164l-163 -163l-164 164zM176 348l164 -164l-163 -163l-164 164z" />
    <glyph glyph-name="uni0697.fina" unicode="&#x697;" horiz-adv-x="1079" 
d="M816 73v-4q0 -101 -37 -201t-99 -185.5t-148 -164.5t-179.5 -141.5t-197.5 -114.5l-86 177q91 46 171 98.5t154.5 119t125.5 136.5t78 151.5t19 163.5v-2q-19 152 -116 462l188 58v-2q11 -31 20.5 -58t29.5 -73t40 -83t49.5 -78.5t59.5 -70t69 -47t80 -18.5h33h8
q41 0 70 -29t29 -70t-29 -69t-70 -28h-8l-33 -1q-117 0 -221 74zM196 1053l164 -164l-162 -162l-164 163zM612 1051l164 -163l-162 -163l-164 164z" />
    <glyph glyph-name="uni0698" unicode="&#x698;" horiz-adv-x="1009" arabic-form="isolated" 
d="M531 588l190 60q102 -323 122 -504q3 -45 3 -56q0 -125 -55.5 -247.5t-150.5 -224.5t-209.5 -185.5t-245.5 -148.5l-87 176q109 54 204.5 121.5t175.5 147.5t126 174t46 187q0 3 -0.5 9.5t-1.5 15t-1 14.5v-1q-8 74 -37 189.5t-54 194.5zM830 938l-164 164l162 162
l164 -164zM400 939l-164 164l162 163l164 -164zM621 1284l-149 149l148 148l149 -149z" />
    <glyph glyph-name="uni0699.fina" unicode="&#x699;" horiz-adv-x="1090" 
d="M816 73v-4q0 -101 -37 -201t-99 -185.5t-148 -164.5t-179.5 -141.5t-197.5 -114.5l-86 177q91 46 171 98.5t154.5 119t125.5 136.5t78 151.5t19 163.5v-2q-19 152 -116 462l188 58v-2q11 -31 20.5 -58t29.5 -73t40 -83t49.5 -78.5t59.5 -70t69 -47t80 -18.5h33h8
q41 0 70 -29t29 -70t-29 -69t-70 -28h-8l-33 -1q-117 0 -221 74zM736 1140l164 -163l-162 -163l-164 164zM376 1135l164 -164l-162 -162l-164 163zM733 1541l164 -163l-162 -163l-164 164zM373 1536l164 -164l-162 -162l-164 163z" />
    <glyph glyph-name="uni069A.init" unicode="&#x69a;" horiz-adv-x="1707" 
d="M-92 97q0 39 27 67.5t65 31.5q64 0 119.5 17.5t94.5 45t72 70.5t54 83t39 94t27.5 93t19.5 89l198 -42q-1 -2 -8.5 -27t-11 -35.5t-11 -38t-11.5 -44t-10 -42.5t-9 -45.5t-5.5 -42.5t-2.5 -42q0 -142 108 -142q42 0 79.5 21t65 54.5t52 81.5t40.5 94.5t30 102t21.5 95
t13.5 81.5l192 -35l-3 -21q-4 -21 -10 -55.5t-11.5 -73t-9.5 -81t-4 -73.5q0 -179 107 -191q43 -6 75.5 -0.5t50.5 21t24 22.5t13 20h-1q25 40 25 110q0 99 -45 231t-92 226l175 92q17 -34 35.5 -74.5t51.5 -123.5t53.5 -175.5t20.5 -172.5q0 -176 -98.5 -276.5
t-287.5 -98.5q-76 1 -149 44t-117 108q-131 -152 -297 -152q-79 0 -155.5 40t-107.5 110q-131 -139 -384 -139h-16q-39 2 -65.5 30.5t-26.5 67.5zM977 -204l164 -164l-163 -163l-164 164zM1092 1294l164 -164l-163 -163l-164 164z" />
    <glyph glyph-name="uni069A.medi" unicode="&#x69a;" horiz-adv-x="2029" 
d="M-99 98q0 38 30 67t69 31h10q72 0 132 21.5t102.5 60t69.5 75.5t53 85q56 107 102 259q5 23 5 24l192 -53l-7 -24q-19 -75 -32 -165q-22 -181 22 -252q14 -26 44 -29q12 -3 22 -3q38 0 73 25q96 72 165 286q27 77 45 168q3 14 5.5 28t4 20.5t1.5 7.5l195 -37
q-1 0 -2 -6.5t-3.5 -21t-5.5 -28.5q-13 -75 -14 -143q-9 -188 49 -259q28 -36 85 -36q52 0 84 36q68 74 81 279q4 78 0 150q-4 33 -4 57l196 16q2 -5 4 -56q18 -143 49 -241q39 -120 109.5 -182t167.5 -62h12h8q41 0 69.5 -28.5t28.5 -69.5t-28.5 -69.5t-69.5 -28.5h-8h-12
q-220 0 -334 132q-28 31 -55 75q-28 -62 -66 -103q-93 -104 -232 -104q-151 0 -239 111q-30 38 -48 81q-56 -82 -122 -132q-88 -63 -189 -63q-24 0 -54 5q-118 22 -181 120q-16 27 -34 74q-33 -43 -67 -75q-124 -121 -369 -121h-10q-41 0 -70 29t-29 69zM1115 1317l164 -164
l-163 -163l-164 164zM1039 -206l164 -164l-163 -163l-164 164z" />
    <glyph glyph-name="uni069A.fina" unicode="&#x69a;" horiz-adv-x="2974" 
d="M2945 197h20q41 0 70 -29.5t29 -70.5q0 -40 -29 -69t-70 -29h-9h-11q-164 0 -278 133q-27 29 -55 76q-24 -57 -66 -105q-95 -104 -231 -104q-59 0 -125 36t-107 97q-106 -123 -296 -133q-55 -2 -104.5 13t-71.5 32l-22 16q12 -402 -264 -586q-181 -123 -470 -135
q-7 0 -20 -1t-19 -1q-264 0 -434 150q-76 68 -125.5 162.5t-65.5 204.5q-32 201 42 438q56 185 128 283l159 -118q-30 -41 -65 -127.5t-59 -214.5t-9 -233q5 -32 14.5 -63t28 -73t50.5 -77t76 -66t110 -49t147 -18h34q425 20 516 298q33 104 35 226.5t-18.5 224.5t-55.5 185
q-36 82 -36 85l166 108q13 -38 37 -97q9 -23 23.5 -63.5t23.5 -66t24.5 -61t29 -57.5t33.5 -47.5t41.5 -39.5t51 -23.5t62.5 -9.5q47 0 82 16.5t56.5 48t35.5 69.5t20.5 87.5t9.5 94.5t5 99q1 24 1 36l203 -15q-1 -52 -4 -86q-2 -31 -2.5 -51.5t0.5 -61t4.5 -69.5t13 -64
t23.5 -57t37.5 -37t53.5 -15q42 0 79 42q68 75 81 280q3 53 0 149q-4 34 -4 58l196 14q2 0 4 -56q19 -144 49 -241q79 -242 221 -242zM2135 -236l164 -164l-163 -163l-164 164zM2129 1215l164 -164l-163 -163l-164 164z" />
    <glyph glyph-name="uni069B.init" unicode="&#x69b;" horiz-adv-x="1745" 
d="M-92 97q0 39 27 67.5t65 31.5q64 0 119.5 17.5t94.5 45t72 70.5t54 83t39 94t27.5 93t19.5 89l198 -42q-1 -2 -8.5 -27t-11 -35.5t-11 -38t-11.5 -44t-10 -42.5t-9 -45.5t-5.5 -42.5t-2.5 -42q0 -142 108 -142q42 0 79.5 21t65 54.5t52 81.5t40.5 94.5t30 102t21.5 95
t13.5 81.5l192 -35l-3 -21q-4 -21 -10 -55.5t-11.5 -73t-9.5 -81t-4 -73.5q0 -179 107 -191q43 -6 75.5 -0.5t50.5 21t24 22.5t13 20h-1q25 40 25 110q0 99 -45 231t-92 226l175 92q17 -34 35.5 -74.5t51.5 -123.5t53.5 -175.5t20.5 -172.5q0 -176 -98.5 -276.5
t-287.5 -98.5q-76 1 -149 44t-117 108q-131 -152 -297 -152q-79 0 -155.5 40t-107.5 110q-131 -139 -384 -139h-16q-39 2 -65.5 30.5t-26.5 67.5zM743 -153l164 -164l-162 -162l-164 164zM1174 -154l164 -164l-162 -163l-164 164zM956 -788l-149 149l148 148l149 -149z" />
    <glyph glyph-name="uni069B.medi" unicode="&#x69b;" horiz-adv-x="1997" 
d="M-105 98q0 38 30 67t69 31h10q72 0 132 21.5t102.5 60t69.5 75.5t53 85q56 107 102 259q5 23 5 24l192 -53l-7 -24q-19 -75 -32 -165q-22 -181 22 -252q14 -26 44 -29q12 -3 22 -3q38 0 73 25q96 72 165 286q27 77 45 168q3 14 5.5 28t4 20.5t1.5 7.5l195 -37
q-1 0 -2 -6.5t-3.5 -21t-5.5 -28.5q-13 -75 -14 -143q-9 -188 49 -259q28 -36 85 -36q52 0 84 36q68 74 81 279q4 78 0 150q-4 33 -4 57l196 16q2 -5 4 -56q18 -143 49 -241q39 -120 109.5 -182t167.5 -62h12h8q41 0 69.5 -28.5t28.5 -69.5t-28.5 -69.5t-69.5 -28.5h-8h-12
q-220 0 -334 132q-28 31 -55 75q-28 -62 -66 -103q-93 -104 -232 -104q-151 0 -239 111q-30 38 -48 81q-56 -82 -122 -132q-88 -63 -189 -63q-24 0 -54 5q-118 22 -181 120q-16 27 -34 74q-33 -43 -67 -75q-124 -121 -369 -121h-10q-41 0 -70 29t-29 69zM809 -182l164 -164
l-162 -162l-164 164zM1240 -183l164 -164l-162 -163l-164 164zM1022 -817l-149 149l148 148l149 -149z" />
    <glyph glyph-name="uni069B.fina" unicode="&#x69b;" horiz-adv-x="2958" 
d="M2945 197h20q41 0 70 -29.5t29 -70.5q0 -40 -29 -69t-70 -29h-9h-11q-164 0 -278 133q-27 29 -55 76q-24 -57 -66 -105q-95 -104 -231 -104q-59 0 -125 36t-107 97q-106 -123 -296 -133q-55 -2 -104.5 13t-71.5 32l-22 16q12 -402 -264 -586q-181 -123 -470 -135
q-7 0 -20 -1t-19 -1q-264 0 -434 150q-76 68 -125.5 162.5t-65.5 204.5q-32 201 42 438q56 185 128 283l159 -118q-30 -41 -65 -127.5t-59 -214.5t-9 -233q5 -32 14.5 -63t28 -73t50.5 -77t76 -66t110 -49t147 -18h34q425 20 516 298q33 104 35 226.5t-18.5 224.5t-55.5 185
q-36 82 -36 85l166 108q13 -38 37 -97q9 -23 23.5 -63.5t23.5 -66t24.5 -61t29 -57.5t33.5 -47.5t41.5 -39.5t51 -23.5t62.5 -9.5q47 0 82 16.5t56.5 48t35.5 69.5t20.5 87.5t9.5 94.5t5 99q1 24 1 36l203 -15q-1 -52 -4 -86q-2 -31 -2.5 -51.5t0.5 -61t4.5 -69.5t13 -64
t23.5 -57t37.5 -37t53.5 -15q42 0 79 42q68 75 81 280q3 53 0 149q-4 34 -4 58l196 14q2 0 4 -56q19 -144 49 -241q79 -242 221 -242zM1996 -201l164 -164l-162 -162l-164 164zM2427 -202l164 -164l-162 -163l-164 164zM2209 -836l-149 149l148 148l149 -149z" />
    <glyph glyph-name="uni069C.init" unicode="&#x69c;" horiz-adv-x="1686" 
d="M-92 97q0 39 27 67.5t65 31.5q64 0 119.5 17.5t94.5 45t72 70.5t54 83t39 94t27.5 93t19.5 89l198 -42q-1 -2 -8.5 -27t-11 -35.5t-11 -38t-11.5 -44t-10 -42.5t-9 -45.5t-5.5 -42.5t-2.5 -42q0 -142 108 -142q42 0 79.5 21t65 54.5t52 81.5t40.5 94.5t30 102t21.5 95
t13.5 81.5l192 -35l-3 -21q-4 -21 -10 -55.5t-11.5 -73t-9.5 -81t-4 -73.5q0 -179 107 -191q43 -6 75.5 -0.5t50.5 21t24 22.5t13 20h-1q25 40 25 110q0 99 -45 231t-92 226l175 92q17 -34 35.5 -74.5t51.5 -123.5t53.5 -175.5t20.5 -172.5q0 -176 -98.5 -276.5
t-287.5 -98.5q-76 1 -149 44t-117 108q-131 -152 -297 -152q-79 0 -155.5 40t-107.5 110q-131 -139 -384 -139h-16q-39 2 -65.5 30.5t-26.5 67.5zM1187 979l-164 164l162 162l164 -164zM757 980l-164 164l162 163l164 -164zM978 1325l-149 149l148 148l149 -149zM765 -174
l164 -164l-162 -162l-164 164zM1196 -175l164 -164l-162 -163l-164 164zM978 -809l-149 149l148 148l149 -149z" />
    <glyph glyph-name="uni069C.medi" unicode="&#x69c;" horiz-adv-x="2008" 
d="M-108 98q0 38 30 67t69 31h10q72 0 132 21.5t102.5 60t69.5 75.5t53 85q56 107 102 259q5 23 5 24l192 -53l-7 -24q-19 -75 -32 -165q-22 -181 22 -252q14 -26 44 -29q12 -3 22 -3q38 0 73 25q96 72 165 286q27 77 45 168q3 14 5.5 28t4 20.5t1.5 7.5l195 -37
q-1 0 -2 -6.5t-3.5 -21t-5.5 -28.5q-13 -75 -14 -143q-9 -188 49 -259q28 -36 85 -36q52 0 84 36q68 74 81 279q4 78 0 150q-4 33 -4 57l196 16q2 -5 4 -56q18 -143 49 -241q39 -120 109.5 -182t167.5 -62h12h8q41 0 69.5 -28.5t28.5 -69.5t-28.5 -69.5t-69.5 -28.5h-8h-12
q-220 0 -334 132q-28 31 -55 75q-28 -62 -66 -103q-93 -104 -232 -104q-151 0 -239 111q-30 38 -48 81q-56 -82 -122 -132q-89 -63 -189 -63q-24 0 -54 5q-118 22 -181 120q-16 27 -34 74q-33 -43 -67 -75q-124 -121 -369 -121h-10q-41 0 -70 29t-29 69zM780 -218l164 -164
l-162 -162l-164 164zM1211 -219l164 -164l-162 -163l-164 164zM993 -853l-149 149l148 148l149 -149zM1299 971l-164 164l162 162l164 -164zM869 972l-164 164l162 163l164 -164zM1090 1317l-149 149l148 148l149 -149z" />
    <glyph glyph-name="uni069C.fina" unicode="&#x69c;" horiz-adv-x="2974" 
d="M2945 197h20q41 0 70 -29.5t29 -70.5q0 -40 -29 -69t-70 -29h-9h-11q-164 0 -278 133q-27 29 -55 76q-24 -57 -66 -105q-95 -104 -231 -104q-59 0 -125 36t-107 97q-106 -123 -296 -133q-55 -2 -104.5 13t-71.5 32l-22 16q12 -402 -264 -586q-181 -123 -470 -135
q-7 0 -20 -1t-19 -1q-264 0 -434 150q-76 68 -125.5 162.5t-65.5 204.5q-32 201 42 438q56 185 128 283l159 -118q-30 -41 -65 -127.5t-59 -214.5t-9 -233q5 -32 14.5 -63t28 -73t50.5 -77t76 -66t110 -49t147 -18h34q425 20 516 298q33 104 35 226.5t-18.5 224.5t-55.5 185
q-36 82 -36 85l166 108q13 -38 37 -97q9 -23 23.5 -63.5t23.5 -66t24.5 -61t29 -57.5t33.5 -47.5t41.5 -39.5t51 -23.5t62.5 -9.5q47 0 82 16.5t56.5 48t35.5 69.5t20.5 87.5t9.5 94.5t5 99q1 24 1 36l203 -15q-1 -52 -4 -86q-2 -31 -2.5 -51.5t0.5 -61t4.5 -69.5t13 -64
t23.5 -57t37.5 -37t53.5 -15q42 0 79 42q68 75 81 280q3 53 0 149q-4 34 -4 58l196 14q2 0 4 -56q19 -144 49 -241q79 -242 221 -242zM2301 896l-164 164l162 162l164 -164zM1871 897l-164 164l162 163l164 -164zM2092 1242l-149 149l148 148l149 -149zM1931 -186l164 -164
l-162 -162l-164 164zM2362 -187l164 -164l-162 -163l-164 164zM2144 -821l-149 149l148 148l149 -149z" />
    <glyph glyph-name="uni069D.init" unicode="&#x69d;" horiz-adv-x="1917" 
d="M777 188q88 -9 184.5 -9.5t203 9.5t203 41.5t157.5 81.5q81 66 90 171q1 71 -55 127q-87 91 -249 67q-167 -33 -304 -164q-126 -119 -230 -324zM-99 98q0 41 29 69.5t70 28.5q177 0 250 95q22 29 39 75t24.5 78t21.5 101q20 104 39 162l189 -57q-5 -12 -22 -82h1
q-8 -39 -11.5 -84.5t9.5 -114.5t48 -114q22 50 53.5 106t94 141t134.5 153q88 84 195 140.5t212 73.5q127 25 236 -7t190 -116q120 -123 109 -277q-12 -191 -161 -311q-219 -178 -675 -178q-155 0 -259 16q-81 8 -150 38q-87 40 -162 137q-123 -169 -396 -171h-9
q-41 0 -70 28.5t-29 69.5zM913 -204l164 -164l-162 -162l-164 163zM1284 -206l164 -163l-162 -163l-164 164z" />
    <glyph glyph-name="uni069D.medi" unicode="&#x69d;" horiz-adv-x="1970" 
d="M-99 97q0 41 28.5 70t69.5 29h9q119 3 161 24q45 23 81 70q32 41 52.5 102.5t44.5 163.5q22 102 36 151l189 -58q-7 -16 -22 -82h1q-7 -39 -10 -84t8.5 -111t43.5 -106l6 -11q38 83 109 192.5t172 208.5q179 171 407 214q265 45 426 -125q118 -118 109 -276
q-12 -163 -120 -273h274q41 0 70.5 -29t29.5 -70t-29 -69t-71 -28l-295 -1q-215 0 -283 31q-179 -49 -412 -49q-88 0 -257 15q-90 10 -151 38q-82 35 -142 111q-14 11 -24 30q-64 -85 -161 -128q-99 -47 -252 -47q-41 0 -69.5 28t-28.5 69zM787 188q88 -9 184.5 -9t203 10.5
t203.5 42t158 81.5q84 67 90 169q5 71 -53 126q-89 92 -250 67q-164 -26 -306 -162q-125 -118 -230 -325zM944 -204l164 -164l-162 -162l-164 163zM1315 -206l164 -163l-162 -163l-164 164z" />
    <glyph glyph-name="uni069D.fina" unicode="&#x69d;" horiz-adv-x="2958" 
d="M1790 208q93 -32 213.5 -43.5t254.5 10t223 79.5q116 74 125 205q5 66 -53 126q-88 93 -249 67q-161 -27 -306 -164q-114 -108 -208 -280zM2954 0q-254 0 -348 92l-4 4l-13 -8q-175 -113 -452 -122q-237 -9 -426 61q-105 38 -186 97q7 -84 2 -144q-10 -138 -62 -255
q-57 -129 -162 -220q-184 -155 -474 -155q-53 0 -100 4q-205 20 -328 97q-127 74 -188 201q-59 119 -57 280q1 121 38 266q26 105 65.5 198t64.5 134l167 -108q-12 -20 -33 -66t-47.5 -126t-43.5 -161.5t-13 -172t37 -157.5q80 -163 354 -188q280 -21 430 104
q139 119 154 339q18 223 -117 581q-2 4 -7 17l182 75q65 -151 156 -285q29 -46 73 -79q108 198 247 329q177 172 406 216q128 22 237 -10t188 -115q120 -122 109 -277q-7 -111 -65 -209q12 -15 69.5 -28t138.5 -13h8q41 0 70 -29t29 -70q0 -40 -29 -68.5t-70 -28.5z
M2020 -222l164 -164l-162 -162l-164 163zM2391 -224l164 -163l-162 -163l-164 164z" />
    <glyph glyph-name="uni069E.init" unicode="&#x69e;" horiz-adv-x="1894" 
d="M777 188q88 -9 184.5 -9.5t203 9.5t203 41.5t157.5 81.5q81 66 90 171q1 71 -55 127q-87 91 -249 67q-167 -33 -304 -164q-126 -119 -230 -324zM-99 98q0 41 29 69.5t70 28.5q177 0 250 95q22 29 39 75t24.5 78t21.5 101q20 104 39 162l189 -57q-5 -12 -22 -82h1
q-8 -39 -11.5 -84.5t9.5 -114.5t48 -114q22 50 53.5 106t94 141t134.5 153q88 84 195 140.5t212 73.5q127 25 236 -7t190 -116q120 -123 109 -277q-12 -191 -161 -311q-219 -178 -675 -178q-155 0 -259 16q-81 8 -150 38q-87 40 -162 137q-123 -169 -396 -171h-9
q-41 0 -70 28.5t-29 69.5zM1508 1039l-164 164l162 162l164 -164zM1078 1040l-164 164l162 163l164 -164zM1299 1385l-149 149l148 148l149 -149z" />
    <glyph glyph-name="uni069E.medi" unicode="&#x69e;" horiz-adv-x="1970" 
d="M-99 97q0 41 28.5 70t69.5 29h9q119 3 161 24q45 23 81 70q32 41 52.5 102.5t44.5 163.5q22 102 36 151l189 -58q-7 -16 -22 -82h1q-7 -39 -10 -84t8.5 -111t43.5 -106l6 -11q38 83 109 192.5t172 208.5q179 171 407 214q265 45 426 -125q118 -118 109 -276
q-12 -163 -120 -273h274q41 0 70.5 -29t29.5 -70t-29 -69t-71 -28l-295 -1q-215 0 -283 31q-179 -49 -412 -49q-88 0 -257 15q-90 10 -151 38q-82 35 -142 111q-14 11 -24 30q-64 -85 -161 -128q-99 -47 -252 -47q-41 0 -69.5 28t-28.5 69zM787 188q88 -9 184.5 -9t203 10.5
t203.5 42t158 81.5q84 67 90 169q5 71 -53 126q-89 92 -250 67q-164 -26 -306 -162q-125 -118 -230 -325zM1513 1038l-164 164l162 162l164 -164zM1083 1039l-164 164l162 163l164 -164zM1304 1384l-149 149l148 148l149 -149z" />
    <glyph glyph-name="uni069E.fina" unicode="&#x69e;" horiz-adv-x="2964" 
d="M1790 208q93 -32 213.5 -43.5t254.5 10t223 79.5q116 74 125 205q5 66 -53 126q-88 93 -249 67q-161 -27 -306 -164q-114 -108 -208 -280zM2954 0q-254 0 -348 92l-4 4l-13 -8q-175 -113 -452 -122q-237 -9 -426 61q-105 38 -186 97q7 -84 2 -144q-10 -138 -62 -255
q-57 -129 -162 -220q-184 -155 -474 -155q-53 0 -100 4q-205 20 -328 97q-127 74 -188 201q-59 119 -57 280q1 121 38 266q26 105 65.5 198t64.5 134l167 -108q-12 -20 -33 -66t-47.5 -126t-43.5 -161.5t-13 -172t37 -157.5q80 -163 354 -188q280 -21 430 104
q139 119 154 339q18 223 -117 581q-2 4 -7 17l182 75q65 -151 156 -285q29 -46 73 -79q108 198 247 329q177 172 406 216q128 22 237 -10t188 -115q120 -122 109 -277q-7 -111 -65 -209q12 -15 69.5 -28t138.5 -13h8q41 0 70 -29t29 -70q0 -40 -29 -68.5t-70 -28.5z
M2453 981l-164 164l162 162l164 -164zM2023 982l-164 164l162 163l164 -164zM2244 1327l-149 149l148 148l149 -149z" />
    <glyph glyph-name="uni069F.init" unicode="&#x69f;" horiz-adv-x="1591" 
d="M444 288l-66 -92h30h35.5h30.5q192 0 276 11q239 31 415 175q55 46 78 102.5t12 114.5q-9 51 -49.5 85t-92.5 44.5t-102 -0.5q-214 -47 -478 -336q-10 -11 -89 -104zM-102 98q0 40 29.5 69t69.5 29h9h142q3 4 24 41.5t51 82.5t66 89l7 11q21 122 23 378q1 244 -23 481
q-7 68 -12.5 127t-7.5 83l-3 24l202 36q55 -417 45 -887q241 224 460 262q232 36 368 -98q92 -92 100 -216q8 -100 -36 -200.5t-106 -164.5l-4 -6q-85 -76 -179.5 -126.5t-189.5 -73.5t-171 -31.5t-164 -8.5l-592 1h-9q-40 0 -69.5 28.5t-29.5 69.5zM1235 1039l-164 164
l162 162l164 -164zM805 1040l-164 164l162 163l164 -164zM1026 1385l-149 149l148 148l149 -149z" />
    <glyph glyph-name="uni069F.medi" unicode="&#x69f;" horiz-adv-x="1564" 
d="M455 287l-67 -91q33 0 97 -0.5t96 -0.5t88.5 1.5t90 6.5t83 13t86 22t80 33.5t84 47.5t80.5 63q38 38 64 99t23 115q-9 53 -50 85.5t-89.5 42t-99.5 4.5q-204 -36 -478 -335q-10 -12 -41 -49t-47 -57zM-106 98q0 41 28.5 69.5t69.5 28.5h8h144q91 134 154 211l7 10
q18 23 21.5 165t-4.5 317.5t-21.5 347.5t-27.5 258l195 36q65 -410 61 -882q246 229 461 262q200 32 361 -98q98 -83 107 -215q8 -102 -36 -200t-107 -164q-10 -10 -25 -22t-24.5 -19t-10.5 -7h334q41 0 69.5 -28t28.5 -69t-28.5 -69.5t-69.5 -28.5h-1v-1q-53 0 -132.5 -0.5
t-114.5 -0.5q-247 0 -382 43q-143 -42 -354 -42h-613q-41 0 -69.5 28.5t-28.5 69.5zM1226 1033l-164 164l162 162l164 -164zM796 1034l-164 164l162 163l164 -164zM1017 1379l-149 149l148 148l149 -149z" />
    <glyph glyph-name="uni069F.fina" unicode="&#x69f;" horiz-adv-x="1868" 
d="M652 207l278 -9q306 13 503 190q38 42 64 101t23 112q-13 76 -86.5 109.5t-153.5 20.5q-205 -32 -477 -333zM1868 0h-919q-28 -1 -82 -1q-60 0 -126 4h-5q-309 15 -634 140l72 185q133 -52 258 -83q52 76 125 168l7 10q24 165 25 289t-14 314q-4 59 -9.5 118.5t-10.5 108
t-10 93t-9 77.5t-7 58t-5 38l-2 13l196 36l2 -19q2 -19 6 -52t8.5 -75t10 -90.5t10.5 -95.5t9 -93.5t7 -81.5q13 -176 15 -268q2 -75 3 -128q241 229 461 262q73 14 154.5 -2t150 -56t114 -108t47.5 -149q8 -100 -36 -197.5t-107 -165.5l-1 -2l-2 -2q-3 -3 -56 -47l346 -2h8
q41 0 69.5 -28.5t28.5 -69.5t-28.5 -69.5t-69.5 -28.5zM1466 1039l-164 164l162 162l164 -164zM1036 1040l-164 164l162 163l164 -164zM1257 1385l-149 149l148 148l149 -149z" />
    <glyph glyph-name="uni06A0.init" unicode="&#x6a0;" horiz-adv-x="1101" 
d="M1025 752l-123 -151q-5 5 -13.5 14.5t-37.5 32.5t-61 41t-81.5 32.5t-99.5 14.5q-111 0 -173 -69t-62 -167q0 -123 101 -200t237 -69q70 4 145.5 15t116.5 20l40 8l24 -190q-327 -85 -794 -85l-244 1q-41 0 -70.5 28.5t-29.5 69.5t29.5 69.5t70.5 28.5h310
q-132 120 -132 304q0 178 124 305t307 127q69 0 137.5 -18.5t116.5 -45t86 -53t57 -45.5zM749 1079l-164 164l162 162l164 -164zM319 1080l-164 164l162 163l164 -164zM540 1425l-149 149l148 148l149 -149z" />
    <glyph glyph-name="uni06A0.medi" unicode="&#x6a0;" horiz-adv-x="1229" 
d="M1222 196q41 0 70 -29.5t29 -70.5q0 -40 -29 -68.5t-70 -28.5q-402 0 -587 123q-169 -125 -625 -123q-41 0 -70 28.5t-29 68.5q0 41 29 70.5t70 29.5q109 0 239 17.5t200 45.5q-36 33 -80.5 81t-77.5 86.5t-86 101.5t-81 96l10 139q166 148 414 172q205 23 376 -49
q94 -42 131 -98t37 -104q11 -89 -75 -220.5t-196 -215.5q64 -25 177.5 -38.5t223.5 -13.5zM637 357q81 43 168.5 153.5t88.5 162.5q-105 70 -262 70.5t-288 -73.5q99 -119 163 -189.5t130 -123.5zM834 1084l-164 164l162 162l164 -164zM404 1085l-164 164l162 163l164 -164z
M625 1430l-149 149l148 148l149 -149z" />
    <glyph glyph-name="uni06A0.fina" unicode="&#x6a0;" horiz-adv-x="1444" 
d="M708 -544q73 -9 134 -10t145.5 8t177.5 42t187 90l102 -170q-204 -120 -401 -152q-88 -14 -195 -14q-86 0 -172 10q-85 9 -178 48.5t-168 99.5q-93 73 -144 161q-63 105 -63 225q0 144 63 259q58 105 158 184q91 74 244 144q-101 91 -237 239l-26 30l-12 122
q99 149 355 210q109 25 220 24t195 -29q104 -32 159.5 -97t52.5 -153q-4 -173 -156 -293q-75 -59 -166 -101q112 -69 216 -103t255 -34q40 -1 68.5 -30t28.5 -69q0 -41 -28 -69t-69 -29q-197 0 -355 61t-330 181q-205 -88 -292 -160q-147 -115 -147 -287q0 -123 132 -231
q114 -88 246 -107zM543 716q161 -169 256 -248q158 66 231.5 125t76.5 139q0 34 -72 58q-114 33 -257.5 10t-234.5 -84zM1045 1155l-164 164l162 162l164 -164zM615 1156l-164 164l162 163l164 -164zM836 1501l-149 149l148 148l149 -149z" />
    <glyph glyph-name="uni06A1.fina" unicode="&#x6a1;" horiz-adv-x="2110" 
d="M1877 242q-5 -4 -11.5 -12t-8.5 -10q130 -24 251 -24q41 0 70 -28.5t29 -69.5q0 -40 -29 -69t-70 -29q-261 0 -471 72q-5 -2 -26 -9l-33 -11q-94 -36 -262 -55t-355 -19q-621 2 -799 305q-23 39 -38 81.5t-21.5 82t-7.5 81.5t3.5 78.5t12.5 73t16.5 65t18.5 55.5
t17.5 43.5t14.5 29.5l6 13l174 -95l-4 -9q-5 -9 -11 -24.5t-14 -36t-15 -46t-13 -53.5t-7.5 -59t0.5 -61t12 -61.5t26 -58.5q61 -102 197 -152.5t376 -55.5q282 -8 477 31q-137 113 -137 264q0 189 111 328q54 67 123 104t144 37q141 0 233 -99q106 -110 106 -303
q0 -175 -85 -294zM1616 293l13 -7q79 45 106.5 106.5t27.5 143.5q0 67 -16.5 111.5t-42.5 62.5t-44.5 23.5t-36.5 5.5q-62 0 -120.5 -77t-58.5 -193q0 -46 44.5 -92.5t127.5 -83.5z" />
    <glyph glyph-name="uni06A2.init" unicode="&#x6a2;" horiz-adv-x="972" 
d="M428 927q-33 0 -73.5 -58t-55.5 -152q-14 -75 17 -112q41 -51 151 -57q105 -5 173 0q-7 99 -38 185t-81 141q-46 53 -93 53zM-101 98q0 41 29.5 69.5t70.5 28.5q204 0 359.5 35t211.5 79q20 18 37 38h-101q-110 0 -202.5 35t-143.5 100q-83 107 -56 269q27 152 107 254
q92 119 217 119q132 0 240 -117q93 -101 139 -261t29 -321h-1q-6 -40 -17 -81q-24 -110 -126 -189q-93 -74 -277.5 -114t-400.5 -42h-17q-41 0 -69.5 29t-28.5 69zM360 -111l164 -164l-163 -163l-164 164z" />
    <glyph glyph-name="uni06A2.medi" unicode="&#x6a2;" horiz-adv-x="956" 
d="M461 741q-61 0 -120 -78.5t-59 -193.5q0 -46 44.5 -92t127.5 -84l16 -7q38 22 65 50t40 51t20 55t8 48.5t1 45.5q0 54 -12 94t-28 60.5t-38 32.5t-36.5 15t-28.5 3zM-121 98q0 42 28.5 70t69.5 28q127 0 239 15q-130 114 -130 258q0 190 111 329q54 67 123.5 103.5
t142.5 36.5q140 0 233 -99q107 -116 107 -303q0 -194 -104 -316q119 -24 251 -24q42 0 70.5 -28t28.5 -70q0 -41 -28.5 -69.5t-70.5 -28.5h-9q-125 0 -240 18q-124 20 -224 53q-189 -71 -492 -71h-8q-41 0 -69.5 28.5t-28.5 69.5zM490 -165l164 -164l-163 -163l-164 164z
" />
    <glyph glyph-name="uni06A2.fina" unicode="&#x6a2;" horiz-adv-x="2105" 
d="M1877 242q-5 -4 -11.5 -12t-8.5 -10q130 -24 251 -24q41 0 70 -28.5t29 -69.5q0 -40 -29 -69t-70 -29q-261 0 -471 72q-5 -2 -26 -9l-33 -11q-94 -36 -262 -55t-355 -19q-621 2 -799 305q-23 39 -38 81.5t-21.5 82t-7.5 81.5t3.5 78.5t12.5 73t16.5 65t18.5 55.5
t17.5 43.5t14.5 29.5l6 13l174 -95l-4 -9q-5 -9 -11 -24.5t-14 -36t-15 -46t-13 -53.5t-7.5 -59t0.5 -61t12 -61.5t26 -58.5q61 -102 197 -152.5t376 -55.5q282 -8 477 31q-137 113 -137 264q0 189 111 328q54 67 123 104t144 37q141 0 233 -99q106 -110 106 -303
q0 -175 -85 -294zM1616 293l13 -7q79 45 106.5 106.5t27.5 143.5q0 67 -16.5 111.5t-42.5 62.5t-44.5 23.5t-36.5 5.5q-62 0 -120.5 -77t-58.5 -193q0 -46 44.5 -92.5t127.5 -83.5zM1584 -206l164 -164l-163 -163l-164 164z" />
    <glyph glyph-name="uni06A3.init" unicode="&#x6a3;" horiz-adv-x="945" 
d="M428 927q-33 0 -73.5 -58t-55.5 -152q-14 -75 17 -112q41 -51 151 -57q105 -5 173 0q-7 99 -38 185t-81 141q-46 53 -93 53zM-101 98q0 41 29.5 69.5t70.5 28.5q204 0 359.5 35t211.5 79q20 18 37 38h-101q-110 0 -202.5 35t-143.5 100q-83 107 -56 269q27 152 107 254
q92 119 217 119q132 0 240 -117q93 -101 139 -261t29 -321h-1q-6 -40 -17 -81q-24 -110 -126 -189q-93 -74 -277.5 -114t-400.5 -42h-17q-41 0 -69.5 29t-28.5 69zM360 1666l164 -164l-163 -163l-164 164zM360 -163l164 -164l-163 -163l-164 164z" />
    <glyph glyph-name="uni06A3.medi" unicode="&#x6a3;" horiz-adv-x="956" 
d="M461 741q-61 0 -120 -78.5t-59 -193.5q0 -46 44.5 -92t127.5 -84l16 -7q38 22 65 50t40 51t20 55t8 48.5t1 45.5q0 54 -12 94t-28 60.5t-38 32.5t-36.5 15t-28.5 3zM-121 98q0 42 28.5 70t69.5 28q127 0 239 15q-130 114 -130 258q0 190 111 329q54 67 123.5 103.5
t142.5 36.5q140 0 233 -99q107 -116 107 -303q0 -194 -104 -316q119 -24 251 -24q42 0 70.5 -28t28.5 -70q0 -41 -28.5 -69.5t-70.5 -28.5h-9q-125 0 -240 18q-124 20 -224 53q-189 -71 -492 -71h-8q-41 0 -69.5 28.5t-28.5 69.5zM465 1506l164 -164l-163 -163l-164 164z
M466 -204l164 -164l-163 -163l-164 164z" />
    <glyph glyph-name="uni06A3.fina" unicode="&#x6a3;" horiz-adv-x="2115" 
d="M1877 242q-5 -4 -11.5 -12t-8.5 -10q130 -24 251 -24q41 0 70 -28.5t29 -69.5q0 -40 -29 -69t-70 -29q-261 0 -471 72q-5 -2 -26 -9l-33 -11q-94 -36 -262 -55t-355 -19q-621 2 -799 305q-23 39 -38 81.5t-21.5 82t-7.5 81.5t3.5 78.5t12.5 73t16.5 65t18.5 55.5
t17.5 43.5t14.5 29.5l6 13l174 -95l-4 -9q-5 -9 -11 -24.5t-14 -36t-15 -46t-13 -53.5t-7.5 -59t0.5 -61t12 -61.5t26 -58.5q61 -102 197 -152.5t376 -55.5q282 -8 477 31q-137 113 -137 264q0 189 111 328q54 67 123 104t144 37q141 0 233 -99q106 -110 106 -303
q0 -175 -85 -294zM1616 293l13 -7q79 45 106.5 106.5t27.5 143.5q0 67 -16.5 111.5t-42.5 62.5t-44.5 23.5t-36.5 5.5q-62 0 -120.5 -77t-58.5 -193q0 -46 44.5 -92.5t127.5 -83.5zM1562 -168l164 -164l-163 -163l-164 164zM1568 1466l164 -164l-163 -163l-164 164z" />
    <glyph glyph-name="uni06A4.init" unicode="&#x6a4;" horiz-adv-x="950" arabic-form="initial" 
d="M428 927q-33 0 -73.5 -58t-55.5 -152q-14 -75 17 -112q41 -51 151 -57q105 -5 173 0q-7 99 -38 185t-81 141q-46 53 -93 53zM-101 98q0 41 29.5 69.5t70.5 28.5q204 0 359.5 35t211.5 79q20 18 37 38h-101q-110 0 -202.5 35t-143.5 100q-83 107 -56 269q27 152 107 254
q92 119 217 119q132 0 240 -117q93 -101 139 -261t29 -321h-1q-6 -40 -17 -81q-24 -110 -126 -189q-93 -74 -277.5 -114t-400.5 -42h-17q-41 0 -69.5 29t-28.5 69zM620 1247l-164 164l162 162l164 -164zM190 1248l-164 164l162 163l164 -164zM411 1593l-149 149l148 148
l149 -149z" />
    <glyph glyph-name="uni06A4.medi" unicode="&#x6a4;" horiz-adv-x="961" arabic-form="medial" 
d="M461 741q-61 0 -120 -78.5t-59 -193.5q0 -46 44.5 -92t127.5 -84l16 -7q38 22 65 50t40 51t20 55t8 48.5t1 45.5q0 54 -12 94t-28 60.5t-38 32.5t-36.5 15t-28.5 3zM-121 98q0 42 28.5 70t69.5 28q127 0 239 15q-130 114 -130 258q0 190 111 329q54 67 123.5 103.5
t142.5 36.5q140 0 233 -99q107 -116 107 -303q0 -194 -104 -316q119 -24 251 -24q42 0 70.5 -28t28.5 -70q0 -41 -28.5 -69.5t-70.5 -28.5h-9q-125 0 -240 18q-124 20 -224 53q-189 -71 -492 -71h-8q-41 0 -69.5 28.5t-28.5 69.5zM641 1098l-164 164l162 162l164 -164z
M211 1099l-164 164l162 163l164 -164zM432 1444l-149 149l148 148l149 -149z" />
    <glyph glyph-name="uni06A4.fina" unicode="&#x6a4;" horiz-adv-x="2110" arabic-form="final" 
d="M1877 242q-5 -4 -11.5 -12t-8.5 -10q130 -24 251 -24q41 0 70 -28.5t29 -69.5q0 -40 -29 -69t-70 -29q-261 0 -471 72q-5 -2 -26 -9l-33 -11q-94 -36 -262 -55t-355 -19q-621 2 -799 305q-23 39 -38 81.5t-21.5 82t-7.5 81.5t3.5 78.5t12.5 73t16.5 65t18.5 55.5
t17.5 43.5t14.5 29.5l6 13l174 -95l-4 -9q-5 -9 -11 -24.5t-14 -36t-15 -46t-13 -53.5t-7.5 -59t0.5 -61t12 -61.5t26 -58.5q61 -102 197 -152.5t376 -55.5q282 -8 477 31q-137 113 -137 264q0 189 111 328q54 67 123 104t144 37q141 0 233 -99q106 -110 106 -303
q0 -175 -85 -294zM1616 293l13 -7q79 45 106.5 106.5t27.5 143.5q0 67 -16.5 111.5t-42.5 62.5t-44.5 23.5t-36.5 5.5q-62 0 -120.5 -77t-58.5 -193q0 -46 44.5 -92.5t127.5 -83.5zM1807 1084l-164 164l162 162l164 -164zM1377 1085l-164 164l162 163l164 -164zM1598 1430
l-149 149l148 148l149 -149z" />
    <glyph glyph-name="uni06A5.init" unicode="&#x6a5;" horiz-adv-x="945" 
d="M428 927q-33 0 -73.5 -58t-55.5 -152q-14 -75 17 -112q41 -51 151 -57q105 -5 173 0q-7 99 -38 185t-81 141q-46 53 -93 53zM-101 98q0 41 29.5 69.5t70.5 28.5q204 0 359.5 35t211.5 79q20 18 37 38h-101q-110 0 -202.5 35t-143.5 100q-83 107 -56 269q27 152 107 254
q92 119 217 119q132 0 240 -117q93 -101 139 -261t29 -321h-1q-6 -40 -17 -81q-24 -110 -126 -189q-93 -74 -277.5 -114t-400.5 -42h-17q-41 0 -69.5 29t-28.5 69zM170 -129l164 -164l-162 -162l-164 164zM601 -130l164 -164l-162 -163l-164 164zM383 -764l-149 149l148 148
l149 -149z" />
    <glyph glyph-name="uni06A5.medi" unicode="&#x6a5;" horiz-adv-x="961" 
d="M461 741q-61 0 -120 -78.5t-59 -193.5q0 -46 44.5 -92t127.5 -84l16 -7q38 22 65 50t40 51t20 55t8 48.5t1 45.5q0 54 -12 94t-28 60.5t-38 32.5t-36.5 15t-28.5 3zM-121 98q0 42 28.5 70t69.5 28q127 0 239 15q-130 114 -130 258q0 190 111 329q54 67 123.5 103.5
t142.5 36.5q140 0 233 -99q107 -116 107 -303q0 -194 -104 -316q119 -24 251 -24q42 0 70.5 -28t28.5 -70q0 -41 -28.5 -69.5t-70.5 -28.5h-9q-125 0 -240 18q-124 20 -224 53q-189 -71 -492 -71h-8q-41 0 -69.5 28.5t-28.5 69.5zM249 -174l164 -164l-162 -162l-164 164z
M680 -175l164 -164l-162 -163l-164 164zM462 -809l-149 149l148 148l149 -149z" />
    <glyph glyph-name="uni06A5.fina" unicode="&#x6a5;" horiz-adv-x="2105" 
d="M1877 242q-5 -4 -11.5 -12t-8.5 -10q130 -24 251 -24q41 0 70 -28.5t29 -69.5q0 -40 -29 -69t-70 -29q-261 0 -471 72q-5 -2 -26 -9l-33 -11q-94 -36 -262 -55t-355 -19q-621 2 -799 305q-23 39 -38 81.5t-21.5 82t-7.5 81.5t3.5 78.5t12.5 73t16.5 65t18.5 55.5
t17.5 43.5t14.5 29.5l6 13l174 -95l-4 -9q-5 -9 -11 -24.5t-14 -36t-15 -46t-13 -53.5t-7.5 -59t0.5 -61t12 -61.5t26 -58.5q61 -102 197 -152.5t376 -55.5q282 -8 477 31q-137 113 -137 264q0 189 111 328q54 67 123 104t144 37q141 0 233 -99q106 -110 106 -303
q0 -175 -85 -294zM1616 293l13 -7q79 45 106.5 106.5t27.5 143.5q0 67 -16.5 111.5t-42.5 62.5t-44.5 23.5t-36.5 5.5q-62 0 -120.5 -77t-58.5 -193q0 -46 44.5 -92.5t127.5 -83.5zM1343 -129l164 -164l-162 -162l-164 164zM1774 -130l164 -164l-162 -163l-164 164z
M1556 -764l-149 149l148 148l149 -149z" />
    <glyph glyph-name="uni06A6.init" unicode="&#x6a6;" horiz-adv-x="966" arabic-form="initial" 
d="M428 927q-33 0 -73.5 -58t-55.5 -152q-14 -75 17 -112q41 -51 151 -57q105 -5 173 0q-7 99 -38 185t-81 141q-46 53 -93 53zM-101 98q0 41 29.5 69.5t70.5 28.5q204 0 359.5 35t211.5 79q20 18 37 38h-101q-110 0 -202.5 35t-143.5 100q-83 107 -56 269q27 152 107 254
q92 119 217 119q132 0 240 -117q93 -101 139 -261t29 -321h-1q-6 -40 -17 -81q-24 -110 -126 -189q-93 -74 -277.5 -114t-400.5 -42h-17q-41 0 -69.5 29t-28.5 69zM599 1609l164 -163l-162 -163l-164 164zM239 1604l164 -164l-162 -162l-164 163zM596 2010l164 -163
l-162 -163l-164 164zM236 2005l164 -164l-162 -162l-164 163z" />
    <glyph glyph-name="uni06A6.medi" unicode="&#x6a6;" horiz-adv-x="956" arabic-form="medial" 
d="M461 741q-61 0 -120 -78.5t-59 -193.5q0 -46 44.5 -92t127.5 -84l16 -7q38 22 65 50t40 51t20 55t8 48.5t1 45.5q0 54 -12 94t-28 60.5t-38 32.5t-36.5 15t-28.5 3zM-121 98q0 42 28.5 70t69.5 28q127 0 239 15q-130 114 -130 258q0 190 111 329q54 67 123.5 103.5
t142.5 36.5q140 0 233 -99q107 -116 107 -303q0 -194 -104 -316q119 -24 251 -24q42 0 70.5 -28t28.5 -70q0 -41 -28.5 -69.5t-70.5 -28.5h-9q-125 0 -240 18q-124 20 -224 53q-189 -71 -492 -71h-8q-41 0 -69.5 28.5t-28.5 69.5zM640 1365l164 -163l-162 -163l-164 164z
M280 1360l164 -164l-162 -162l-164 163zM637 1766l164 -163l-162 -163l-164 164zM277 1761l164 -164l-162 -162l-164 163z" />
    <glyph glyph-name="uni06A6.fina" unicode="&#x6a6;" horiz-adv-x="2105" arabic-form="final" 
d="M1877 242q-5 -4 -11.5 -12t-8.5 -10q130 -24 251 -24q41 0 70 -28.5t29 -69.5q0 -40 -29 -69t-70 -29q-261 0 -471 72q-5 -2 -26 -9l-33 -11q-94 -36 -262 -55t-355 -19q-621 2 -799 305q-23 39 -38 81.5t-21.5 82t-7.5 81.5t3.5 78.5t12.5 73t16.5 65t18.5 55.5
t17.5 43.5t14.5 29.5l6 13l174 -95l-4 -9q-5 -9 -11 -24.5t-14 -36t-15 -46t-13 -53.5t-7.5 -59t0.5 -61t12 -61.5t26 -58.5q61 -102 197 -152.5t376 -55.5q282 -8 477 31q-137 113 -137 264q0 189 111 328q54 67 123 104t144 37q141 0 233 -99q106 -110 106 -303
q0 -175 -85 -294zM1616 293l13 -7q79 45 106.5 106.5t27.5 143.5q0 67 -16.5 111.5t-42.5 62.5t-44.5 23.5t-36.5 5.5q-62 0 -120.5 -77t-58.5 -193q0 -46 44.5 -92.5t127.5 -83.5zM1780 1440l164 -163l-162 -163l-164 164zM1420 1435l164 -164l-162 -162l-164 163z
M1777 1841l164 -163l-162 -163l-164 164zM1417 1836l164 -164l-162 -162l-164 163z" />
    <glyph glyph-name="uni06A7.fina" unicode="&#x6a7;" horiz-adv-x="1632" 
d="M1083 648q-36 0 -78 -53q-53 -64 -77 -190q-15 -92 21 -136q43 -55 177 -69q118 -6 208 -4q-5 121 -43.5 223t-94.5 166q-58 63 -113 63zM1317 -3h-24q-79 0 -179 6q-219 15 -321 143q-91 119 -60 292q27 169 116 279q101 129 234 129q143 0 260 -129q85 -93 134 -229
t54 -289q81 -3 107 -3q41 0 70 -28.5t29 -69.5q0 -40 -29 -69t-70 -29h-9h-111q-24 -145 -88 -271q-81 -157 -214 -251q-167 -115 -398 -115q-197 0 -348 77q-155 77 -241 221q-104 173 -87 401q16 228 154 488l175 -93q-110 -206 -129 -386t56 -307q59 -98 167 -150
t253 -52q301 0 433 252q44 83 66 183zM1063 1420l164 -164l-163 -163l-164 164z" />
    <glyph glyph-name="uni06A8.fina" unicode="&#x6a8;" horiz-adv-x="1627" 
d="M1083 648q-36 0 -78 -53q-53 -64 -77 -190q-15 -92 21 -136q43 -55 177 -69q118 -6 208 -4q-5 121 -43.5 223t-94.5 166q-58 63 -113 63zM1317 -3h-24q-79 0 -179 6q-219 15 -321 143q-91 119 -60 292q27 169 116 279q101 129 234 129q143 0 260 -129q85 -93 134 -229
t54 -289q81 -3 107 -3q41 0 70 -28.5t29 -69.5q0 -40 -29 -69t-70 -29h-9h-111q-24 -145 -88 -271q-81 -157 -214 -251q-167 -115 -398 -115q-197 0 -348 77q-155 77 -241 221q-104 173 -87 401q16 228 154 488l175 -93q-110 -206 -129 -386t56 -307q59 -98 167 -150
t253 -52q301 0 433 252q44 83 66 183zM1265 1021l-164 164l162 162l164 -164zM835 1022l-164 164l162 163l164 -164zM1056 1367l-149 149l148 148l149 -149z" />
    <glyph glyph-name="uni06A9" unicode="&#x6a9;" horiz-adv-x="2182" arabic-form="isolated" 
d="M2116 1703l77 -182l-794 -333q87 -70 136 -115q303 -277 343 -520q32 -178 -79 -320q-54 -75 -180 -135q-139 -63 -295 -82t-348 -13q-363 3 -575 81q-206 81 -280 230q-83 160 -3 374q11 27 23 52.5t23.5 45.5t20 34t16 25t7.5 12l158 -117l-23 -37q-30 -55 -42 -89
q-45 -130 -4 -210q49 -98 225 -150t457 -53q334 -14 535 68q80 33 120 73l3 3l4 7q59 75 42 168q-32 176 -278 404q-27 25 -56 49.5t-53.5 44t-48.5 37.5t-42 31t-31.5 22.5t-20.5 15.5l-7 5l15 173z" />
    <glyph glyph-name="uni06AA.init" unicode="&#x6aa;" horiz-adv-x="2138" 
d="M1151 14l-1219 -14v193q55 0 291 -3t436.5 0.5t480.5 17.5q390 21 726 51q0 1 -1 2l-1 2q-54 93 -131 137q-75 45 -300 30q-37 -3 -77 -6.5t-70 -7t-54.5 -6.5t-38.5 -5l-14 -2l-5 -1q-1 0 -26 -2t-66 -4.5t-91 -5t-114 -3.5t-122 0q-188 3 -304 29q-78 18 -126 48
q-80 50 -86 127v2q-15 164 141 311q110 104 298 194q42 21 88 41t86 35.5t77 29t68.5 23.5t53.5 16.5t37 10.5l15 5l50 -188l-25 94l25 -94l-22 -7q-22 -6 -62 -19t-87.5 -30t-107.5 -42t-113 -51q-153 -75 -238.5 -152t-90.5 -144q83 -45 377 -45h1q186 0 343 15
q130 19 267 28q77 8 144.5 3.5t106 -8t75 -15t51 -18t33.5 -17.5q124 -72 204 -211q19 -33 37 -69.5t27 -56.5l9 -20l-81 -134l-45 -4q-45 -5 -128.5 -12t-187 -15t-242.5 -17t-272 -16z" />
    <glyph glyph-name="uni06AA.medi" unicode="&#x6aa;" horiz-adv-x="2665" 
d="M2310 297q84 -103 375 -103v-194q-156 0 -331 45q-36 10 -79 24h-1q-5 -1 -115.5 -11t-328.5 -26.5t-431 -27.5q-89 -5 -189.5 -7t-168 -1.5t-173.5 1t-153 0.5q-164 0 -397 2t-341 2v195q575 -4 1412 3q105 1 222.5 7.5t190 12.5t179 17t132.5 13q-1 2 -3 6.5t-3 6.5
q-68 112 -121 143q-62 31 -305 15q-60 -4 -122.5 -10.5t-96 -11t-35.5 -5.5h-5q-12 -2 -64 -5.5t-156.5 -7.5t-197.5 -3q-189 3 -305 29q-78 18 -126 48q-77 48 -86 128v1q-15 165 141 311q104 99 298 195q93 45 199.5 85t158.5 56t67 19l25 -94l26 -93l-12 -4
q-12 -3 -33.5 -9.5t-49.5 -16t-64 -22.5t-73 -27t-79.5 -32.5t-81.5 -37.5q-153 -75 -238.5 -152t-90.5 -144q88 -46 377 -46h1q179 0 344 15q132 20 267 28q307 20 413 -40q103 -58 200 -225q20 -36 28 -52z" />
    <glyph glyph-name="uni06AA.fina" unicode="&#x6aa;" horiz-adv-x="2717" 
d="M2365 297q84 -103 375 -103v-194q-156 0 -331 45q-68 18 -81 24h1q-5 -1 -115.5 -11t-328.5 -26.5t-431 -27.5q-373 -19 -689 -19q-464 0 -740 45l32 192q438 -72 1387 -23q375 19 724 50q-1 2 -3 6.5t-3 6.5q-68 112 -121 143q-62 31 -305 15q-60 -4 -122.5 -10.5
t-96 -11t-35.5 -5.5h-5q-12 -2 -64 -5.5t-156.5 -7.5t-197.5 -3q-189 3 -305 29q-78 18 -126 48q-77 48 -86 128v1q-15 165 141 311q104 99 298 195q93 45 199.5 85t158.5 56t67 19l25 -94l26 -93l-12 -4q-12 -3 -33.5 -9.5t-49.5 -16t-64 -22.5t-73 -27t-79.5 -32.5
t-81.5 -37.5q-153 -75 -238.5 -152t-90.5 -144q88 -46 377 -46h1q179 0 344 15q132 20 267 28q307 20 413 -40q103 -58 200 -225q20 -36 28 -52z" />
    <glyph glyph-name="uni06AB.init" unicode="&#x6ab;" horiz-adv-x="1246" 
d="M-103 97q0 41 29.5 70t70.5 29h14q71 0 214 1q21 0 69 -1t74.5 -0.5t69 2.5t69.5 9t58.5 19t54.5 32.5t39 48.5q60 103 12 237q-43 125 -169 263q-123 134 -300 262l-31 21l16 175l955 399l77 -182l-794 -333q140 -119 222 -209q87 -97 143 -191t77.5 -169t21.5 -147.5
t-15.5 -125.5t-42.5 -103q-90 -159 -301 -198q-38 -7 -87 -7l-438 1h-8q-41 0 -70.5 28.5t-29.5 68.5zM350 1688q37 0 66 36.5t29 76.5q0 39 -29 75.5t-66 36.5q-38 0 -67 -36.5t-29 -75.5q0 -40 29 -76.5t67 -36.5zM350 2020q83 0 145 -72q56 -65 56 -147t-56 -147
q-62 -73 -145 -73q-84 0 -146 73q-56 65 -56 147t56 147q62 72 146 72z" />
    <glyph glyph-name="uni06AB.medi" unicode="&#x6ab;" horiz-adv-x="1369" 
d="M-93 98q0 40 29 69t70 29h9l465 1q64 0 112 39q67 56 85 151q17 90 -31 198q-67 150 -256 326q-103 94 -222 178q-6 3 -7 5h-2v2l16 171l954 401l77 -182l-793 -333q191 -158 302 -302q58 -78 99 -161q15 -27 33 -73q13 -42 16 -50q41 -100 77 -160q66 -111 128 -151
q33 -24 71 -37q60 -22 122 -23h116q41 0 69.5 -28.5t28.5 -69.5t-28.5 -69.5t-69.5 -28.5h-8q-175 0 -223 12q-56 14 -84 23q-70 27 -136 79q-31 24 -58 55l-19 21q-3 3 -7.5 9.5t-8 11t-7.5 8.5q-35 -64 -86 -112q-54 -49 -138 -79q-49 -18 -83 -23q-14 -3 -87 -5h-426
q-41 0 -70 28.5t-29 69.5zM84 1725q37 0 66 36.5t29 76.5q0 39 -29 75.5t-66 36.5q-38 0 -67 -36.5t-29 -75.5q0 -40 29 -76.5t67 -36.5zM84 2057q83 0 145 -72q56 -65 56 -147t-56 -147q-62 -73 -145 -73q-84 0 -146 73q-56 65 -56 147t56 147q62 72 146 72z" />
    <glyph glyph-name="uni06AB.fina" unicode="&#x6ab;" horiz-adv-x="2378" 
d="M2353 196h8q41 0 69.5 -28.5t28.5 -69.5t-28.5 -69.5t-69.5 -28.5q-167 0 -303.5 64t-224.5 186q-52 -89 -194 -156q-209 -94 -549 -94h-92q-106 0 -201 9q-158 11 -285 46q-23 6 -81 27t-75 29q-61 31 -106 69q-62 48 -108 133q-1 1 -1 4q-84 179 -2 369q32 73 90 170
l158 -118q-52 -88 -64 -126q-46 -127 -4 -210q78 -155 457 -194q116 -9 231 -9q333 -13 527 66q41 17 71 35.5t40.5 28.5t11.5 13q81 107 25 246v2q-59 148 -260 333q-113 104 -235 186l-21 16l15 173l955 401l75 -182l-792 -334q69 -54 136 -114q228 -206 308 -402
q17 -39 33 -86q17 -49 28.5 -79t34.5 -75t47.5 -75.5t63 -63t85.5 -54.5q79 -37 198 -38zM1125 1727q37 0 66 36.5t29 76.5q0 39 -29 75.5t-66 36.5q-38 0 -67 -36.5t-29 -75.5q0 -40 29 -76.5t67 -36.5zM1125 2059q83 0 145 -72q56 -65 56 -147t-56 -147q-62 -73 -145 -73
q-84 0 -146 73q-56 65 -56 147t56 147q62 72 146 72z" />
    <glyph glyph-name="uni06AC.init" unicode="&#x6ac;" horiz-adv-x="1240" 
d="M-103 97q0 41 29.5 70t70.5 29h14q71 0 214 1q21 0 69 -1t74.5 -0.5t69 2.5t69.5 9t58.5 19t54.5 32.5t39 48.5q60 103 12 237q-43 125 -169 263q-123 134 -300 262l-31 21l16 175l955 399l77 -182l-794 -333q140 -119 222 -209q87 -97 143 -191t77.5 -169t21.5 -147.5
t-15.5 -125.5t-42.5 -103q-90 -159 -301 -198q-38 -7 -87 -7l-438 1h-8q-41 0 -70.5 28.5t-29.5 68.5zM281 1802l164 -164l-163 -163l-164 164z" />
    <glyph glyph-name="uni06AC.medi" unicode="&#x6ac;" horiz-adv-x="1380" 
d="M-93 98q0 40 29 69t70 29h9l465 1q64 0 112 39q67 56 85 151q17 90 -31 198q-67 150 -256 326q-103 94 -222 178q-6 3 -7 5h-2v2l16 171l954 401l77 -182l-793 -333q191 -158 302 -302q58 -78 99 -161q15 -27 33 -73q13 -42 16 -50q41 -100 77 -160q66 -111 128 -151
q33 -24 71 -37q60 -22 122 -23h116q41 0 69.5 -28.5t28.5 -69.5t-28.5 -69.5t-69.5 -28.5h-8q-175 0 -223 12q-56 14 -84 23q-70 27 -136 79q-31 24 -58 55l-19 21q-3 3 -7.5 9.5t-8 11t-7.5 8.5q-35 -64 -86 -112q-54 -49 -138 -79q-49 -18 -83 -23q-14 -3 -87 -5h-426
q-41 0 -70 28.5t-29 69.5zM271 1807l164 -164l-163 -163l-164 164z" />
    <glyph glyph-name="uni06AC.fina" unicode="&#x6ac;" horiz-adv-x="2060" 
d="M1103 982l-28 -92q-41 13 -92 13q-34 0 -62 -12v2q-32 -13 -51.5 -42t-19.5 -62q0 -17 8 -36l-1 1q15 -35 50.5 -58.5t77.5 -23.5q26 0 42 7q31 10 66 29t54 32l19 14l59 -78q-51 -37 -242 -142l-227 -126l-48 87l179 100q-40 17 -72 49t-49 71q-14 34 -14 74
q0 62 36.5 115.5t96.5 77.5q47 19 98 19q27 0 57 -4.5t46 -9.5zM1909 284q22 -44 59.5 -66t111.5 -22v-196q-122 0 -207 47q-87 51 -136 145q-81 -82 -211 -133q-224 -87 -573 -87q-361 5 -575 84q-206 78 -280 229q-83 162 -3 374q13 33 29 66t27.5 52t22.5 35l10 17
l159 -118q-14 -19 -23 -36q-27 -49 -42 -90q-46 -127 -4 -210q49 -98 224 -150.5t455 -53.5q321 0 500 71q135 55 182 143q25 45 27 115q-1 36 -10.5 180t-14.5 251q-12 361 -35 543l196 21q27 -280 38 -557q2 -53 9 -136t8 -113h1v-46q1 -45 3 -86q9 -188 52 -273z
M949 1397l164 -164l-163 -163l-164 164z" />
    <glyph glyph-name="uni06AD.init" unicode="&#x6ad;" horiz-adv-x="1246" arabic-form="initial" 
d="M-103 97q0 41 29.5 70t70.5 29h14q71 0 214 1q21 0 69 -1t74.5 -0.5t69 2.5t69.5 9t58.5 19t54.5 32.5t39 48.5q60 103 12 237q-43 125 -169 263q-123 134 -300 262l-31 21l16 175l955 399l77 -182l-794 -333q140 -119 222 -209q87 -97 143 -191t77.5 -169t21.5 -147.5
t-15.5 -125.5t-42.5 -103q-90 -159 -301 -198q-38 -7 -87 -7l-438 1h-8q-41 0 -70.5 28.5t-29.5 68.5zM372 1464l-117 117l116 116l117 -117zM119 1465l-117 117l116 116l117 -117zM239 1661l-117 117l116 116l117 -117z" />
    <glyph glyph-name="uni06AD.medi" unicode="&#x6ad;" horiz-adv-x="1369" arabic-form="medial" 
d="M-93 98q0 40 29 69t70 29h9l465 1q64 0 112 39q67 56 85 151q17 90 -31 198q-67 150 -256 326q-103 94 -222 178q-6 3 -7 5h-2v2l16 171l954 401l77 -182l-793 -333q191 -158 302 -302q58 -78 99 -161q15 -27 33 -73q13 -42 16 -50q41 -100 77 -160q66 -111 128 -151
q33 -24 71 -37q60 -22 122 -23h116q41 0 69.5 -28.5t28.5 -69.5t-28.5 -69.5t-69.5 -28.5h-8q-175 0 -223 12q-56 14 -84 23q-70 27 -136 79q-31 24 -58 55l-19 21q-3 3 -7.5 9.5t-8 11t-7.5 8.5q-35 -64 -86 -112q-54 -49 -138 -79q-49 -18 -83 -23q-14 -3 -87 -5h-426
q-41 0 -70 28.5t-29 69.5zM372 1475l-117 117l116 116l117 -117zM119 1476l-117 117l116 116l117 -117zM239 1672l-117 117l116 116l117 -117z" />
    <glyph glyph-name="uni06AD.fina" unicode="&#x6ad;" horiz-adv-x="2071" arabic-form="final" 
d="M1103 982l-28 -92q-41 13 -92 13q-34 0 -62 -12v2q-32 -13 -51.5 -42t-19.5 -62q0 -17 8 -36l-1 1q15 -35 50.5 -58.5t77.5 -23.5q26 0 42 7q31 10 66 29t54 32l19 14l59 -78q-51 -37 -242 -142l-227 -126l-48 87l179 100q-40 17 -72 49t-49 71q-14 34 -14 74
q0 62 36.5 115.5t96.5 77.5q47 19 98 19q27 0 57 -4.5t46 -9.5zM1909 284q22 -44 59.5 -66t111.5 -22v-196q-122 0 -207 47q-87 51 -136 145q-81 -82 -211 -133q-224 -87 -573 -87q-361 5 -575 84q-206 78 -280 229q-83 162 -3 374q13 33 29 66t27.5 52t22.5 35l10 17
l159 -118q-14 -19 -23 -36q-27 -49 -42 -90q-46 -127 -4 -210q49 -98 224 -150.5t455 -53.5q321 0 500 71q135 55 182 143q25 45 27 115q-1 36 -10.5 180t-14.5 251q-12 361 -35 543l196 21q27 -280 38 -557q2 -53 9 -136t8 -113h1v-46q1 -45 3 -86q9 -188 52 -273z
M1165 1051l-164 164l162 162l164 -164zM735 1052l-164 164l162 163l164 -164zM956 1397l-149 149l148 148l149 -149z" />
    <glyph glyph-name="uni06AE.init" unicode="&#x6ae;" horiz-adv-x="1246" 
d="M-103 97q0 41 29.5 70t70.5 29h14q71 0 214 1q21 0 69 -1t74.5 -0.5t69 2.5t69.5 9t58.5 19t54.5 32.5t39 48.5q60 103 12 237q-43 125 -169 263q-123 134 -300 262l-31 21l16 175l955 399l77 -182l-794 -333q140 -119 222 -209q87 -97 143 -191t77.5 -169t21.5 -147.5
t-15.5 -125.5t-42.5 -103q-90 -159 -301 -198q-38 -7 -87 -7l-438 1h-8q-41 0 -70.5 28.5t-29.5 68.5zM211 -122l164 -164l-162 -162l-164 164zM642 -123l164 -164l-162 -163l-164 164zM424 -757l-149 149l148 148l149 -149z" />
    <glyph glyph-name="uni06AE.medi" unicode="&#x6ae;" horiz-adv-x="1380" 
d="M-93 98q0 40 29 69t70 29h9l465 1q64 0 112 39q67 56 85 151q17 90 -31 198q-67 150 -256 326q-103 94 -222 178q-6 3 -7 5h-2v2l16 171l954 401l77 -182l-793 -333q191 -158 302 -302q58 -78 99 -161q15 -27 33 -73q13 -42 16 -50q41 -100 77 -160q66 -111 128 -151
q33 -24 71 -37q60 -22 122 -23h116q41 0 69.5 -28.5t28.5 -69.5t-28.5 -69.5t-69.5 -28.5h-8q-175 0 -223 12q-56 14 -84 23q-70 27 -136 79q-31 24 -58 55l-19 21q-3 3 -7.5 9.5t-8 11t-7.5 8.5q-35 -64 -86 -112q-54 -49 -138 -79q-49 -18 -83 -23q-14 -3 -87 -5h-426
q-41 0 -70 28.5t-29 69.5zM418 -131l164 -164l-162 -162l-164 164zM849 -132l164 -164l-162 -163l-164 164zM631 -766l-149 149l148 148l149 -149z" />
    <glyph glyph-name="uni06AE.fina" unicode="&#x6ae;" horiz-adv-x="2065" 
d="M1103 982l-28 -92q-41 13 -92 13q-34 0 -62 -12v2q-32 -13 -51.5 -42t-19.5 -62q0 -17 8 -36l-1 1q15 -35 50.5 -58.5t77.5 -23.5q26 0 42 7q31 10 66 29t54 32l19 14l59 -78q-51 -37 -242 -142l-227 -126l-48 87l179 100q-40 17 -72 49t-49 71q-14 34 -14 74
q0 62 36.5 115.5t96.5 77.5q47 19 98 19q27 0 57 -4.5t46 -9.5zM1909 284q22 -44 59.5 -66t111.5 -22v-196q-122 0 -207 47q-87 51 -136 145q-81 -82 -211 -133q-224 -87 -573 -87q-361 5 -575 84q-206 78 -280 229q-83 162 -3 374q13 33 29 66t27.5 52t22.5 35l10 17
l159 -118q-14 -19 -23 -36q-27 -49 -42 -90q-46 -127 -4 -210q49 -98 224 -150.5t455 -53.5q321 0 500 71q135 55 182 143q25 45 27 115q-1 36 -10.5 180t-14.5 251q-12 361 -35 543l196 21q27 -280 38 -557q2 -53 9 -136t8 -113h1v-46q1 -45 3 -86q9 -188 52 -273z
M731 -125l164 -164l-162 -162l-164 164zM1162 -126l164 -164l-162 -163l-164 164zM944 -760l-149 149l148 148l149 -149z" />
    <glyph glyph-name="uni06AF" unicode="&#x6af;" horiz-adv-x="2212" arabic-form="isolated" 
d="M2116 1700l77 -182l-794 -333q87 -70 136 -115q303 -277 343 -520q32 -178 -79 -320q-54 -75 -180 -135q-139 -63 -295 -82t-348 -13q-363 3 -575 81q-206 81 -280 230q-83 160 -3 374q11 27 23 52.5t23.5 45.5t20 34t16 25t7.5 12l158 -117l-23 -37q-30 -55 -42 -89
q-45 -130 -4 -210q49 -98 225 -150t457 -53q334 -14 535 68q80 33 120 73l3 3l4 7q59 75 42 168q-32 176 -278 404q-27 25 -56 49.5t-53.5 44t-48.5 37.5t-42 31t-31.5 22.5t-20.5 14.5l-7 6l15 173zM1993 1972l47 -101l-925 -394l7 128z" />
    <glyph glyph-name="uni06B0.init" unicode="&#x6b0;" horiz-adv-x="1251" 
d="M-103 97q0 41 29.5 70t70.5 29h14q71 0 214 1q21 0 69 -1t74.5 -0.5t69 2.5t69.5 9t58.5 19t54.5 32.5t39 48.5q60 103 12 237q-43 125 -169 263q-123 134 -300 262l-31 21l16 175l955 399l77 -182l-794 -333q140 -119 222 -209q87 -97 143 -191t77.5 -169t21.5 -147.5
t-15.5 -125.5t-42.5 -103q-90 -159 -301 -198q-38 -7 -87 -7l-438 1h-8q-41 0 -70.5 28.5t-29.5 68.5zM215 2045q37 0 66 36.5t29 76.5q0 39 -29 75.5t-66 36.5q-38 0 -67 -36.5t-29 -75.5q0 -40 29 -76.5t67 -36.5zM215 2377q83 0 145 -72q56 -65 56 -147t-56 -147
q-62 -73 -145 -73q-84 0 -146 73q-56 65 -56 147t56 147q62 72 146 72zM1023 1966l47 -101l-925 -394l7 128z" />
    <glyph glyph-name="uni06B0.medi" unicode="&#x6b0;" horiz-adv-x="1401" 
d="M-84 98q0 40 29 69t70 29h9l465 1q64 0 112 39q67 56 85 151q17 90 -31 198q-67 150 -256 326q-103 94 -222 178q-6 3 -7 5h-2v2l16 171l954 401l77 -182l-793 -333q191 -158 302 -302q58 -78 99 -161q15 -27 33 -73q12 -42 16 -50q41 -100 77 -160q66 -111 128 -151
q33 -24 71 -37q60 -22 122 -23h116q41 0 69.5 -28.5t28.5 -69.5t-28.5 -69.5t-69.5 -28.5h-8q-175 0 -223 12q-56 14 -84 23q-70 27 -136 79q-31 24 -58 55l-19 21q-3 3 -7.5 9.5t-8 11t-7.5 8.5q-35 -64 -86 -112q-54 -49 -138 -79q-49 -18 -83 -23q-14 -3 -87 -5h-426
q-41 0 -70 28.5t-29 69.5zM235 2034q37 0 66 36.5t29 76.5q0 39 -29 75.5t-66 36.5q-38 0 -67 -36.5t-29 -75.5q0 -40 29 -76.5t67 -36.5zM235 2366q83 0 145 -72q56 -65 56 -147t-56 -147q-62 -73 -145 -73q-84 0 -146 73q-56 65 -56 147t56 147q62 72 146 72zM996 1966
l47 -101l-925 -394l7 128z" />
    <glyph glyph-name="uni06B0.fina" unicode="&#x6b0;" horiz-adv-x="2368" 
d="M2353 196h8q41 0 69.5 -28.5t28.5 -69.5t-28.5 -69.5t-69.5 -28.5q-167 0 -303.5 64t-224.5 186q-52 -89 -194 -156q-209 -94 -549 -94h-92q-106 0 -201 9q-158 11 -285 46q-23 6 -81 27t-75 29q-61 31 -106 69q-62 48 -108 133q-1 1 -1 4q-84 179 -2 369q32 73 90 170
l158 -118q-52 -88 -64 -126q-46 -127 -4 -210q78 -155 457 -194q116 -9 231 -9q333 -13 527 66q41 17 71 35.5t40.5 28.5t11.5 13q81 107 25 246v2q-59 148 -260 333q-113 104 -235 186l-21 16l15 173l955 401l75 -182l-792 -334q69 -54 136 -114q228 -206 308 -402
q17 -39 33 -86q17 -49 28.5 -79t34.5 -75t47.5 -75.5t63 -63t85.5 -54.5q79 -37 198 -38zM1296 2051q37 0 66 36.5t29 76.5q0 39 -29 75.5t-66 36.5q-38 0 -67 -36.5t-29 -75.5q0 -40 29 -76.5t67 -36.5zM1296 2383q83 0 145 -72q56 -65 56 -147t-56 -147q-62 -73 -145 -73
q-84 0 -146 73q-56 65 -56 147t56 147q62 72 146 72zM1964 1977l47 -101l-925 -394l7 128z" />
    <glyph glyph-name="uni06B1.init" unicode="&#x6b1;" horiz-adv-x="1278" arabic-form="initial" 
d="M-103 97q0 41 29.5 70t70.5 29h14q71 0 214 1q21 0 69 -1t74.5 -0.5t69 2.5t69.5 9t58.5 19t54.5 32.5t39 48.5q60 103 12 237q-43 125 -169 263q-123 134 -300 262l-31 21l16 175l955 399l77 -182l-794 -333q140 -119 222 -209q87 -97 143 -191t77.5 -169t21.5 -147.5
t-15.5 -125.5t-42.5 -103q-90 -159 -301 -198q-38 -7 -87 -7l-438 1h-8q-41 0 -70.5 28.5t-29.5 68.5zM254 2006l117 -117l-116 -116l-117 117zM489 2005l117 -117l-116 -116l-117 117zM1008 1962l47 -101l-925 -394l7 128z" />
    <glyph glyph-name="uni06B1.medi" unicode="&#x6b1;" horiz-adv-x="1407" arabic-form="medial" 
d="M-66 98q0 40 29 69t70 29h9l465 1q64 0 112 39q67 56 85 151q17 90 -31 198q-67 150 -256 326q-103 94 -222 178q-6 3 -7 5h-2v2l16 171l954 401l77 -182l-793 -333q191 -158 302 -302q58 -78 99 -161q15 -27 33 -73q12 -42 16 -50q41 -100 77 -160q66 -111 128 -151
q33 -24 71 -37q60 -22 122 -23h116q41 0 69.5 -28.5t28.5 -69.5t-28.5 -69.5t-69.5 -28.5h-8q-175 0 -223 12q-56 14 -84 23q-70 27 -136 79q-31 24 -58 55l-19 21q-3 3 -7.5 9.5t-8 11t-7.5 8.5q-35 -64 -86 -112q-54 -49 -138 -79q-49 -18 -83 -23q-14 -3 -87 -5h-426
q-41 0 -70 28.5t-29 69.5zM274 2060l117 -117l-116 -116l-117 117zM509 2059l117 -117l-116 -116l-117 117zM1028 1976l47 -101l-925 -394l7 128z" />
    <glyph glyph-name="uni06B1.fina" unicode="&#x6b1;" horiz-adv-x="2368" arabic-form="final" 
d="M2353 196h8q41 0 69.5 -28.5t28.5 -69.5t-28.5 -69.5t-69.5 -28.5q-167 0 -303.5 64t-224.5 186q-52 -89 -194 -156q-209 -94 -549 -94h-92q-106 0 -201 9q-158 11 -285 46q-23 6 -81 27t-75 29q-61 31 -106 69q-62 48 -108 133q-1 1 -1 4q-84 179 -2 369q32 73 90 170
l158 -118q-52 -88 -64 -126q-46 -127 -4 -210q78 -155 457 -194q116 -9 231 -9q333 -13 527 66q41 17 71 35.5t40.5 28.5t11.5 13q81 107 25 246v2q-59 148 -260 333q-113 104 -235 186l-21 16l15 173l955 401l75 -182l-792 -334q69 -54 136 -114q228 -206 308 -402
q17 -39 33 -86q17 -49 28.5 -79t34.5 -75t47.5 -75.5t63 -63t85.5 -54.5q79 -37 198 -38zM1362 2103l117 -117l-116 -116l-117 117zM1597 2102l117 -117l-116 -116l-117 117zM1984 1986l47 -101l-925 -394l7 128z" />
    <glyph glyph-name="uni06B2.init" unicode="&#x6b2;" horiz-adv-x="1246" 
d="M-103 97q0 41 29.5 70t70.5 29h14q71 0 214 1q21 0 69 -1t74.5 -0.5t69 2.5t69.5 9t58.5 19t54.5 32.5t39 48.5q60 103 12 237q-43 125 -169 263q-123 134 -300 262l-31 21l16 175l955 399l77 -182l-794 -333q140 -119 222 -209q87 -97 143 -191t77.5 -169t21.5 -147.5
t-15.5 -125.5t-42.5 -103q-90 -159 -301 -198q-38 -7 -87 -7l-438 1h-8q-41 0 -70.5 28.5t-29.5 68.5zM1007 1970l47 -101l-925 -394l7 128zM275 -199l164 -164l-162 -162l-164 163zM646 -201l164 -163l-162 -163l-164 164z" />
    <glyph glyph-name="uni06B2.medi" unicode="&#x6b2;" horiz-adv-x="1374" 
d="M-93 98q0 40 29 69t70 29h9l465 1q64 0 112 39q67 56 85 151q17 90 -31 198q-67 150 -256 326q-103 94 -222 178q-6 3 -7 5h-2v2l16 171l954 401l77 -182l-793 -333q191 -158 302 -302q58 -78 99 -161q15 -27 33 -73q13 -42 16 -50q41 -100 77 -160q66 -111 128 -151
q33 -24 71 -37q60 -22 122 -23h116q41 0 69.5 -28.5t28.5 -69.5t-28.5 -69.5t-69.5 -28.5h-8q-175 0 -223 12q-56 14 -84 23q-70 27 -136 79q-31 24 -58 55l-19 21q-3 3 -7.5 9.5t-8 11t-7.5 8.5q-35 -64 -86 -112q-54 -49 -138 -79q-49 -18 -83 -23q-14 -3 -87 -5h-426
q-41 0 -70 28.5t-29 69.5zM995 1965l47 -101l-925 -394l7 128zM464 -199l164 -164l-162 -162l-164 163zM835 -201l164 -163l-162 -163l-164 164z" />
    <glyph glyph-name="uni06B2.fina" unicode="&#x6b2;" horiz-adv-x="2362" 
d="M2353 196h8q41 0 69.5 -28.5t28.5 -69.5t-28.5 -69.5t-69.5 -28.5q-167 0 -303.5 64t-224.5 186q-52 -89 -194 -156q-209 -94 -549 -94h-92q-106 0 -201 9q-158 11 -285 46q-23 6 -81 27t-75 29q-61 31 -106 69q-62 48 -108 133q-1 1 -1 4q-84 179 -2 369q32 73 90 170
l158 -118q-52 -88 -64 -126q-46 -127 -4 -210q78 -155 457 -194q116 -9 231 -9q333 -13 527 66q41 17 71 35.5t40.5 28.5t11.5 13q81 107 25 246v2q-59 148 -260 333q-113 104 -235 186l-21 16l15 173l955 401l75 -182l-792 -334q69 -54 136 -114q228 -206 308 -402
q17 -39 33 -86q17 -49 28.5 -79t34.5 -75t47.5 -75.5t63 -63t85.5 -54.5q79 -37 198 -38zM1954 1974l47 -101l-925 -394l7 128zM763 -199l164 -164l-162 -162l-164 163zM1134 -201l164 -163l-162 -163l-164 164z" />
    <glyph glyph-name="uni06B3.init" unicode="&#x6b3;" horiz-adv-x="1256" arabic-form="initial" 
d="M-103 97q0 41 29.5 70t70.5 29h14q71 0 214 1q21 0 69 -1t74.5 -0.5t69 2.5t69.5 9t58.5 19t54.5 32.5t39 48.5q60 103 12 237q-43 125 -169 263q-123 134 -300 262l-31 21l16 175l955 399l77 -182l-794 -333q140 -119 222 -209q87 -97 143 -191t77.5 -169t21.5 -147.5
t-15.5 -125.5t-42.5 -103q-90 -159 -301 -198q-38 -7 -87 -7l-438 1h-8q-41 0 -70.5 28.5t-29.5 68.5zM1007 1965l47 -101l-925 -394l7 128zM371 -129l164 -164l-163 -163l-164 164zM380 -528l164 -164l-163 -163l-164 164z" />
    <glyph glyph-name="uni06B3.medi" unicode="&#x6b3;" horiz-adv-x="1380" arabic-form="medial" 
d="M-93 98q0 40 29 69t70 29h9l465 1q64 0 112 39q67 56 85 151q17 90 -31 198q-67 150 -256 326q-103 94 -222 178q-6 3 -7 5h-2v2l16 171l954 401l77 -182l-793 -333q191 -158 302 -302q58 -78 99 -161q15 -27 33 -73q13 -42 16 -50q41 -100 77 -160q66 -111 128 -151
q33 -24 71 -37q60 -22 122 -23h116q41 0 69.5 -28.5t28.5 -69.5t-28.5 -69.5t-69.5 -28.5h-8q-175 0 -223 12q-56 14 -84 23q-70 27 -136 79q-31 24 -58 55l-19 21q-3 3 -7.5 9.5t-8 11t-7.5 8.5q-35 -64 -86 -112q-54 -49 -138 -79q-49 -18 -83 -23q-14 -3 -87 -5h-426
q-41 0 -70 28.5t-29 69.5zM996 1966l47 -101l-925 -394l7 128zM607 -129l164 -164l-163 -163l-164 164zM616 -528l164 -164l-163 -163l-164 164z" />
    <glyph glyph-name="uni06B3.fina" unicode="&#x6b3;" horiz-adv-x="2357" arabic-form="final" 
d="M2353 196h8q41 0 69.5 -28.5t28.5 -69.5t-28.5 -69.5t-69.5 -28.5q-167 0 -303.5 64t-224.5 186q-52 -89 -194 -156q-209 -94 -549 -94h-92q-106 0 -201 9q-158 11 -285 46q-23 6 -81 27t-75 29q-61 31 -106 69q-62 48 -108 133q-1 1 -1 4q-84 179 -2 369q32 73 90 170
l158 -118q-52 -88 -64 -126q-46 -127 -4 -210q78 -155 457 -194q116 -9 231 -9q333 -13 527 66q41 17 71 35.5t40.5 28.5t11.5 13q81 107 25 246v2q-59 148 -260 333q-113 104 -235 186l-21 16l15 173l955 401l75 -182l-792 -334q69 -54 136 -114q228 -206 308 -402
q17 -39 33 -86q17 -49 28.5 -79t34.5 -75t47.5 -75.5t63 -63t85.5 -54.5q79 -37 198 -38zM1965 1980l47 -101l-925 -394l7 128zM916 -129l164 -164l-163 -163l-164 164zM925 -528l164 -164l-163 -163l-164 164z" />
    <glyph glyph-name="uni06B4.init" unicode="&#x6b4;" horiz-adv-x="1256" 
d="M-103 97q0 41 29.5 70t70.5 29h14q71 0 214 1q21 0 69 -1t74.5 -0.5t69 2.5t69.5 9t58.5 19t54.5 32.5t39 48.5q60 103 12 237q-43 125 -169 263q-123 134 -300 262l-31 21l16 175l955 399l77 -182l-794 -333q140 -119 222 -209q87 -97 143 -191t77.5 -169t21.5 -147.5
t-15.5 -125.5t-42.5 -103q-90 -159 -301 -198q-38 -7 -87 -7l-438 1h-8q-41 0 -70.5 28.5t-29.5 68.5zM1018 1971l47 -101l-925 -394l7 128zM503 1798l-117 117l116 116l117 -117zM250 1799l-117 117l116 116l117 -117zM370 1995l-117 117l116 116l117 -117z" />
    <glyph glyph-name="uni06B4.medi" unicode="&#x6b4;" horiz-adv-x="1380" 
d="M-93 98q0 40 29 69t70 29h9l465 1q64 0 112 39q67 56 85 151q17 90 -31 198q-67 150 -256 326q-103 94 -222 178q-6 3 -7 5h-2v2l16 171l954 401l77 -182l-793 -333q191 -158 302 -302q58 -78 99 -161q15 -27 33 -73q13 -42 16 -50q41 -100 77 -160q66 -111 128 -151
q33 -24 71 -37q60 -22 122 -23h116q41 0 69.5 -28.5t28.5 -69.5t-28.5 -69.5t-69.5 -28.5h-8q-175 0 -223 12q-56 14 -84 23q-70 27 -136 79q-31 24 -58 55l-19 21q-3 3 -7.5 9.5t-8 11t-7.5 8.5q-35 -64 -86 -112q-54 -49 -138 -79q-49 -18 -83 -23q-14 -3 -87 -5h-426
q-41 0 -70 28.5t-29 69.5zM1001 1965l47 -101l-925 -394l7 128zM468 1788l-117 117l116 116l117 -117zM215 1789l-117 117l116 116l117 -117zM335 1985l-117 117l116 116l117 -117z" />
    <glyph glyph-name="uni06B4.fina" unicode="&#x6b4;" horiz-adv-x="2357" 
d="M2353 196h8q41 0 69.5 -28.5t28.5 -69.5t-28.5 -69.5t-69.5 -28.5q-167 0 -303.5 64t-224.5 186q-52 -89 -194 -156q-209 -94 -549 -94h-92q-106 0 -201 9q-158 11 -285 46q-23 6 -81 27t-75 29q-61 31 -106 69q-62 48 -108 133q-1 1 -1 4q-84 179 -2 369q32 73 90 170
l158 -118q-52 -88 -64 -126q-46 -127 -4 -210q78 -155 457 -194q116 -9 231 -9q333 -13 527 66q41 17 71 35.5t40.5 28.5t11.5 13q81 107 25 246v2q-59 148 -260 333q-113 104 -235 186l-21 16l15 173l955 401l75 -182l-792 -334q69 -54 136 -114q228 -206 308 -402
q17 -39 33 -86q17 -49 28.5 -79t34.5 -75t47.5 -75.5t63 -63t85.5 -54.5q79 -37 198 -38zM1974 1977l47 -101l-925 -394l7 128zM1567 1811l-117 117l116 116l117 -117zM1314 1812l-117 117l116 116l117 -117zM1434 2008l-117 117l116 116l117 -117z" />
    <glyph glyph-name="uni06B5.init" unicode="&#x6b5;" horiz-adv-x="714" 
d="M-96 98q0 41 28.5 69.5t69.5 28.5h9h104q113 0 161 48q52 54 51 206v26q0 59 -17 464q-12 361 -35 543l196 21q27 -280 38 -557q15 -450 15 -469t1 -26q5 -233 -107 -347q-105 -105 -303 -105h-104h-9q-40 0 -69 29t-29 69zM303 1636l-105 6q-39 124 -92 229.5
t-101 139.5l64 92q74 -51 146 -197q23 -47 38 -86q3 7 5.5 15.5t5.5 18t5 14.5q26 78 41 117.5t43 90t61 81.5l77 -82q-23 -23 -45 -65t-34.5 -75t-35.5 -102q-42 -127 -73 -197z" />
    <glyph glyph-name="uni06B5.medi" unicode="&#x6b5;" horiz-adv-x="725" 
d="M-106 98q0 40 29 69t69 29h9h112q102 4 128 26q45 35 53 171v33q1 32 2 83.5t2 121.5t1.5 149.5t1 164t-0.5 168.5t-2.5 159t-5 140t-8.5 107l195 25q10 -77 15 -217.5t5.5 -295t-1 -289t-3.5 -242.5t-2 -111q0 -73 31 -122q22 -34 66 -52.5t132 -18.5q41 0 70.5 -29
t29.5 -69q0 -41 -29.5 -69.5t-70.5 -28.5q-141 0 -206 25.5t-114 77.5q-22 -24 -38 -36q-83 -67 -228 -67h-135h-9q-41 0 -69.5 28.5t-28.5 69.5zM367 1657l-105 6q-39 124 -92 229.5t-101 139.5l64 92q74 -51 146 -197q23 -47 38 -86q3 7 5.5 15.5t5.5 18t5 14.5
q26 78 41 117.5t43 90t61 81.5l77 -82q-23 -23 -45 -65t-34.5 -75t-35.5 -102q-42 -127 -73 -197z" />
    <glyph glyph-name="uni06B5.fina" unicode="&#x6b5;" horiz-adv-x="1659" 
d="M262 440l174 -101q-4 -5 -11 -15t-25.5 -47.5t-32 -81.5t-25 -119t-11.5 -158q0 -76 27 -140.5t68.5 -107t92 -72.5t97 -43.5t84.5 -13.5q63 0 123 9t128 36.5t118.5 70t84 117.5t33.5 172q0 187 -13.5 581t-26.5 694l-13 300l196 8q28 -616 44 -1112q0 -9 2.5 -24
t18 -53t42 -67t82 -53t129.5 -24q41 0 70 -29t29 -70t-29 -69t-70 -28q-201 0 -265 86v-43.5v-58v-38.5q0 -105 -23.5 -192t-63 -148t-95.5 -108t-116 -75.5t-129.5 -46.5t-130.5 -24.5t-125 -6.5q-83 0 -162.5 20.5t-153 66t-128.5 111t-88 162t-33 213.5q0 103 13 194.5
t31.5 149t37.5 100t32 60.5zM730 1030l-105 6q-39 124 -92 229.5t-101 139.5l64 92q74 -51 146 -197q23 -47 38 -86q3 7 5.5 15.5t5.5 18t5 14.5q26 78 41 117.5t43 90t61 81.5l77 -82q-23 -23 -45 -65t-34.5 -75t-35.5 -102q-42 -127 -73 -197z" />
    <glyph glyph-name="uni06B6.init" unicode="&#x6b6;" horiz-adv-x="655" 
d="M-98 98q0 41 28.5 69.5t69.5 28.5h9h104q113 0 161 48q52 54 51 206v26q0 59 -17 464q-12 361 -35 543l196 21q27 -280 38 -557q15 -450 15 -469t1 -26q5 -233 -107 -347q-105 -105 -303 -105h-104h-9q-40 0 -69 29t-29 69zM305 1932l164 -164l-163 -163l-164 164z" />
    <glyph glyph-name="uni06B6.medi" unicode="&#x6b6;" horiz-adv-x="730" 
d="M-98 98q0 40 29 69t69 29h9h112q102 4 128 26q45 35 53 171v33q1 32 2 83.5t2 121.5t1.5 149.5t1 164t-0.5 168.5t-2.5 159t-5 140t-8.5 107l195 25q10 -77 15 -217.5t5.5 -295t-1 -289t-3.5 -242.5t-2 -111q0 -73 31 -122q22 -34 66 -52.5t132 -18.5q41 0 70.5 -29
t29.5 -69q0 -41 -29.5 -69.5t-70.5 -28.5q-141 0 -206 25.5t-114 77.5q-22 -24 -38 -36q-83 -67 -228 -67h-135h-9q-41 0 -69.5 28.5t-28.5 69.5zM356 2003l164 -164l-163 -163l-164 164z" />
    <glyph glyph-name="uni06B6.fina" unicode="&#x6b6;" horiz-adv-x="1654" 
d="M262 440l174 -101q-4 -5 -11 -15t-25.5 -47.5t-32 -81.5t-25 -119t-11.5 -158q0 -76 27 -140.5t68.5 -107t92 -72.5t97 -43.5t84.5 -13.5q63 0 123 9t128 36.5t118.5 70t84 117.5t33.5 172q0 187 -13.5 581t-26.5 694l-13 300l196 8q28 -616 44 -1112q0 -9 2.5 -24
t18 -53t42 -67t82 -53t129.5 -24q41 0 70 -29t29 -70t-29 -69t-70 -28q-201 0 -265 86v-43.5v-58v-38.5q0 -105 -23.5 -192t-63 -148t-95.5 -108t-116 -75.5t-129.5 -46.5t-130.5 -24.5t-125 -6.5q-83 0 -162.5 20.5t-153 66t-128.5 111t-88 162t-33 213.5q0 103 13 194.5
t31.5 149t37.5 100t32 60.5zM1131 1983l164 -164l-163 -163l-164 164z" />
    <glyph glyph-name="uni06B7.init" unicode="&#x6b7;" horiz-adv-x="693" 
d="M-96 98q0 41 28.5 69.5t69.5 28.5h9h104q113 0 161 48q52 54 51 206v26q0 59 -17 464q-12 361 -35 543l196 21q27 -280 38 -557q15 -450 15 -469t1 -26q5 -233 -107 -347q-105 -105 -303 -105h-104h-9q-40 0 -69 29t-29 69zM415 1656l-117 117l116 116l117 -117z
M162 1657l-117 117l116 116l117 -117zM282 1853l-117 117l116 116l117 -117z" />
    <glyph glyph-name="uni06B7.medi" unicode="&#x6b7;" horiz-adv-x="719" 
d="M-112 98q0 40 29 69t69 29h9h112q102 4 128 26q45 35 53 171v33q1 32 2 83.5t2 121.5t1.5 149.5t1 164t-0.5 168.5t-2.5 159t-5 140t-8.5 107l195 25q10 -77 15 -217.5t5.5 -295t-1 -289t-3.5 -242.5t-2 -111q0 -73 31 -122q22 -34 66 -52.5t132 -18.5q41 0 70.5 -29
t29.5 -69q0 -41 -29.5 -69.5t-70.5 -28.5q-141 0 -206 25.5t-114 77.5q-22 -24 -38 -36q-83 -67 -228 -67h-135h-9q-41 0 -69.5 28.5t-28.5 69.5zM467 1658l-117 117l116 116l117 -117zM214 1659l-117 117l116 116l117 -117zM334 1855l-117 117l116 116l117 -117z" />
    <glyph glyph-name="uni06B7.fina" unicode="&#x6b7;" horiz-adv-x="1638" 
d="M262 440l174 -101q-4 -5 -11 -15t-25.5 -47.5t-32 -81.5t-25 -119t-11.5 -158q0 -76 27 -140.5t68.5 -107t92 -72.5t97 -43.5t84.5 -13.5q63 0 123 9t128 36.5t118.5 70t84 117.5t33.5 172q0 187 -13.5 581t-26.5 694l-13 300l196 8q28 -616 44 -1112q0 -9 2.5 -24
t18 -53t42 -67t82 -53t129.5 -24q41 0 70 -29t29 -70t-29 -69t-70 -28q-201 0 -265 86v-43.5v-58v-38.5q0 -105 -23.5 -192t-63 -148t-95.5 -108t-116 -75.5t-129.5 -46.5t-130.5 -24.5t-125 -6.5q-83 0 -162.5 20.5t-153 66t-128.5 111t-88 162t-33 213.5q0 103 13 194.5
t31.5 149t37.5 100t32 60.5zM1253 1656l-117 117l116 116l117 -117zM1000 1657l-117 117l116 116l117 -117zM1120 1853l-117 117l116 116l117 -117z" />
    <glyph glyph-name="uni06B8.init" unicode="&#x6b8;" horiz-adv-x="763" 
d="M-108 98q0 41 29 70.5t69 29.5h9h47q115 0 161 46q52 54 51 206v26q0 59 -17 464q-12 361 -35 543l196 21q27 -280 38 -557q15 -450 15 -469t1 -26q5 -233 -107 -347q-105 -105 -303 -105h-47h-9q-40 0 -69 29t-29 69zM195 -155l164 -164l-162 -162l-164 164zM549 -156
l164 -164l-162 -163l-164 164zM381 -431l164 -164l-162 -162l-164 164z" />
    <glyph glyph-name="uni06B8.medi" unicode="&#x6b8;" horiz-adv-x="746" 
d="M-90 98q0 40 29 69t69 29h9h112q102 4 128 26q45 35 53 171v33q1 32 2 83.5t2 121.5t1.5 149.5t1 164t-0.5 168.5t-2.5 159t-5 140t-8.5 107l195 25q10 -77 15 -217.5t5.5 -295t-1 -289t-3.5 -242.5t-2 -111q0 -73 31 -122q22 -34 66 -52.5t132 -18.5q41 0 70.5 -29
t29.5 -69q0 -41 -29.5 -69.5t-70.5 -28.5q-141 0 -206 25.5t-114 77.5q-22 -24 -38 -36q-83 -67 -228 -67h-135h-9q-41 0 -69.5 28.5t-28.5 69.5zM166 -85l164 -164l-162 -162l-164 164zM597 -86l164 -164l-162 -163l-164 164zM379 -720l-149 149l148 148l149 -149z" />
    <glyph glyph-name="uni06B8.fina" unicode="&#x6b8;" horiz-adv-x="1643" 
d="M262 440l174 -101q-4 -5 -11 -15t-25.5 -47.5t-32 -81.5t-25 -119t-11.5 -158q0 -76 27 -140.5t68.5 -107t92 -72.5t97 -43.5t84.5 -13.5q63 0 123 9t128 36.5t118.5 70t84 117.5t33.5 172q0 187 -13.5 581t-26.5 694l-13 300l196 8q28 -616 44 -1112q0 -9 2.5 -24
t18 -53t42 -67t82 -53t129.5 -24q41 0 70 -29t29 -70t-29 -69t-70 -28q-201 0 -265 86v-43.5v-58v-38.5q0 -105 -23.5 -192t-63 -148t-95.5 -108t-116 -75.5t-129.5 -46.5t-130.5 -24.5t-125 -6.5q-83 0 -162.5 20.5t-153 66t-128.5 111t-88 162t-33 213.5q0 103 13 194.5
t31.5 149t37.5 100t32 60.5zM750 -884l117 -117l-116 -116l-117 117zM1003 -885l117 -117l-116 -116l-117 117zM883 -1081l117 -117l-116 -116l-117 117z" />
    <glyph glyph-name="uni06B9.init" unicode="&#x6b9;" horiz-adv-x="805" 
d="M-98 98q0 41 28.5 69.5t69.5 28.5h183q61 -2 103.5 1t87 14t75.5 37t50 66q40 84 -29 308q-12 38 -34 91.5t-38 88.5l-15 34l178 88l15 -32q15 -33 39 -93t42 -117q93 -287 23 -448q-71 -161 -252 -212q-75 -22 -202 -22h-217h-9q-41 0 -69.5 28.5t-28.5 69.5zM333 -204
l164 -164l-163 -163l-164 164zM331 1364l164 -164l-163 -163l-164 164z" />
    <glyph glyph-name="uni06B9.medi" unicode="&#x6b9;" horiz-adv-x="800" 
d="M-94 98q0 41 28.5 69.5t69.5 28.5h101q166 0 243 59.5t77 180.5q0 135 -46 297l188 53q54 -187 54 -350v-5q0 -41 7.5 -78.5t24.5 -75t51.5 -59.5t83.5 -22q41 0 70 -29t29 -69q0 -41 -29 -69.5t-69 -28.5q-179 0 -274 124q-127 -124 -410 -124h-101q-41 0 -69.5 28.5
t-28.5 69.5zM383 -204l164 -164l-163 -163l-164 164zM394 1308l164 -164l-163 -163l-164 164z" />
    <glyph glyph-name="uni06B9.fina" unicode="&#x6b9;" horiz-adv-x="1772" 
d="M1772 0q-133 0 -239 62q8 -163 -38 -314q-61 -191 -227 -299q-178 -121 -469 -136h-41q-259 0 -432 148q-77 69 -126.5 163.5t-65.5 203.5q-28 212 42 440q57 179 127 281l160 -116q-30 -41 -65.5 -127.5t-59.5 -215t-8 -234.5q4 -27 11 -52.5t22 -61.5t35.5 -67
t54 -62.5t74.5 -53.5t100.5 -36t129.5 -14h15q13 0 19 1q211 11 341.5 86t173.5 212q82 268 -65 605q-8 15 -20.5 43t-19.5 41q-5 9 -10 17.5t-7.5 12t-2.5 4.5l167 106q16 -20 71 -136q52 -99 102 -164t95.5 -93.5t79.5 -38t76 -9.5q41 0 70 -28.5t29 -69.5t-29 -69.5
t-70 -28.5zM955 -801l164 -164l-163 -163l-164 164zM780 776l164 -164l-163 -163l-164 164z" />
    <glyph glyph-name="uni06BA" unicode="&#x6ba;" horiz-adv-x="1595" arabic-form="isolated" 
d="M755 -688q-265 0 -433 150q-159 138 -192 366q-32 200 42 439q53 174 128 282l159 -117q-30 -41 -65 -127.5t-59 -215t-9 -233.5q6 -36 21 -75t49.5 -87t83 -85.5t128 -65.5t176.5 -32h2q425 18 518 298q31 105 28 207t-25.5 195t-52 164t-51.5 113t-25 42l166 106
q11 -15 34.5 -57.5t62 -137.5t63.5 -197t25.5 -237.5t-38.5 -257.5q-60 -190 -227 -300q-178 -122 -470 -136q-7 0 -20 -0.5t-19 -0.5z" />
    <glyph glyph-name="uni06BB.fina" unicode="&#x6bb;" horiz-adv-x="1772" arabic-form="final" 
d="M1772 0q-133 0 -239 62q8 -163 -38 -314q-61 -191 -227 -299q-178 -121 -469 -136h-41q-259 0 -432 148q-77 69 -126.5 163.5t-65.5 203.5q-28 212 42 440q57 179 127 281l160 -116q-30 -41 -65.5 -127.5t-59.5 -215t-8 -234.5q4 -27 11 -52.5t22 -61.5t35.5 -67
t54 -62.5t74.5 -53.5t100.5 -36t129.5 -14h15q13 0 19 1q211 11 341.5 86t173.5 212q82 268 -65 605q-8 15 -20.5 43t-19.5 41q-5 9 -10 17.5t-7.5 12t-2.5 4.5l167 106q16 -20 71 -136q52 -99 102 -164t95.5 -93.5t79.5 -38t76 -9.5q41 0 70 -28.5t29 -69.5t-29 -69.5
t-70 -28.5zM817 541q-22 0 -54 2h-3q-133 6 -272 60l32 79q52 -20 110 -35q7 10 26.5 36t26.5 36l3 4q11 71 11.5 123.5t-6.5 135.5q-4 55 -9.5 109t-9.5 81l-4 26l84 16l2 -16q2 -15 5 -40t6 -53t6 -58t4 -50q7 -89 8 -170q103 97 197 112q69 11 133 -27t67 -108
q4 -43 -15 -85t-46 -70l-1 -2q-118 -106 -301 -106zM751 667l-27 -36q21 -3 40 -3h2h91.5t101 19.5t100.5 60.5q34 31 36.5 69.5t-26.5 61.5t-75 16q-90 -14 -205 -143q-23 -27 -38 -45z" />
    <glyph glyph-name="uni06BC.init" unicode="&#x6bc;" horiz-adv-x="800" 
d="M-98 98q0 41 28.5 69.5t69.5 28.5h183q61 -2 103.5 1t87 14t75.5 37t50 66q40 84 -29 308q-12 38 -34 91.5t-38 88.5l-15 34l178 88l15 -32q15 -33 39 -93t42 -117q93 -287 23 -448q-71 -161 -252 -212q-75 -22 -202 -22h-217h-9q-41 0 -69.5 28.5t-28.5 69.5zM190 1638
q37 0 66 36.5t29 76.5q0 39 -29 75.5t-66 36.5q-38 0 -67 -36.5t-29 -75.5q0 -40 29 -76.5t67 -36.5zM190 1970q83 0 145 -72q56 -65 56 -147t-56 -147q-62 -73 -145 -73q-84 0 -146 73q-56 65 -56 147t56 147q62 72 146 72zM355 1412l164 -164l-163 -163l-164 164z" />
    <glyph glyph-name="uni06BC.medi" unicode="&#x6bc;" horiz-adv-x="795" 
d="M-94 98q0 41 28.5 69.5t69.5 28.5h101q166 0 243 59.5t77 180.5q0 135 -46 297l188 53q54 -187 54 -350v-5q0 -41 7.5 -78.5t24.5 -75t51.5 -59.5t83.5 -22q41 0 70 -29t29 -69q0 -41 -29 -69.5t-69 -28.5q-179 0 -274 124q-127 -124 -410 -124h-101q-41 0 -69.5 28.5
t-28.5 69.5zM238 1526q37 0 66 36.5t29 76.5q0 39 -29 75.5t-66 36.5q-38 0 -67 -36.5t-29 -75.5q0 -40 29 -76.5t67 -36.5zM238 1858q83 0 145 -72q56 -65 56 -147t-56 -147q-62 -73 -145 -73q-84 0 -146 73q-56 65 -56 147t56 147q62 72 146 72zM453 1315l164 -164
l-163 -163l-164 164z" />
    <glyph glyph-name="uni06BC.fina" unicode="&#x6bc;" horiz-adv-x="1772" 
d="M1772 0q-133 0 -239 62q8 -163 -38 -314q-61 -191 -227 -299q-178 -121 -469 -136h-41q-259 0 -432 148q-77 69 -126.5 163.5t-65.5 203.5q-28 212 42 440q57 179 127 281l160 -116q-30 -41 -65.5 -127.5t-59.5 -215t-8 -234.5q4 -27 11 -52.5t22 -61.5t35.5 -67
t54 -62.5t74.5 -53.5t100.5 -36t129.5 -14h15q13 0 19 1q211 11 341.5 86t173.5 212q82 268 -65 605q-8 15 -20.5 43t-19.5 41q-5 9 -10 17.5t-7.5 12t-2.5 4.5l167 106q16 -20 71 -136q52 -99 102 -164t95.5 -93.5t79.5 -38t76 -9.5q41 0 70 -28.5t29 -69.5t-29 -69.5
t-70 -28.5zM652 1137q37 0 66 36.5t29 76.5q0 39 -29 75.5t-66 36.5q-38 0 -67 -36.5t-29 -75.5q0 -40 29 -76.5t67 -36.5zM652 1469q83 0 145 -72q56 -65 56 -147t-56 -147q-62 -73 -145 -73q-84 0 -146 73q-56 65 -56 147t56 147q62 72 146 72zM850 727l164 -164
l-163 -163l-164 164z" />
    <glyph glyph-name="uni06BD.fina" unicode="&#x6bd;" horiz-adv-x="1772" 
d="M1772 0q-133 0 -239 62q8 -163 -38 -314q-61 -191 -227 -299q-178 -121 -469 -136h-41q-259 0 -432 148q-77 69 -126.5 163.5t-65.5 203.5q-28 212 42 440q57 179 127 281l160 -116q-30 -41 -65.5 -127.5t-59.5 -215t-8 -234.5q4 -27 11 -52.5t22 -61.5t35.5 -67
t54 -62.5t74.5 -53.5t100.5 -36t129.5 -14h15q13 0 19 1q211 11 341.5 86t173.5 212q82 268 -65 605q-8 15 -20.5 43t-19.5 41q-5 9 -10 17.5t-7.5 12t-2.5 4.5l167 106q16 -20 71 -136q52 -99 102 -164t95.5 -93.5t79.5 -38t76 -9.5q41 0 70 -28.5t29 -69.5t-29 -69.5
t-70 -28.5zM1083 575l-164 164l162 162l164 -164zM653 576l-164 164l162 163l164 -164zM874 921l-149 149l148 148l149 -149z" />
    <glyph glyph-name="uni06BE" unicode="&#x6be;" horiz-adv-x="1520" arabic-form="isolated" 
d="M882 202q60 -7 95 -7q80 0 141.5 32t92.5 90q54 107 -22 214q-56 83 -199 171q19 -67 19 -150q0 -113 -32 -198q-32 -84 -95 -152zM671 756q-63 0 -122 -67q-71 -82 -59 -192q17 -136 162 -220q34 17 65 41q95 79 95 234q0 66 -16.5 111t-42.5 63t-45 24t-37 6zM68 176
q0 41 42 68t81 15q47 -15 104 -27t91.5 -17t32.5 -3q-26 26 -34 39q-76 96 -91 222q-26 198 108 348q52 60 119 93q-47 19 -55 19l58 189q5 0 48 -14.5t123.5 -45.5t159.5 -66q368 -167 496 -352q68 -98 77.5 -208t-42.5 -210q-57 -106 -162 -166q-105 -63 -247 -63
q-181 0 -330 65q-63 -32 -149 -37t-163.5 7.5t-178.5 39.5q-46 15 -67 39.5t-21 64.5z" />
    <glyph glyph-name="uni06BF.init" unicode="&#x6bf;" horiz-adv-x="1589" 
d="M-101 98q0 41 29.5 69.5t70.5 28.5h175q127 0 250 22.5t253.5 72t212.5 87t225 108.5l18 10q-98 35 -256 109q-81 39 -124.5 58t-102 37.5t-97.5 18.5q-44 0 -88.5 -24t-74.5 -54t-59.5 -71t-40 -60t-19.5 -36l-1 -2l-180 81q0 1 3 7t8 15t12 22t16 28.5t20 31.5t25 35
t29 36q155 188 350 188q60 0 136 -21.5t127 -43.5t146 -67q106 -50 165 -75t152 -50.5t169 -25.5l38 -190q-93 -38 -283 -133q-117 -58 -184 -90t-185.5 -80.5t-210 -74t-212.5 -45.5t-237 -20h-167h-8q-41 0 -70.5 29t-29.5 69zM604 -107l164 -164l-162 -162l-164 164z
M1035 -108l164 -164l-162 -163l-164 164zM817 -742l-149 149l148 148l149 -149zM699 1414l164 -164l-163 -163l-164 164z" />
    <glyph glyph-name="uni06BF.medi" unicode="&#x6bf;" horiz-adv-x="1713" 
d="M-99 97q0 41 29 70t70 29h189q103 0 211 18.5t188 41t193 69.5t171.5 75t177.5 87l18 9q-69 24 -256 110q-78 37 -123.5 56.5t-103.5 37.5t-98 18q-47 0 -94 -27t-76 -56.5t-60 -76t-36.5 -57.5t-14.5 -28l-181 82q50 100 112 175q161 187 350 187q60 0 136.5 -21.5
t126 -43t146.5 -66.5q102 -49 164.5 -76t154 -52t167.5 -25l39 -189q-43 -18 -182 -84q13 -43 50.5 -75t81 -48.5t97 -26t87.5 -12t64 -2.5h6h8q41 0 70 -29t29 -70t-29 -69t-70 -28h-14q-201 0 -355.5 73.5t-203.5 198.5q-121 -60 -216 -101.5t-219.5 -84.5t-254 -65
t-261.5 -22l-189 1q-41 0 -70 28t-29 69zM803 -60l164 -164l-162 -162l-164 164zM1234 -61l164 -164l-162 -163l-164 164zM1016 -695l-149 149l148 148l149 -149zM906 1394l164 -164l-163 -163l-164 164z" />
    <glyph glyph-name="uni06BF.fina" unicode="&#x6bf;" horiz-adv-x="1722" 
d="M1020 -777q-203 0 -322 41q-224 73 -350 217q-154 178 -130 435q17 202 152 364q120 140 300 224q220 101 511 136l-108 52q-247 125 -337 138q-139 19 -251 -99q-51 -55 -83 -120l-5 -12l-184 76q58 116 128 190q177 193 421 161q53 -7 121.5 -31.5t122.5 -49.5t154 -75
q304 -151 500 -216l-38 -192h-6q-7 1 -17.5 1t-25 0.5t-33.5 0t-40.5 -0.5t-48 -1t-53.5 -3q-6 -34 1 -81.5t38 -86.5q42 -51 122.5 -73t167.5 -22q41 0 70 -28.5t29 -69.5q0 -40 -29 -69t-70 -29q-312 0 -447 171q-75 100 -81 232q-3 21 0 38q-270 -35 -447 -116
q-36 -18 -70 -38t-83 -59.5t-85 -83.5t-65 -109t-35 -136q-30 -324 345 -448q43 -16 142 -25t213 -1q300 25 449 162l130 -150q-130 -115 -309 -164.5t-364 -49.5zM718 139l164 -164l-162 -162l-164 164zM1149 138l164 -164l-162 -163l-164 164zM931 -496l-149 149l148 148
l149 -149zM876 1522l164 -164l-163 -163l-164 164z" />
    <glyph glyph-name="uni06C0" unicode="&#x6c0;" horiz-adv-x="983" arabic-form="isolated" 
d="M485 0q-110 0 -212 48q-94 43 -144 120t-50 179q0 180 163 377q52 61 117 122l-34 30t-25 22l-7 6l126 153l14 -12q14 -12 36.5 -32.5t50.5 -46.5t63 -62t67 -72q243 -276 243 -485q0 -102 -46 -178.5t-133 -119.5q-99 -49 -229 -49zM497 704q-47 -41 -93 -93t-87 -127.5
t-41 -136.5q0 -82 81 -120q59 -28 128 -28q89 0 141 26q70 37 70 122q0 135 -195 353zM553 1747l-28 -92q-41 13 -92 13q-34 0 -62 -12v2q-32 -13 -51.5 -42t-19.5 -62q0 -17 8 -36l-1 1q15 -35 50.5 -58.5t77.5 -23.5q26 0 42 7q31 10 66 29t54 33l19 13l59 -78
q-51 -37 -242 -142l-227 -126l-48 87l179 100q-40 17 -72 49t-49 71q-14 34 -14 74q0 62 36.5 115.5t96.5 77.5q47 19 98 19q27 0 57 -5t46 -9z" />
    <glyph glyph-name="uni06C1.fina" unicode="&#x6c1;" horiz-adv-x="1337" arabic-form="final" 
d="M957 90q-65 23 -182 78q-116 56 -191.5 84.5t-132.5 28.5q-47 0 -93 -25.5t-78 -60t-59 -73t-38.5 -60.5t-13.5 -27l-181 81q0 1 5.5 11.5t15 27.5t22 38.5t31.5 47.5t39 50q157 188 350 188q46 0 94 -9.5t109 -33t95.5 -38.5t110.5 -51q81 -38 129.5 -59.5t120.5 -46.5
t132 -35q58 -10 103 -10v-196q-101 0 -198 22.5t-143 45.5z" />
    <glyph glyph-name="uni06C2" unicode="&#x6c2;" horiz-adv-x="993" 
d="M495 0q-110 0 -212 48q-94 43 -144 120t-50 179q0 180 163 377q52 61 117 122l-34 30t-25 22l-7 6l126 153l14 -12q14 -12 36.5 -32.5t50.5 -46.5t63 -62t67 -72q243 -276 243 -485q0 -102 -46 -178.5t-133 -119.5q-99 -49 -229 -49zM507 704q-47 -41 -93 -93t-87 -127.5
t-41 -136.5q0 -82 81 -120q59 -28 128 -28q89 0 141 26q70 37 70 122q0 135 -195 353zM546 1642l-28 -92q-41 13 -92 13q-34 0 -62 -12v2q-32 -13 -51.5 -42t-19.5 -62q0 -17 8 -36l-1 1q15 -35 50.5 -58.5t77.5 -23.5q26 0 42 7q31 10 66 29t54 32l19 14l59 -78
q-51 -37 -242 -142l-227 -126l-48 87l179 100q-40 17 -72 49t-49 71q-14 34 -14 74q0 62 36.5 115.5t96.5 77.5q47 19 98 19q27 0 57 -4.5t47 -9.5z" />
    <glyph glyph-name="uni06C3" unicode="&#x6c3;" horiz-adv-x="1020" 
d="M522 0q-110 0 -212 48q-94 43 -144 120t-50 179q0 180 163 377q52 61 117 122l-34 30t-24 22l-8 6l126 153l14 -12q14 -12 36.5 -32.5t50.5 -46.5t63 -62t67 -72q243 -276 243 -485q0 -102 -46 -178.5t-133 -119.5q-99 -49 -229 -49zM534 704q-47 -41 -93 -93t-87 -127.5
t-41 -136.5q0 -82 81 -120q59 -28 128 -28q89 0 141 26q70 37 70 122q0 135 -195 353zM277 1538l164 -164l-162 -162l-164 163zM693 1536l164 -163l-162 -163l-164 164z" />
    <glyph glyph-name="uni06C4.fina" unicode="&#x6c4;" horiz-adv-x="969" 
d="M428 653q-37 0 -78 -53q-53 -66 -77 -192q-15 -90 21 -135q48 -62 178 -77h207q-4 124 -43 227.5t-94 164.5q-57 65 -114 65zM199 -684l-97 172q198 111 343.5 248.5t202.5 263.5q-159 6 -189 9q-219 12 -320 143q-92 116 -61 291q33 174 117 278q100 129 233 129
q144 0 261 -129q84 -92 133 -231.5t54 -293.5h87q42 0 71 -28.5t29 -70.5q0 -40 -29.5 -68.5t-70.5 -28.5h-105q-42 -155 -199 -330q-188 -204 -460 -354zM292 1217q37 0 66 36.5t29 76.5q0 39 -29 75.5t-66 36.5q-38 0 -67 -36.5t-29 -75.5q0 -40 29 -76.5t67 -36.5z
M292 1549q83 0 145 -72q56 -65 56 -147t-56 -147q-62 -73 -145 -73q-84 0 -146 73q-56 65 -56 147t56 147q62 72 146 72z" />
    <glyph glyph-name="uni06C5.fina" unicode="&#x6c5;" horiz-adv-x="1069" arabic-form="final" 
d="M715 -233l-31 -124l-464 111l31 124zM534 653q-37 0 -78 -53q-53 -66 -77 -192q-15 -90 21 -135q48 -62 178 -77h207q-4 124 -43 227.5t-94 164.5q-57 65 -114 65zM305 -684l-97 172q198 111 343.5 248.5t202.5 263.5q-159 6 -189 9q-219 12 -320 143q-92 116 -61 291
q33 174 117 278q100 129 233 129q144 0 261 -129q84 -92 133 -231.5t54 -293.5h87q42 0 71 -28.5t29 -70.5q0 -40 -29.5 -68.5t-70.5 -28.5h-105q-42 -155 -199 -330q-188 -204 -460 -354z" />
    <glyph glyph-name="uni06C6.fina" unicode="&#x6c6;" horiz-adv-x="1074" arabic-form="final" 
d="M534 653q-37 0 -78 -53q-53 -66 -77 -192q-15 -90 21 -135q48 -62 178 -77h207q-4 124 -43 227.5t-94 164.5q-57 65 -114 65zM305 -684l-97 172q198 111 343.5 248.5t202.5 263.5q-159 6 -189 9q-219 12 -320 143q-92 116 -61 291q33 174 117 278q100 129 233 129
q144 0 261 -129q84 -92 133 -231.5t54 -293.5h87q42 0 71 -28.5t29 -70.5q0 -40 -29.5 -68.5t-70.5 -28.5h-105q-42 -155 -199 -330q-188 -204 -460 -354zM586 972l-105 6q-39 124 -92 229.5t-101 139.5l64 92q74 -51 146 -197q23 -47 38 -86l16 48q26 78 41 117.5t43 90
t61 81.5l77 -82q-23 -23 -45 -65t-34.5 -75t-35.5 -102q-42 -127 -73 -197z" />
    <glyph glyph-name="uni06C7.fina" unicode="&#x6c7;" horiz-adv-x="1063" arabic-form="final" 
d="M534 653q-37 0 -78 -53q-53 -66 -77 -192q-15 -90 21 -135q48 -62 178 -77h207q-4 124 -43 227.5t-94 164.5q-57 65 -114 65zM305 -684l-97 172q198 111 343.5 248.5t202.5 263.5q-159 6 -189 9q-219 12 -320 143q-92 116 -61 291q33 174 117 278q100 129 233 129
q144 0 261 -129q84 -92 133 -231.5t54 -293.5h87q42 0 71 -28.5t29 -70.5q0 -40 -29.5 -68.5t-70.5 -28.5h-105q-42 -155 -199 -330q-188 -204 -460 -354zM329 960l-24 84q177 50 272 122l-9 4q-8 4 -54 26q-38 19 -62 46t-31.5 54.5t-6 52t10.5 44.5q29 60 94.5 90.5
t121.5 3.5q59 -28 78 -95q24 -79 -8 -184q3 -1 13 -3.5t15 -4.5l-25 -83q-23 6 -48 16q-20 -21 -48 -41.5t-58.5 -37t-59 -30t-59.5 -25.5t-50.5 -19t-40.5 -14zM586 1414q-22 0 -46.5 -17.5t-35.5 -41.5q-1 0 -3 -5t-1.5 -14t4 -19t15.5 -21.5t32 -21.5q10 -5 28.5 -14
t26.5 -13l24 -11q21 89 5 136q-11 29 -32 38q-5 4 -17 4z" />
    <glyph glyph-name="uni06C8.fina" unicode="&#x6c8;" horiz-adv-x="1080" arabic-form="final" 
d="M534 653q-37 0 -78 -53q-53 -66 -77 -192q-15 -90 21 -135q48 -62 178 -77h207q-4 124 -43 227.5t-94 164.5q-57 65 -114 65zM305 -684l-97 172q198 111 343.5 248.5t202.5 263.5q-159 6 -189 9q-219 12 -320 143q-92 116 -61 291q33 174 117 278q100 129 233 129
q144 0 261 -129q84 -92 133 -231.5t54 -293.5h87q42 0 71 -28.5t29 -70.5q0 -40 -29.5 -68.5t-70.5 -28.5h-105q-42 -155 -199 -330q-188 -204 -460 -354zM584 966l-71 22q38 142 0 287l72 22q38 -142 -1 -331z" />
    <glyph glyph-name="uni06C9.fina" unicode="&#x6c9;" horiz-adv-x="1080" arabic-form="final" 
d="M534 653q-37 0 -78 -53q-53 -66 -77 -192q-15 -90 21 -135q48 -62 178 -77h207q-4 124 -43 227.5t-94 164.5q-57 65 -114 65zM305 -684l-97 172q198 111 343.5 248.5t202.5 263.5q-159 6 -189 9q-219 12 -320 143q-92 116 -61 291q33 174 117 278q100 129 233 129
q144 0 261 -129q84 -92 133 -231.5t54 -293.5h87q42 0 71 -28.5t29 -70.5q0 -40 -29.5 -68.5t-70.5 -28.5h-105q-42 -155 -199 -330q-188 -204 -460 -354zM451 1449l105 -6q39 -124 92 -229.5t101 -139.5l-64 -92q-74 51 -146 197q-23 47 -38 86l-16 -48q-26 -78 -41 -117.5
t-43 -90t-61 -81.5l-77 82q23 23 45 65t34.5 75t35.5 102q42 127 73 197z" />
    <glyph glyph-name="uni06CA.fina" unicode="&#x6ca;" horiz-adv-x="1080" 
d="M534 653q-37 0 -78 -53q-53 -66 -77 -192q-15 -90 21 -135q48 -62 178 -77h207q-4 124 -43 227.5t-94 164.5q-57 65 -114 65zM305 -684l-97 172q198 111 343.5 248.5t202.5 263.5q-159 6 -189 9q-219 12 -320 143q-92 116 -61 291q33 174 117 278q100 129 233 129
q144 0 261 -129q84 -92 133 -231.5t54 -293.5h87q42 0 71 -28.5t29 -70.5q0 -40 -29.5 -68.5t-70.5 -28.5h-105q-42 -155 -199 -330q-188 -204 -460 -354zM309 1336l164 -164l-162 -162l-164 163zM725 1334l164 -163l-162 -163l-164 164z" />
    <glyph glyph-name="uni06CB.fina" unicode="&#x6cb;" horiz-adv-x="1074" arabic-form="final" 
d="M534 653q-37 0 -78 -53q-53 -66 -77 -192q-15 -90 21 -135q48 -62 178 -77h207q-4 124 -43 227.5t-94 164.5q-57 65 -114 65zM305 -684l-97 172q198 111 343.5 248.5t202.5 263.5q-159 6 -189 9q-219 12 -320 143q-92 116 -61 291q33 174 117 278q100 129 233 129
q144 0 261 -129q84 -92 133 -231.5t54 -293.5h87q42 0 71 -28.5t29 -70.5q0 -40 -29.5 -68.5t-70.5 -28.5h-105q-42 -155 -199 -330q-188 -204 -460 -354zM741 1009l-164 164l162 162l164 -164zM311 1010l-164 164l162 163l164 -164zM532 1355l-149 149l148 148l149 -149z
" />
    <glyph glyph-name="uni06CC" unicode="&#x6cc;" horiz-adv-x="1836" arabic-form="isolated" 
d="M1418 832q52 11 107 10.5t95.5 -7.5t76.5 -17.5t52.5 -17t21.5 -9.5l-87 -183l-4 2q-4 1 -11 4t-17 6t-23 6t-27.5 6t-31.5 5t-34.5 2.5t-37 -1.5t-38.5 -6q-89 -18 -165 -75.5t-126 -144.5q-35 -60 -47.5 -122t1.5 -102q12 -36 56.5 -53t143.5 -35q130 -25 180 -46
q30 -14 55 -31q135 -96 101 -292q-18 -98 -88.5 -180t-185.5 -140q-225 -114 -553 -114q-188 0 -334 54.5t-239 158.5q-168 192 -131 489q14 116 52.5 267.5t66 236t35.5 103.5l191 -67q-115 -354 -142 -564q-28 -206 81 -329q127 -144 420 -144q269 0 438 79.5t188 186.5
q12 68 -16 88q-30 21 -155 43q-133 25 -192 51q-125 54 -165 172q-28 84 -12 187.5t73 203.5q72 125 183.5 208t243.5 111z" />
    <glyph glyph-name="uni06CD.fina" unicode="&#x6cd;" horiz-adv-x="1752" 
d="M1752 196q41 0 70 -28.5t29 -69.5t-29 -69.5t-70 -28.5h-150q108 -89 108 -210q0 -43 -13.5 -85t-46 -90t-99.5 -94.5t-162 -83.5q-104 -44 -225.5 -66.5t-208.5 -22.5h-50q-153 0 -254 25q-224 56 -331 217q-67 96 -88 232q-57 -69 -101 -132l-160 135l268 318l200 -8
q-53 -290 44 -436q23 -33 55 -58.5t61.5 -41.5t73 -27t70.5 -16t73 -8t62 -3h56h21q72 0 174 19.5t187 56.5q38 13 79 35t80 59.5t39 74.5q0 28 -51 67.5t-155 78.5q-105 37 -230 63l-22 4l14 194z" />
    <glyph glyph-name="uni06CE.init" unicode="&#x6ce;" horiz-adv-x="881" 
d="M-98 98q0 41 28.5 69.5t69.5 28.5h235q61 -2 103.5 1t87 14t75.5 37t50 66q40 84 -29 308q-12 38 -34 91.5t-38 88.5l-15 34l178 88l15 -32q15 -33 39 -93t42 -117q93 -287 23 -448q-71 -161 -252 -212q-75 -22 -202 -22h-269h-9q-41 0 -69.5 28.5t-28.5 69.5zM411 1067
l-105 6q-39 124 -92 229.5t-101 139.5l64 92q74 -51 146 -197q23 -47 38 -86l16 48q26 78 41 117.5t43 90t61 81.5l77 -82q-23 -23 -45 -65t-34.5 -75t-35.5 -102q-42 -127 -73 -197zM135 -234l164 -164l-162 -162l-164 163zM551 -236l164 -163l-162 -163l-164 164z" />
    <glyph glyph-name="uni06CE.medi" unicode="&#x6ce;" horiz-adv-x="929" 
d="M-110 98q0 41 28.5 70t69.5 29h79q186 0 272.5 59.5t86.5 180.5q0 134 -46 297l187 53q55 -192 55 -350v-6q0 -111 81.5 -172.5t215.5 -61.5q41 0 70.5 -29t29.5 -70t-29 -69.5t-69 -28.5q-156 0 -247.5 30t-141.5 106q-65 -64 -184.5 -100t-280.5 -36h-79
q-41 0 -69.5 28.5t-28.5 69.5zM425 958l-105 6q-39 124 -92 229.5t-101 139.5l64 92q74 -51 146 -197q23 -47 38 -86q3 7 5.5 15.5t5.5 18t5 14.5q26 78 41 117.5t43 90t61 81.5l77 -82q-23 -23 -45 -65t-34.5 -75t-35.5 -102q-42 -127 -73 -197zM134 -256l164 -164
l-162 -162l-164 163zM550 -258l164 -163l-162 -163l-164 164z" />
    <glyph glyph-name="uni06CE.fina" unicode="&#x6ce;" horiz-adv-x="1756" 
d="M871 -652h-50q-153 0 -254 25q-224 56 -331 217q-108 158 -96 410q14 275 170 652l183 -74q-257 -633 -94 -879q23 -33 55 -58.5t61.5 -41.5t73 -27t70.5 -16t73 -8t62 -3h56h21q72 0 174 19.5t187 56.5q38 13 79 35t80 59.5t39 74.5q0 28 -51 67.5t-155 78.5
q-105 37 -230 63l-22 4l15 194l767 -1q41 0 70 -28.5t29 -69.5t-29 -69.5t-70 -28.5h-236q109 -90 109 -210q0 -43 -13.5 -85t-46.5 -90t-100 -94.5t-162 -83.5q-104 -44 -225.5 -66.5t-208.5 -22.5zM853 421l-105 6q-39 124 -92 229.5t-101 139.5l64 92q74 -51 146 -197
q23 -47 38 -86q3 7 5.5 15.5t5.5 18t5 14.5q26 78 41 117.5t43 90t61 81.5l77 -82q-23 -23 -45 -65t-34.5 -75t-35.5 -102q-42 -127 -73 -197z" />
    <glyph glyph-name="uni06CF.fina" unicode="&#x6cf;" horiz-adv-x="1091" 
d="M534 653q-37 0 -78 -53q-53 -66 -77 -192q-15 -90 21 -135q48 -62 178 -77h207q-4 124 -43 227.5t-94 164.5q-57 65 -114 65zM305 -684l-97 172q198 111 343.5 248.5t202.5 263.5q-159 6 -189 9q-219 12 -320 143q-92 116 -61 291q33 174 117 278q100 129 233 129
q144 0 261 -129q84 -92 133 -231.5t54 -293.5h87q42 0 71 -28.5t29 -70.5q0 -40 -29.5 -68.5t-70.5 -28.5h-105q-42 -155 -199 -330q-188 -204 -460 -354zM559 1366l164 -164l-163 -163l-164 164z" />
    <glyph glyph-name="uni06D0.fina" unicode="&#x6d0;" horiz-adv-x="1745" arabic-form="final" 
d="M871 -652h-50q-153 0 -254 25q-224 56 -331 217q-108 158 -96 410q14 275 170 652l183 -74q-257 -633 -94 -879q23 -33 55 -58.5t61.5 -41.5t73 -27t70.5 -16t73 -8t62 -3h56h21q72 0 174 19.5t187 56.5q38 13 79 35t80 59.5t39 74.5q0 28 -51 67.5t-155 78.5
q-105 37 -230 63l-22 4l15 194l767 -1q41 0 70 -28.5t29 -69.5t-29 -69.5t-70 -28.5h-236q109 -90 109 -210q0 -43 -13.5 -85t-46.5 -90t-100 -94.5t-162 -83.5q-104 -44 -225.5 -66.5t-208.5 -22.5zM741 -770l117 -117l-116 -116l-117 117zM741 -1037l117 -117l-116 -116
l-117 117z" />
    <glyph glyph-name="uni06D1.fina" unicode="&#x6d1;" horiz-adv-x="1740" 
d="M871 -652h-50q-153 0 -254 25q-224 56 -331 217q-108 158 -96 410q14 275 170 652l183 -74q-257 -633 -94 -879q23 -33 55 -58.5t61.5 -41.5t73 -27t70.5 -16t73 -8t62 -3h56h21q72 0 174 19.5t187 56.5q38 13 79 35t80 59.5t39 74.5q0 28 -51 67.5t-155 78.5
q-105 37 -230 63l-22 4l15 194l767 -1q41 0 70 -28.5t29 -69.5t-29 -69.5t-70 -28.5h-236q109 -90 109 -210q0 -43 -13.5 -85t-46.5 -90t-100 -94.5t-162 -83.5q-104 -44 -225.5 -66.5t-208.5 -22.5zM635 -856l117 -117l-116 -116l-117 117zM888 -857l117 -117l-116 -116
l-117 117zM768 -1053l117 -117l-116 -116l-117 117z" />
    <glyph glyph-name="uni06D2" unicode="&#x6d2;" horiz-adv-x="1906" arabic-form="isolated" 
d="M784 761l190 -42q-4 -21 -14.5 -54t-45.5 -92.5t-82 -92.5q-35 -26 -153 -65q-158 -56 -222 -91q-69 -38 -102 -78q38 -28 120 -46q147 -32 484 -32q137 0 284.5 17.5t262 43.5t179.5 43.5t98 27.5l5 2l61 -185q-1 0 -14.5 -4t-38 -11.5t-55.5 -16t-75.5 -19.5t-90.5 -21
q-333 -71 -616 -71q-362 0 -524 35q-106 24 -172 65q-79 49 -112 129l-1 69q14 39 39.5 75t53 63t70 53.5t73.5 43t81 37t75.5 29.5t73.5 26q90 31 102 39q23 17 41.5 55.5t24.5 67.5z" />
    <glyph glyph-name="uni06D3" unicode="&#x6d3;" horiz-adv-x="1921" arabic-form="isolated" 
d="M817 761l190 -42q-4 -21 -14.5 -54t-45.5 -92.5t-82 -92.5q-35 -26 -153 -65q-158 -56 -222 -91q-69 -38 -102 -78q38 -28 120 -46q147 -32 484 -32q137 0 284.5 17.5t262 43.5t179.5 43.5t98 27.5l5 2l61 -185q-1 0 -14.5 -4t-38 -11.5t-55.5 -16t-75.5 -19.5t-90.5 -21
q-333 -71 -616 -71q-362 0 -524 35q-106 24 -172 65q-79 49 -112 129l-1 69q14 39 39.5 75t53 63t70 53.5t73.5 43t81 37t75.5 29.5t73.5 26q90 31 102 39q23 17 41.5 55.5t24.5 67.5zM727 1293l-28 -92q-41 13 -92 13q-34 0 -62 -12v2q-32 -13 -51.5 -42t-19.5 -62
q0 -17 8 -36l-1 1q15 -35 50.5 -58.5t77.5 -23.5q26 0 42 7q31 10 66 29t54 33l19 13l59 -78q-51 -37 -242 -142l-227 -126l-48 87l179 100q-40 17 -72 49t-49 71q-14 34 -14 74q0 62 36.5 115.5t96.5 77.5q47 19 98 19q27 0 57 -5t46 -9z" />
    <glyph glyph-name="uni06EE.fina" unicode="&#x6ee;" horiz-adv-x="1213" 
d="M493 0q-208 0 -435 118l91 175q295 -151 511 -65q82 33 133 84l-316 760l182 76q103 -254 306 -739q6 -13 16.5 -40.5t15.5 -38.5t15 -32.5t18 -30.5t21.5 -23.5t28 -21t34 -14t44 -10t54.5 -2.5q41 0 70 -28.5t29 -69.5t-29 -69.5t-70 -28.5q-218 0 -322 133
q-82 -59 -157 -90q-110 -43 -240 -43zM444 1741l105 -6q39 -124 92 -229.5t101 -139.5l-64 -92q-74 51 -146 197q-23 47 -38 86q-3 -7 -5.5 -15.5t-5.5 -18t-5 -14.5q-26 -78 -41 -117.5t-43 -90t-61 -81.5l-77 82q23 23 45 65t34.5 75t35.5 102q42 127 73 197z" />
    <glyph glyph-name="uni06EF.fina" unicode="&#x6ef;" horiz-adv-x="1068" 
d="M816 73v-4q0 -101 -37 -201t-99 -185.5t-148 -164.5t-179.5 -141.5t-197.5 -114.5l-86 177q91 46 171 98.5t154.5 119t125.5 136.5t78 151.5t19 163.5v-2q-19 152 -116 462l188 58v-2q11 -31 20.5 -58t29.5 -73t40 -83t49.5 -78.5t59.5 -70t69 -47t80 -18.5h33h8
q41 0 70 -29t29 -70t-29 -69t-70 -28h-8l-33 -1q-117 0 -221 74zM377 1239l105 -6q39 -124 92 -229.5t101 -139.5l-64 -92q-74 51 -146 197q-23 47 -38 86l-16 -48q-26 -78 -41 -117.5t-43 -90t-61 -81.5l-77 82q23 23 45 65t34.5 75t35.5 102q42 127 73 197z" />
    <glyph glyph-name="uni06FA.init" unicode="&#x6fa;" horiz-adv-x="1772" 
d="M-92 97q0 39 27 67.5t65 31.5q64 0 119.5 17.5t94.5 45t72 70.5t54 83t39 94t27.5 93t19.5 89l198 -42q-1 -2 -8.5 -27t-11 -35.5t-11 -38t-11.5 -44t-10 -42.5t-9 -45.5t-5.5 -42.5t-2.5 -42q0 -142 108 -142q42 0 79.5 21t65 54.5t52 81.5t40.5 94.5t30 102t21.5 95
t13.5 81.5l192 -35l-3 -21q-4 -21 -10 -55.5t-11.5 -73t-9.5 -81t-4 -73.5q0 -179 107 -191q43 -6 75.5 -0.5t50.5 21t24 22.5t13 20h-1q25 40 25 110q0 99 -45 231t-92 226l175 92q17 -34 35.5 -74.5t51.5 -123.5t53.5 -175.5t20.5 -172.5q0 -176 -98.5 -276.5
t-287.5 -98.5q-76 1 -149 44t-117 108q-131 -152 -297 -152q-79 0 -155.5 40t-107.5 110q-131 -139 -384 -139h-16q-39 2 -65.5 30.5t-26.5 67.5zM942 -199l164 -164l-163 -163l-164 164zM1229 959l-164 164l162 162l164 -164zM799 960l-164 164l162 163l164 -164z
M1020 1305l-149 149l148 148l149 -149z" />
    <glyph glyph-name="uni06FA.medi" unicode="&#x6fa;" horiz-adv-x="2024" 
d="M-94 98q0 38 30 67t69 31h10q72 0 132 21.5t102.5 60t69.5 75.5t53 85q56 107 102 259q5 23 5 24l192 -53l-7 -24q-19 -75 -32 -165q-22 -181 22 -252q14 -26 44 -29q12 -3 22 -3q38 0 73 25q96 72 165 286q27 77 45 168q3 14 5.5 28t4 20.5t1.5 7.5l195 -37
q-1 0 -2 -6.5t-3.5 -21t-5.5 -28.5q-13 -75 -14 -143q-9 -188 49 -259q28 -36 85 -36q52 0 84 36q68 74 81 279q4 78 0 150q-4 33 -4 57l196 16q2 -5 4 -56q18 -143 49 -241q39 -120 109.5 -182t167.5 -62h12h8q41 0 69.5 -28.5t28.5 -69.5t-28.5 -69.5t-69.5 -28.5h-8h-12
q-220 0 -334 132q-28 31 -55 75q-28 -62 -66 -103q-93 -104 -232 -104q-151 0 -239 111q-30 38 -48 81q-56 -82 -122 -132q-89 -63 -189 -63q-24 0 -54 5q-118 22 -181 120q-16 27 -34 74q-33 -43 -67 -75q-124 -121 -369 -121h-10q-41 0 -70 29t-29 69zM1323 903l-164 164
l162 162l164 -164zM893 904l-164 164l162 163l164 -164zM1114 1249l-149 149l148 148l149 -149zM1009 -204l164 -164l-163 -163l-164 164z" />
    <glyph glyph-name="uni06FA.fina" unicode="&#x6fa;" horiz-adv-x="2969" 
d="M2945 197h20q41 0 70 -29.5t29 -70.5q0 -40 -29 -69t-70 -29h-9h-11q-164 0 -278 133q-27 29 -55 76q-24 -57 -66 -105q-95 -104 -231 -104q-59 0 -125 36t-107 97q-106 -123 -296 -133q-55 -2 -104.5 13t-71.5 32l-22 16q12 -402 -264 -586q-181 -123 -470 -135
q-7 0 -20 -1t-19 -1q-264 0 -434 150q-76 68 -125.5 162.5t-65.5 204.5q-32 201 42 438q56 185 128 283l159 -118q-30 -41 -65 -127.5t-59 -214.5t-9 -233q5 -32 14.5 -63t28 -73t50.5 -77t76 -66t110 -49t147 -18h34q425 20 516 298q33 104 35 226.5t-18.5 224.5t-55.5 185
q-36 82 -36 85l166 108q13 -38 37 -97q9 -23 23.5 -63.5t23.5 -66t24.5 -61t29 -57.5t33.5 -47.5t41.5 -39.5t51 -23.5t62.5 -9.5q47 0 82 16.5t56.5 48t35.5 69.5t20.5 87.5t9.5 94.5t5 99q1 24 1 36l203 -15q-1 -52 -4 -86q-2 -31 -2.5 -51.5t0.5 -61t4.5 -69.5t13 -64
t23.5 -57t37.5 -37t53.5 -15q42 0 79 42q68 75 81 280q3 53 0 149q-4 34 -4 58l196 14q2 0 4 -56q19 -144 49 -241q79 -242 221 -242zM1934 -184l164 -164l-163 -163l-164 164zM2264 884l-164 164l162 162l164 -164zM1834 885l-164 164l162 163l164 -164zM2055 1230
l-149 149l148 148l149 -149z" />
    <glyph glyph-name="uni06FB.init" unicode="&#x6fb;" horiz-adv-x="1894" 
d="M777 188q88 -9 184.5 -9.5t203 9.5t203 41.5t157.5 81.5q81 66 90 171q1 71 -55 127q-87 91 -249 67q-167 -33 -304 -164q-126 -119 -230 -324zM-99 98q0 41 29 69.5t70 28.5q177 0 250 95q22 29 39 75t24.5 78t21.5 101q20 104 39 162l189 -57q-5 -12 -22 -82h1
q-8 -39 -11.5 -84.5t9.5 -114.5t48 -114q22 50 53.5 106t94 141t134.5 153q88 84 195 140.5t212 73.5q127 25 236 -7t190 -116q120 -123 109 -277q-12 -191 -161 -311q-219 -178 -675 -178q-155 0 -259 16q-81 8 -150 38q-87 40 -162 137q-123 -169 -396 -171h-9
q-41 0 -70 28.5t-29 69.5zM1289 -199l164 -164l-163 -163l-164 164zM1282 1368l164 -164l-163 -163l-164 164z" />
    <glyph glyph-name="uni06FB.medi" unicode="&#x6fb;" horiz-adv-x="1981" 
d="M-99 97q0 41 28.5 70t69.5 29h9q119 3 161 24q45 23 81 70q32 41 52.5 102.5t44.5 163.5q22 102 36 151l189 -58q-7 -16 -22 -82h1q-7 -39 -10 -84t8.5 -111t43.5 -106l6 -11q38 83 109 192.5t172 208.5q179 171 407 214q265 45 426 -125q118 -118 109 -276
q-12 -163 -120 -273h274q41 0 70.5 -29t29.5 -70t-29 -69t-71 -28l-295 -1q-215 0 -283 31q-179 -49 -412 -49q-88 0 -257 15q-90 10 -151 38q-82 35 -142 111q-14 11 -24 30q-64 -85 -161 -128q-99 -47 -252 -47q-41 0 -69.5 28t-28.5 69zM787 188q88 -9 184.5 -9t203 10.5
t203.5 42t158 81.5q84 67 90 169q5 71 -53 126q-89 92 -250 67q-164 -26 -306 -162q-125 -118 -230 -325zM1274 -196l164 -164l-163 -163l-164 164zM1275 1381l164 -164l-163 -163l-164 164z" />
    <glyph glyph-name="uni06FB.fina" unicode="&#x6fb;" horiz-adv-x="2958" 
d="M1790 208q93 -32 213.5 -43.5t254.5 10t223 79.5q116 74 125 205q5 66 -53 126q-88 93 -249 67q-161 -27 -306 -164q-114 -108 -208 -280zM2954 0q-254 0 -348 92l-4 4l-13 -8q-175 -113 -452 -122q-237 -9 -426 61q-105 38 -186 97q7 -84 2 -144q-10 -138 -62 -255
q-57 -129 -162 -220q-184 -155 -474 -155q-53 0 -100 4q-205 20 -328 97q-127 74 -188 201q-59 119 -57 280q1 121 38 266q26 105 65.5 198t64.5 134l167 -108q-12 -20 -33 -66t-47.5 -126t-43.5 -161.5t-13 -172t37 -157.5q80 -163 354 -188q280 -21 430 104
q139 119 154 339q18 223 -117 581q-2 4 -7 17l182 75q65 -151 156 -285q29 -46 73 -79q108 198 247 329q177 172 406 216q128 22 237 -10t188 -115q120 -122 109 -277q-7 -111 -65 -209q12 -15 69.5 -28t138.5 -13h8q41 0 70 -29t29 -70q0 -40 -29 -68.5t-70 -28.5z
M2221 -194l164 -164l-163 -163l-164 164zM2215 1358l164 -164l-163 -163l-164 164z" />
    <glyph glyph-name="uni06FC.init" unicode="&#x6fc;" horiz-adv-x="1149" 
d="M1025 752l-123 -151q-5 5 -13.5 14.5t-37.5 32.5t-61 41t-81.5 32.5t-99.5 14.5q-111 0 -173 -69t-62 -167q0 -123 101 -200t237 -69q70 4 145.5 15t116.5 20l40 8l24 -190q-327 -85 -794 -85l-244 1q-41 0 -70.5 28.5t-29.5 69.5t29.5 69.5t70.5 28.5h310
q-132 120 -132 304q0 178 124 305t307 127q69 0 137.5 -18.5t116.5 -45t86 -53t57 -45.5zM494 -139l164 -164l-163 -163l-164 164zM494 1409l164 -164l-163 -163l-164 164z" />
    <glyph glyph-name="uni06FC.medi" unicode="&#x6fc;" horiz-adv-x="1229" 
d="M1211 196q41 0 70 -29.5t29 -70.5q0 -40 -29 -68.5t-70 -28.5q-402 0 -587 123q-169 -125 -625 -123q-41 0 -70 28.5t-29 68.5q0 41 29 70.5t70 29.5q109 0 239 17.5t200 45.5q-36 33 -80.5 81t-77.5 86.5t-86 101.5t-81 96l10 139q166 148 414 172q205 23 376 -49
q94 -42 131 -98t37 -104q11 -89 -75 -220.5t-196 -215.5q64 -25 177.5 -38.5t223.5 -13.5zM626 357q81 43 168.5 153.5t88.5 162.5q-105 70 -262 70.5t-288 -73.5q99 -119 163 -189.5t130 -123.5zM651 -215l164 -164l-163 -163l-164 164zM654 1460l164 -164l-163 -163
l-164 164z" />
    <glyph glyph-name="uni06FC.fina" unicode="&#x6fc;" horiz-adv-x="1444" 
d="M708 -544q73 -9 134 -10t145.5 8t177.5 42t187 90l102 -170q-204 -120 -401 -152q-88 -14 -195 -14q-86 0 -172 10q-85 9 -178 48.5t-168 99.5q-93 73 -144 161q-63 105 -63 225q0 144 63 259q58 105 158 184q91 74 244 144q-101 91 -237 239l-26 30l-12 122
q99 149 355 210q109 25 220 24t195 -29q104 -32 159.5 -97t52.5 -153q-4 -173 -156 -293q-75 -59 -166 -101q112 -69 216 -103t255 -34q40 -1 68.5 -30t28.5 -69q0 -41 -28 -69t-69 -29q-197 0 -355 61t-330 181q-205 -88 -292 -160q-147 -115 -147 -287q0 -123 132 -231
q114 -88 246 -107zM543 716q161 -169 256 -248q158 66 231.5 125t76.5 139q0 34 -72 58q-114 33 -257.5 10t-234.5 -84zM694 -53l164 -164l-163 -163l-164 164zM687 1489l164 -164l-163 -163l-164 164z" />
    <glyph glyph-name="uni06FF.init" unicode="&#x6ff;" horiz-adv-x="1407" 
d="M777 202q60 -7 95 -7q81 0 147 32.5t96 89.5q50 99 -31 214q-56 83 -199 171q19 -67 19 -150q0 -113 -32 -198q-32 -84 -95 -152zM566 756q-63 0 -122 -67q-71 -82 -59 -192q17 -136 162 -220q34 17 65 41q95 79 95 234q0 66 -16.5 111t-42.5 63t-45 24t-37 6zM-98 98
q0 41 28.5 69.5t69.5 28.5h9q45 0 193 4q61 5 112 12q-26 26 -34 39q-76 96 -91 222q-26 198 108 348q52 60 119 93q-47 19 -55 19l58 189q5 0 48 -14.5t123.5 -45.5t159.5 -66q368 -167 496 -352q69 -99 82 -207.5t-38 -210.5q-53 -98 -171 -166q-105 -63 -247 -63
q-181 0 -330 65q-34 -22 -88 -36t-134.5 -19t-130.5 -6t-144 -1h-36h-9q-40 0 -69 29t-29 69zM330 1663l105 -6q39 -124 92 -229.5t101 -139.5l-64 -92q-74 51 -146 197q-23 47 -38 86q-3 -7 -5.5 -15.5t-5.5 -18t-5 -14.5q-26 -78 -41 -117.5t-43 -90t-61 -81.5l-77 82
q23 23 45 65t34.5 75t35.5 102q42 127 73 197z" />
    <glyph glyph-name="uni06FF.medi" unicode="&#x6ff;" horiz-adv-x="1020" 
d="M561 705q-43 -33 -89 -93q-86 -121 -111 -265q-10 -67 -4 -139q8 2 29 6t33 7q154 42 198 164q49 127 2 236q-24 54 -58 84zM-99 98q0 41 28.5 70t69.5 29h161q-14 149 37 310q53 158 166 282q107 120 197 125q91 4 188 -122q64 -90 84 -200q22 -131 -28 -276
q-45 -119 -142 -194q-84 -64 -192 -91q-27 -8 -68 -16q47 -118 137 -238q12 69 46 137q57 122 168 202q52 39 127.5 59.5t143.5 20.5q41 0 70 -28.5t29 -69.5t-29 -69.5t-70 -28.5h-8q-110 -5 -148 -37q-41 -34 -62.5 -63t-42.5 -72q-81 -173 32 -311l-1 -2l25 -21
l-125 -152q-380 309 -488 633l-9 25h-198q-41 0 -69.5 28.5t-28.5 69.5zM409 1546l105 -6q39 -124 92 -229.5t101 -139.5l-64 -92q-74 51 -146 197q-23 47 -38 86q-3 -7 -5.5 -15.5t-5.5 -18t-5 -14.5q-26 -78 -41 -117.5t-43 -90t-61 -81.5l-77 82q23 23 45 65t34.5 75
t35.5 102q42 127 73 197z" />
    <glyph glyph-name="uni06FF.fina" unicode="&#x6ff;" horiz-adv-x="1163" 
d="M746 705q-43 -33 -89 -93q-86 -121 -111 -265q-10 -67 -4 -139q8 2 29 6t33 7q154 42 198 164q49 127 2 236q-24 54 -58 84zM36 14q0 38 20.5 57.5t77.5 41.5l211 84q-14 149 37 310q53 158 166 282q107 120 197 125q91 4 188 -122q64 -90 84 -200q22 -131 -28 -276
q-45 -119 -142 -194q-84 -64 -192 -91q-27 -8 -68 -16q47 -118 137 -238q12 69 46 137q57 122 168 202q108 80 234 80q41 0 70 -28.5t29 -69.5t-29 -69.5t-70 -28.5h-8q-71 -3 -111 -37q-41 -34 -62.5 -63t-42.5 -72q-81 -173 32 -311l-1 -2l25 -21l-125 -152
q-380 309 -488 633l-9 25l-248 -84q-41 0 -69.5 28.5t-28.5 69.5zM617 1556l105 -6q39 -124 92 -229.5t101 -139.5l-64 -92q-74 51 -146 197q-23 47 -38 86q-3 -7 -5.5 -15.5t-5.5 -18t-5 -14.5q-26 -78 -41 -117.5t-43 -90t-61 -81.5l-77 82q23 23 45 65t34.5 75t35.5 102
q42 127 73 197z" />
    <glyph glyph-name="uni0671.fina" unicode="&#x671;" horiz-adv-x="610" arabic-form="final" 
d="M610 0q-214 0 -321 106q-31 31 -50.5 68.5t-26.5 80t-8.5 65.5t-1.5 60v19v8q0 8 0.5 21.5t1 33t1 44.5t0.5 53v61.5v68v73t-1 76.5q0 464 -35 640l196 36q36 -194 36 -652v-466v-18q-1 -53 4.5 -83t25.5 -50q46 -48 170 -49h9q41 0 70 -29t29 -69q0 -41 -29 -69.5
t-70 -28.5zM217 1713q40 -3 83.5 -3.5t91 11t74.5 33.5q26 23 29 57q0 26 -18 41q-29 32 -82 23q-58 -11 -103 -55q-46 -46 -75 -107zM-39 1676l-18 68q10 5 26.5 12.5t54 17.5t57.5 6t38.5 -15t26.5 -20l8 -9q43 83 94 132q61 59 135 70q86 18 141 -40q41 -42 35 -92
q-2 -62 -53 -104q-73 -58 -224 -58q-20 0 -85 5q-25 3 -49 14q-30 13 -53 44q-24 14 -53.5 7t-55.5 -22z" />
    <glyph glyph-name="uni067E.fina" unicode="&#x67e;" horiz-adv-x="2247" arabic-form="final" 
d="M1844 164q-39 46 -62 109q-264 -276 -833 -276q-309 2 -507 73.5t-286 221.5q-105 177 -48 401q33 134 77 213l173 -95l-6 -15q-7 -14 -16.5 -38t-19.5 -55.5t-15.5 -69.5t-6.5 -76t8.5 -79t30.5 -76q121 -204 616 -206q437 0 634 161q83 65 127.5 151.5t77.5 201.5
l190 -52q-13 -49 -23 -98q-12 -59 -11 -100q6 -116 55 -174q71 -89 238 -89q41 0 70 -29t29 -70t-29 -69.5t-70 -28.5h-8q-260 3 -385 164zM796 -205l164 -164l-162 -162l-164 164zM1227 -206l164 -164l-162 -163l-164 164zM1009 -840l-149 149l148 148l149 -149z" />
    <glyph glyph-name="uni067E.init" unicode="&#x67e;" horiz-adv-x="854" arabic-form="initial" 
d="M-98 98q0 41 28.5 69.5t69.5 28.5h235q61 -2 103.5 1t87 14t75.5 37t50 66q40 84 -29 308q-12 38 -34 91.5t-38 88.5l-15 34l178 88l15 -32q15 -33 39 -93t42 -117q93 -287 23 -448q-71 -161 -252 -212q-75 -22 -202 -22h-269h-9q-41 0 -69.5 28.5t-28.5 69.5zM219 -208
l164 -164l-162 -162l-164 164zM650 -209l164 -164l-162 -163l-164 164zM432 -843l-149 149l148 148l149 -149z" />
    <glyph glyph-name="uni067E.medi" unicode="&#x67e;" horiz-adv-x="929" arabic-form="medial" 
d="M-115 98q0 41 28.5 70t69.5 29h79q186 0 272.5 59.5t86.5 180.5q0 134 -46 297l187 53q55 -192 55 -350v-6q0 -111 81.5 -172.5t215.5 -61.5q41 0 70.5 -29t29.5 -70t-29 -69.5t-69 -28.5q-156 0 -247.5 30t-141.5 106q-65 -64 -184.5 -100t-280.5 -36h-79
q-41 0 -69.5 28.5t-28.5 69.5zM202 -210l164 -164l-162 -162l-164 164zM633 -211l164 -164l-162 -163l-164 164zM415 -845l-149 149l148 148l149 -149z" />
    <glyph glyph-name="uni0679.fina" unicode="&#x679;" horiz-adv-x="2239" arabic-form="final" 
d="M1844 164q-39 46 -62 109q-264 -276 -833 -276q-309 2 -507 73.5t-286 221.5q-105 177 -48 401q33 134 77 213l173 -95l-6 -15q-7 -14 -16.5 -38t-19.5 -55.5t-15.5 -69.5t-6.5 -76t8.5 -79t30.5 -76q121 -204 616 -206q437 0 634 161q83 65 127.5 151.5t77.5 201.5
l190 -52q-13 -49 -23 -98q-12 -59 -11 -100q6 -116 55 -174q71 -89 238 -89q41 0 70 -29t29 -70t-29 -69.5t-70 -28.5h-8q-260 3 -385 164zM1056 775q-22 0 -54 2h-3q-133 6 -272 60l32 79q52 -20 110 -35l53 72l3 4q11 71 11.5 123.5t-6.5 135.5q-4 55 -9.5 109t-9.5 81
l-4 26l84 16l2 -16q2 -15 5 -40t6 -53t6 -58t4 -50q7 -89 8 -170q103 97 197 112q69 11 133 -27t67 -108q4 -43 -15 -85t-46 -70l-1 -2q-118 -106 -301 -106zM990 901l-27 -36q21 -3 40 -3h2h91.5t101 19.5t100.5 60.5q34 31 36.5 69.5t-26.5 61.5t-75 16q-90 -14 -205 -143
q-23 -27 -38 -45z" />
    <glyph glyph-name="uni0679.init" unicode="&#x679;" horiz-adv-x="774" arabic-form="initial" 
d="M-96 98q0 41 28.5 69.5t69.5 28.5h183q61 -2 103.5 1t87 14t75.5 37t50 66q40 84 -29 308q-12 38 -34 91.5t-38 88.5l-15 34l178 88l15 -32q15 -33 39 -93t42 -117q93 -287 23 -448q-71 -161 -252 -212q-75 -22 -202 -22h-217h-9q-41 0 -69.5 28.5t-28.5 69.5zM333 1034
q-22 0 -54 2h-3q-133 6 -272 60l32 79q52 -20 110 -35q7 10 26.5 36t26.5 36l3 4q11 71 11.5 123.5t-6.5 135.5q-4 55 -10 109t-9 80l-4 27l84 16l2 -15q2 -16 5 -41t6 -53t6 -58t4 -50q7 -89 8 -170q103 97 197 112q69 11 133 -27t67 -108q4 -43 -15 -85t-46 -70l-1 -2
q-118 -106 -301 -106zM267 1160l-27 -36q21 -3 40 -3h2h91.5t101 19.5t100.5 60.5q34 31 36.5 69.5t-26.5 61.5t-75 16q-90 -14 -205 -143q-23 -27 -38 -45z" />
    <glyph glyph-name="uni0679.medi" unicode="&#x679;" horiz-adv-x="923" arabic-form="medial" 
d="M-115 98q0 41 28.5 70t69.5 29h79q186 0 272.5 59.5t86.5 180.5q0 134 -46 297l187 53q55 -192 55 -350v-6q0 -111 81.5 -172.5t215.5 -61.5q41 0 70.5 -29t29.5 -70t-29 -69.5t-69 -28.5q-156 0 -247.5 30t-141.5 106q-65 -64 -184.5 -100t-280.5 -36h-79
q-41 0 -69.5 28.5t-28.5 69.5zM443 940q-22 0 -54 2h-3q-133 6 -272 60l32 79q52 -20 110 -35q7 10 26.5 36t26.5 36l3 4q11 71 11.5 123.5t-6.5 135.5q-4 55 -9.5 109t-9.5 80l-4 27l84 16l2 -15q2 -16 5 -41t6 -53t6 -58t4 -50q7 -89 8 -170q103 97 197 112q69 11 133 -27
t67 -108q4 -43 -15 -85t-46 -70l-1 -2q-118 -106 -301 -106zM377 1066l-27 -36q21 -3 40 -3h2h91.5t101 19.5t100.5 60.5q34 31 36.5 69.5t-26.5 61.5t-75 16q-90 -14 -205 -143q-23 -27 -38 -45z" />
    <glyph glyph-name="veh.isol" unicode="&#x6a4;" horiz-adv-x="1970" arabic-form="isolated" 
d="M1716 1013q99 -108 147 -294t4 -367q-28 -125 -167 -211q-107 -68 -306.5 -104t-436.5 -36q-606 0 -784 304q-29 48 -45 102t-19.5 102.5t0 99.5t13.5 92t22 80t23 64t19 44l9 19l174 -95l-4 -9q-4 -9 -10.5 -24.5t-14.5 -36.5t-15 -46.5t-12.5 -53.5t-7 -59t0.5 -60.5
t12 -61t26 -58.5q61 -102 202 -154t382 -59q436 -11 639 100q54 28 86 64h-51q-73 0 -99 3q-199 12 -294 131q-84 99 -56 269q16 92 55 174t110 141t158 59q133 0 240 -119zM1516 555q104 -6 173 0q-7 37 -10.5 54t-12 56t-16.5 61t-20.5 56t-27 54.5t-33 43t-42.5 36
t-51 19.5q-24 5 -56.5 -30t-54.5 -87.5t-27 -110t26 -96.5q37 -50 152 -56zM1701 1307l-164 164l162 162l164 -164zM1271 1308l-164 164l162 163l164 -164zM1343 1802l149 -149l148 148l-149 149z" />
    <glyph glyph-name="veh.fina" unicode="&#x6a4;" horiz-adv-x="2110" arabic-form="final" 
d="M1877 242q-5 -4 -11.5 -12t-8.5 -10q130 -24 251 -24q41 0 70 -28.5t29 -69.5q0 -40 -29 -69t-70 -29q-261 0 -471 72q-5 -2 -26 -9l-33 -11q-94 -36 -262 -55t-355 -19q-621 2 -799 305q-23 39 -38 81.5t-21.5 82t-7.5 81.5t3.5 78.5t12.5 73t16.5 65t18.5 55.5
t17.5 43.5t14.5 29.5l6 13l174 -95l-4 -9q-5 -9 -11 -24.5t-14 -36t-15 -46t-13 -53.5t-7.5 -59t0.5 -61t12 -61.5t26 -58.5q61 -102 197 -152.5t376 -55.5q282 -8 477 31q-137 113 -137 264q0 189 111 328q54 67 123 104t144 37q141 0 233 -99q106 -110 106 -303
q0 -175 -85 -294zM1616 293l13 -7q79 45 106.5 106.5t27.5 143.5q0 67 -16.5 111.5t-42.5 62.5t-44.5 23.5t-36.5 5.5q-62 0 -120.5 -77t-58.5 -193q0 -46 44.5 -92.5t127.5 -83.5zM1837 1115l-164 164l162 162l164 -164zM1407 1116l-164 164l162 163l164 -164zM1628 1461
l-149 149l148 148l149 -149z" />
    <glyph glyph-name="veh.init" unicode="&#x6a4;" horiz-adv-x="896" arabic-form="initial" 
d="M428 927q-33 0 -73.5 -58t-55.5 -152q-14 -75 17 -112q41 -51 151 -57q105 -5 173 0q-7 99 -38 185t-81 141q-46 53 -93 53zM-101 98q0 41 29.5 69.5t70.5 28.5q204 0 359.5 35t211.5 79q20 18 37 38h-101q-110 0 -202.5 35t-143.5 100q-83 107 -56 269q27 152 107 254
q92 119 217 119q132 0 240 -117q93 -101 139 -261t29 -321h-1q-6 -40 -17 -81q-24 -110 -126 -189q-93 -74 -277.5 -114t-400.5 -42h-17q-41 0 -69.5 29t-28.5 69zM559 1224l-164 164l162 162l164 -164zM129 1225l-164 164l162 163l164 -164zM350 1570l-149 149l148 148
l149 -149z" />
    <glyph glyph-name="veh.medi" unicode="&#x6a4;" horiz-adv-x="952" arabic-form="medial" 
d="M461 741q-61 0 -120 -78.5t-59 -193.5q0 -46 44.5 -92t127.5 -84l16 -7q38 22 65 50t40 51t20 55t8 48.5t1 45.5q0 54 -12 94t-28 60.5t-38 32.5t-36.5 15t-28.5 3zM-121 98q0 42 28.5 70t69.5 28q127 0 239 15q-130 114 -130 258q0 190 111 329q54 67 123.5 103.5
t142.5 36.5q140 0 233 -99q107 -116 107 -303q0 -194 -104 -316q119 -24 251 -24q42 0 70.5 -28t28.5 -70q0 -41 -28.5 -69.5t-70.5 -28.5h-9q-125 0 -240 18q-124 20 -224 53q-189 -71 -492 -71h-8q-41 0 -69.5 28.5t-28.5 69.5zM661 1097l-164 164l162 162l164 -164z
M231 1098l-164 164l162 163l164 -164zM452 1443l-149 149l148 148l149 -149z" />
    <glyph glyph-name="uni0686.fina" unicode="&#x686;" horiz-adv-x="1734" arabic-form="final" 
d="M1020 -777q-203 0 -322 41q-224 73 -350 217q-154 178 -130 435q17 202 152 364q120 140 300 224q220 101 511 136l-108 52q-247 125 -337 138q-139 19 -251 -99q-51 -55 -83 -120l-5 -12l-184 76q58 116 128 190q177 193 421 161q53 -7 121.5 -31.5t122.5 -49.5t154 -75
q304 -151 500 -216l-38 -192h-6q-7 1 -17.5 1t-25 0.5t-33.5 0t-40.5 -0.5t-48 -1t-53.5 -3q-6 -34 1 -81.5t38 -86.5q42 -51 122.5 -73t167.5 -22q41 0 70 -28.5t29 -69.5q0 -40 -29 -69t-70 -29q-312 0 -447 171q-75 100 -81 232q-3 21 0 38q-270 -35 -447 -116
q-36 -18 -70 -38t-83 -59.5t-85 -83.5t-65 -109t-35 -136q-30 -324 345 -448q43 -16 142 -25t213 -1q300 25 449 162l130 -150q-130 -115 -309 -164.5t-364 -49.5zM723 131l164 -164l-162 -162l-164 164zM1154 130l164 -164l-162 -163l-164 164zM936 -504l-149 149l148 148
l149 -149z" />
    <glyph glyph-name="uni0686.init" unicode="&#x686;" horiz-adv-x="1557" arabic-form="initial" 
d="M-101 98q0 41 29.5 69.5t70.5 28.5h175q127 0 250 22.5t253.5 72t212.5 87t225 108.5l18 10q-98 35 -256 109q-81 39 -124.5 58t-102 37.5t-97.5 18.5q-44 0 -88.5 -24t-74.5 -54t-59.5 -71t-40 -60t-19.5 -36l-1 -2l-180 81q0 1 3 7t8 15t12 22t16 28.5t20 31.5t25 35
t29 36q155 188 350 188q60 0 136 -21.5t127 -43.5t146 -67q106 -50 165 -75t152 -50.5t169 -25.5l38 -190q-93 -38 -283 -133q-117 -58 -184 -90t-185.5 -80.5t-210 -74t-212.5 -45.5t-237 -20h-167h-8q-41 0 -70.5 29t-29.5 69zM545 -199l164 -164l-162 -162l-164 164z
M976 -200l164 -164l-162 -163l-164 164zM758 -834l-149 149l148 148l149 -149z" />
    <glyph glyph-name="uni0686.medi" unicode="&#x686;" horiz-adv-x="1718" arabic-form="medial" 
d="M-99 97q0 41 29 70t70 29h189q103 0 211 18.5t188 41t193 69.5t171.5 75t177.5 87l18 9q-69 24 -256 110q-78 37 -123.5 56.5t-103.5 37.5t-98 18q-47 0 -94 -27t-76 -56.5t-60 -76t-36.5 -57.5t-14.5 -28l-181 82q50 100 112 175q161 187 350 187q60 0 136.5 -21.5
t126 -43t146.5 -66.5q102 -49 164.5 -76t154 -52t167.5 -25l39 -189q-43 -18 -182 -84q13 -43 50.5 -75t81 -48.5t97 -26t87.5 -12t64 -2.5h6h8q41 0 70 -29t29 -70t-29 -69t-70 -28h-14q-201 0 -355.5 73.5t-203.5 198.5q-121 -60 -216 -101.5t-219.5 -84.5t-254 -65
t-261.5 -22l-189 1q-41 0 -70 28t-29 69zM613 -199l164 -164l-162 -162l-164 164zM1044 -200l164 -164l-162 -163l-164 164zM826 -834l-149 149l148 148l149 -149z" />
    <glyph glyph-name="uni0688.fina" unicode="&#x688;" horiz-adv-x="1219" arabic-form="final" 
d="M493 0q-208 0 -435 118l91 175q295 -151 511 -65q82 33 133 84l-316 760l182 76q103 -254 306 -739q6 -13 16.5 -40.5t15.5 -38.5t15 -32.5t18 -30.5t21.5 -23.5t28 -21t34 -14t44 -10t54.5 -2.5q41 0 70 -28.5t29 -69.5t-29 -69.5t-70 -28.5q-218 0 -322 133
q-82 -59 -157 -90q-110 -43 -240 -43zM518 1193q-22 0 -54 2h-3q-133 6 -272 60l32 79q52 -20 110 -35q7 10 26.5 36t26.5 36l3 4q11 71 11.5 123.5t-6.5 135.5q-4 55 -10 109t-10 81l-3 26l84 16l2 -16q2 -15 5 -40t6 -53t6 -58t4 -50q7 -89 8 -170q103 97 197 112
q69 11 133 -27t67 -108q4 -43 -15 -85t-46 -70l-1 -2q-118 -106 -301 -106zM452 1319l-27 -36q21 -3 40 -3h2h91.5t101 19.5t100.5 60.5q34 31 36.5 69.5t-26.5 61.5t-75 16q-90 -14 -205 -143q-23 -27 -38 -45z" />
    <glyph glyph-name="uni0698.fina" unicode="&#x698;" horiz-adv-x="1074" arabic-form="final" 
d="M816 73v-4q0 -101 -37 -201t-99 -185.5t-148 -164.5t-179.5 -141.5t-197.5 -114.5l-86 177q91 46 171 98.5t154.5 119t125.5 136.5t78 151.5t19 163.5v-2q-19 152 -116 462l188 58v-2q11 -31 20.5 -58t29.5 -73t40 -83t49.5 -78.5t59.5 -70t69 -47t80 -18.5h33h8
q41 0 70 -29t29 -70t-29 -69t-70 -28h-8l-33 -1q-117 0 -221 74zM805 845l-164 164l162 162l164 -164zM375 846l-164 164l162 163l164 -164zM596 1191l-149 149l148 148l149 -149z" />
    <glyph glyph-name="uni0691.fina" unicode="&#x691;" horiz-adv-x="1085" arabic-form="final" 
d="M816 73v-4q0 -101 -37 -201t-99 -185.5t-148 -164.5t-179.5 -141.5t-197.5 -114.5l-86 177q91 46 171 98.5t154.5 119t125.5 136.5t78 151.5t19 163.5v-2q-19 152 -116 462l188 58v-2q11 -31 20.5 -58t29.5 -73t40 -83t49.5 -78.5t59.5 -70t69 -47t80 -18.5h33h8
q41 0 70 -29t29 -70t-29 -69t-70 -28h-8l-33 -1q-117 0 -221 74zM492 832q-22 0 -54 2h-3q-133 6 -272 60l32 79q52 -20 110 -35q7 10 26.5 36t26.5 36l3 4q11 71 11.5 123.5t-6.5 135.5q-4 55 -10 109t-10 80l-3 27l84 16l2 -15q2 -16 5 -41t6 -53t6 -58t4 -50
q7 -89 8 -170q103 97 197 112q69 11 133 -27t67 -108q4 -43 -15 -85t-46 -70l-1 -2q-118 -106 -301 -106zM426 958l-27 -36q21 -3 40 -3h2h91.5t101 19.5t100.5 60.5q34 31 36.5 69.5t-26.5 61.5t-75 16q-90 -14 -205 -143q-23 -27 -38 -45z" />
    <glyph glyph-name="uni06A9.fina" unicode="&#x6a9;" horiz-adv-x="2357" arabic-form="final" 
d="M2353 196h8q41 0 69.5 -28.5t28.5 -69.5t-28.5 -69.5t-69.5 -28.5q-167 0 -303.5 64t-224.5 186q-52 -89 -194 -156q-209 -94 -549 -94h-92q-106 0 -201 9q-158 11 -285 46q-23 6 -81 27t-75 29q-61 31 -106 69q-62 48 -108 133q-1 1 -1 4q-84 179 -2 369q32 73 90 170
l158 -118q-52 -88 -64 -126q-46 -127 -4 -210q78 -155 457 -194q116 -9 231 -9q333 -13 527 66q41 17 71 35.5t40.5 28.5t11.5 13q81 107 25 246v2q-59 148 -260 333q-113 104 -235 186l-21 16l15 173l955 401l75 -182l-792 -334q69 -54 136 -114q228 -206 308 -402
q17 -39 33 -86q17 -49 28.5 -79t34.5 -75t47.5 -75.5t63 -63t85.5 -54.5q79 -37 198 -38z" />
    <glyph glyph-name="uni06A9.init" unicode="&#x6a9;" horiz-adv-x="1219" arabic-form="initial" 
d="M-103 97q0 41 29.5 70t70.5 29h14q71 0 214 1q21 0 69 -1t74.5 -0.5t69 2.5t69.5 9t58.5 19t54.5 32.5t39 48.5q60 103 12 237q-43 125 -169 263q-123 134 -300 262l-31 21l16 175l955 399l77 -182l-794 -333q140 -119 222 -209q87 -97 143 -191t77.5 -169t21.5 -147.5
t-15.5 -125.5t-42.5 -103q-90 -159 -301 -198q-38 -7 -87 -7l-438 1h-8q-41 0 -70.5 28.5t-29.5 68.5z" />
    <glyph glyph-name="uni06A9.medi" unicode="&#x6a9;" horiz-adv-x="1385" arabic-form="medial" 
d="M-93 98q0 40 29 69t70 29h9l465 1q64 0 112 39q67 56 85 151q17 90 -31 198q-67 150 -256 326q-103 94 -222 178q-6 3 -7 5h-2v2l16 171l954 401l77 -182l-793 -333q191 -158 302 -302q58 -78 99 -161q15 -27 33 -73q13 -42 16 -50q41 -100 77 -160q66 -111 128 -151
q33 -24 71 -37q60 -22 122 -23h116q41 0 69.5 -28.5t28.5 -69.5t-28.5 -69.5t-69.5 -28.5h-8q-175 0 -223 12q-56 14 -84 23q-70 27 -136 79q-31 24 -58 55l-19 21q-3 3 -7.5 9.5t-8 11t-7.5 8.5q-35 -64 -86 -112q-54 -49 -138 -79q-49 -18 -83 -23q-14 -3 -87 -5h-426
q-41 0 -70 28.5t-29 69.5z" />
    <glyph glyph-name="uni06AF.fina" unicode="&#x6af;" horiz-adv-x="2368" arabic-form="final" 
d="M2353 196h8q41 0 69.5 -28.5t28.5 -69.5t-28.5 -69.5t-69.5 -28.5q-167 0 -303.5 64t-224.5 186q-52 -89 -194 -156q-209 -94 -549 -94h-92q-106 0 -201 9q-158 11 -285 46q-23 6 -81 27t-75 29q-61 31 -106 69q-62 48 -108 133q-1 1 -1 4q-84 179 -2 369q32 73 90 170
l158 -118q-52 -88 -64 -126q-46 -127 -4 -210q78 -155 457 -194q116 -9 231 -9q333 -13 527 66q41 17 71 35.5t40.5 28.5t11.5 13q81 107 25 246v2q-59 148 -260 333q-113 104 -235 186l-21 16l15 173l955 401l75 -182l-792 -334q69 -54 136 -114q228 -206 308 -402
q17 -39 33 -86q17 -49 28.5 -79t34.5 -75t47.5 -75.5t63 -63t85.5 -54.5q79 -37 198 -38zM1973 1963l47 -101l-925 -394l7 128z" />
    <glyph glyph-name="uni06AF.init" unicode="&#x6af;" horiz-adv-x="1213" arabic-form="initial" 
d="M-103 97q0 41 29.5 70t70.5 29h14q71 0 214 1q21 0 69 -1t74.5 -0.5t69 2.5t69.5 9t58.5 19t54.5 32.5t39 48.5q60 103 12 237q-43 125 -169 263q-123 134 -300 262l-31 21l16 175l955 399l77 -182l-794 -333q140 -119 222 -209q87 -97 143 -191t77.5 -169t21.5 -147.5
t-15.5 -125.5t-42.5 -103q-90 -159 -301 -198q-38 -7 -87 -7l-438 1h-8q-41 0 -70.5 28.5t-29.5 68.5zM1008 1953l47 -101l-925 -394l7 128z" />
    <glyph glyph-name="uni06AF.medi" unicode="&#x6af;" horiz-adv-x="1385" arabic-form="medial" 
d="M-93 98q0 40 29 69t70 29h9l465 1q64 0 112 39q67 56 85 151q17 90 -31 198q-67 150 -256 326q-103 94 -222 178q-6 3 -7 5h-2v2l16 171l954 401l77 -182l-793 -333q191 -158 302 -302q58 -78 99 -161q15 -27 33 -73q13 -42 16 -50q41 -100 77 -160q66 -111 128 -151
q33 -24 71 -37q60 -22 122 -23h116q41 0 69.5 -28.5t28.5 -69.5t-28.5 -69.5t-69.5 -28.5h-8q-175 0 -223 12q-56 14 -84 23q-70 27 -136 79q-31 24 -58 55l-19 21q-3 3 -7.5 9.5t-8 11t-7.5 8.5q-35 -64 -86 -112q-54 -49 -138 -79q-49 -18 -83 -23q-14 -3 -87 -5h-426
q-41 0 -70 28.5t-29 69.5zM1007 1935l47 -101l-925 -394l7 128z" />
    <glyph glyph-name="uni06BA.fina" unicode="&#x6ba;" horiz-adv-x="1772" arabic-form="final" 
d="M1772 0q-133 0 -239 62q8 -163 -38 -314q-61 -191 -227 -299q-178 -121 -469 -136h-41q-259 0 -432 148q-77 69 -126.5 163.5t-65.5 203.5q-28 212 42 440q57 179 127 281l160 -116q-30 -41 -65.5 -127.5t-59.5 -215t-8 -234.5q4 -27 11 -52.5t22 -61.5t35.5 -67
t54 -62.5t74.5 -53.5t100.5 -36t129.5 -14h15q13 0 19 1q211 11 341.5 86t173.5 212q82 268 -65 605q-8 15 -20.5 43t-19.5 41q-5 9 -10 17.5t-7.5 12t-2.5 4.5l167 106q16 -20 71 -136q52 -99 102 -164t95.5 -93.5t79.5 -38t76 -9.5q41 0 70 -28.5t29 -69.5t-29 -69.5
t-70 -28.5z" />
    <glyph glyph-name="uni06C0.fina" unicode="&#x6c0;" horiz-adv-x="1090" arabic-form="final" 
d="M642 702q-57 -24 -109.5 -55.5t-111 -86t-89.5 -116.5q-3 -5 -2.5 -24t11.5 -32q25 -30 100 -43q103 -16 254 3q-23 110 -53 354zM544 140q-258 0 -359 125q-34 42 -45.5 95t-7 91.5t17.5 68.5l2 5q31 64 80 122t98.5 97.5t107.5 74t99 53t82 33.5q-4 44 -8 81.5t-5 51.5
l-2 15l196 41v1v-3q1 -2 1.5 -8t1.5 -14.5t2 -21.5t2.5 -26.5t3.5 -33.5l4 -40q15 -151 24 -221q44 -367 77 -438q23 -53 62 -73t112 -20q41 0 70 -28.5t29 -69.5q0 -40 -29 -69t-70 -29q-115 0 -195 37q-80 38 -132 122q-120 -19 -219 -19zM702 1754l-28 -92q-41 13 -92 13
q-34 0 -62 -12v2q-32 -13 -51.5 -42t-19.5 -62q0 -17 8 -36l-1 1q15 -35 50.5 -58.5t77.5 -23.5q26 0 42 7q31 10 66 29t54 32l19 14l59 -78q-51 -37 -242 -142l-227 -126l-48 87l179 100q-40 17 -72 49t-49 71q-14 34 -14 74q0 62 36.5 115.5t96.5 77.5q47 19 98 19
q27 0 57 -4.5t47 -9.5z" />
    <glyph glyph-name="uni06C1" unicode="&#x6c1;" horiz-adv-x="983" arabic-form="isolated" 
d="M485 0q-110 0 -212 48q-94 43 -144 120t-50 179q0 180 163 377q52 61 117 122l-34 30t-25 22l-7 6l126 153l14 -12q14 -12 36.5 -32.5t50.5 -46.5t63 -62t67 -72q243 -276 243 -485q0 -102 -46 -178.5t-133 -119.5q-99 -49 -229 -49zM497 704q-47 -41 -93 -93t-87 -127.5
t-41 -136.5q0 -82 81 -120q59 -28 128 -28q89 0 141 26q70 37 70 122q0 135 -195 353z" />
    <glyph glyph-name="uni06C1.init" unicode="&#x6c1;" horiz-adv-x="752" arabic-form="initial" 
d="M513 -441q-55 6 -88 43.5t-33 88.5q0 160 158 368l73 -45q-86 -119 -86 -215q0 -37 26 -60.5t85 -41.5q-25 -53 -69.5 -95.5t-65.5 -42.5zM-98 98q0 41 28.5 69.5t69.5 28.5h101q61 -2 103.5 1t87 14t75.5 37t50 66q40 84 -29 308q-12 38 -34 91.5t-38 88.5l-15 34
l178 88l15 -32q15 -33 39 -93t42 -117q93 -287 23 -448q-71 -161 -252 -212q-75 -22 -202 -22h-135h-9q-41 0 -69.5 28.5t-28.5 69.5z" />
    <glyph glyph-name="uni06C1.medi" unicode="&#x6c1;" horiz-adv-x="1111" arabic-form="medial" 
d="M899 -547q-55 6 -87.5 43.5t-32.5 87.5q0 85 35.5 166t111.5 180l74 -45q-76 -103 -76 -192q0 -37 26 -60.5t85 -42.5q-22 -52 -68 -93.5t-68 -43.5zM238 349l181 -64q-68 -349 113 -555q35 191 124 316q83 118 263 144q41 6 91 6h117v-196h-68l-12 1h1q-9 1 -37 1
q-148 0 -197 -68q-55 -78 -80 -188t-23 -208l-149 -84q-171 107 -261 268q-76 139 -91 301q-71 -23 -222 -23v195q56 0 115 7.5t74 20.5q15 12 35 65q16 44 26 61z" />
    <glyph glyph-name="uni06BE.fina" unicode="&#x6be;" horiz-adv-x="1163" arabic-form="final" 
d="M746 705q-43 -33 -89 -93q-86 -121 -111 -265q-10 -67 -4 -139q8 2 29 6t33 7q154 42 198 164q49 127 2 236q-24 54 -58 84zM36 14q0 38 20.5 57.5t77.5 41.5l211 84q-14 149 37 310q53 158 166 282q107 120 197 125q91 4 188 -122q64 -90 84 -200q22 -131 -28 -276
q-45 -119 -142 -194q-84 -64 -192 -91q-27 -8 -68 -16q47 -118 137 -238q12 69 46 137q57 122 168 202q108 80 234 80q41 0 70 -28.5t29 -69.5t-29 -69.5t-70 -28.5h-8q-71 -3 -111 -37q-41 -34 -62.5 -63t-42.5 -72q-81 -173 32 -311l-1 -2l25 -21l-125 -152
q-380 309 -488 633l-9 25l-248 -84q-41 0 -69.5 28.5t-28.5 69.5z" />
    <glyph glyph-name="uni06BE.init" unicode="&#x6be;" horiz-adv-x="1417" arabic-form="initial" 
d="M777 202q60 -7 95 -7q81 0 147 32.5t96 89.5q50 99 -31 214q-56 83 -199 171q19 -67 19 -150q0 -113 -32 -198q-32 -84 -95 -152zM566 756q-63 0 -122 -67q-71 -82 -59 -192q17 -136 162 -220q34 17 65 41q95 79 95 234q0 66 -16.5 111t-42.5 63t-45 24t-37 6zM-98 98
q0 41 28.5 69.5t69.5 28.5h9q45 0 193 4q61 5 112 12q-26 26 -34 39q-76 96 -91 222q-26 198 108 348q52 60 119 93q-47 19 -55 19l58 189q5 0 48 -14.5t123.5 -45.5t159.5 -66q368 -167 496 -352q69 -99 82 -207.5t-38 -210.5q-53 -98 -171 -166q-105 -63 -247 -63
q-181 0 -330 65q-34 -22 -88 -36t-134.5 -19t-130.5 -6t-144 -1h-36h-9q-40 0 -69 29t-29 69z" />
    <glyph glyph-name="uni06BE.medi" unicode="&#x6be;" horiz-adv-x="1025" arabic-form="medial" 
d="M561 705q-43 -33 -89 -93q-86 -121 -111 -265q-10 -67 -4 -139q8 2 29 6t33 7q154 42 198 164q49 127 2 236q-24 54 -58 84zM-99 98q0 41 28.5 70t69.5 29h161q-14 149 37 310q53 158 166 282q107 120 197 125q91 4 188 -122q64 -90 84 -200q22 -131 -28 -276
q-45 -119 -142 -194q-84 -64 -192 -91q-27 -8 -68 -16q47 -118 137 -238q12 69 46 137q57 122 168 202q52 39 127.5 59.5t143.5 20.5q41 0 70 -28.5t29 -69.5t-29 -69.5t-70 -28.5h-8q-110 -5 -148 -37q-41 -34 -62.5 -63t-42.5 -72q-81 -173 32 -311l-1 -2l25 -21
l-125 -152q-380 309 -488 633l-9 25h-198q-41 0 -69.5 28.5t-28.5 69.5z" />
    <glyph glyph-name="uni06D2.fina" unicode="&#x6d2;" horiz-adv-x="1428" arabic-form="final" 
d="M1434 196v-195q-16 0 -158.5 -7t-345 -22.5t-295.5 -31.5q-172 -30 -352 -167q163 -42 437 -60q65 -4 145 -4q47 0 95.5 1.5t88.5 4.5t77.5 6t66 6.5t50 6.5t33.5 4l11 2l32 -192q-1 0 -15 -2t-36.5 -5t-53.5 -6.5t-70 -7t-81.5 -6.5t-94 -5t-101.5 -2q-69 0 -159 5
q-144 9 -262 26t-186.5 33.5t-120.5 36.5t-71.5 32t-31.5 23l-6 136q13 14 32.5 33.5t79 69t121.5 89.5t155 80.5t185 56.5q40 7 98.5 14t121.5 12t135 10t136.5 8.5t127 7t106 5t74.5 3t32 1.5z" />
    <glyph glyph-name="uni06D3.fina" unicode="&#x6d3;" horiz-adv-x="1391" arabic-form="final" 
d="M1394 196v-195q-16 0 -158.5 -7t-345 -22.5t-295.5 -31.5q-172 -30 -352 -167q163 -42 437 -60q65 -4 145 -4q47 0 95.5 1.5t88.5 4.5t77.5 6t66 6.5t50 6.5t33.5 4l11 2l32 -192q-1 0 -15 -2t-36.5 -5t-53.5 -6.5t-70 -7t-81.5 -6.5t-94 -5t-101.5 -2q-69 0 -159 5
q-144 9 -262 26t-186.5 33.5t-120.5 36.5t-71.5 32t-31.5 23l-6 136q13 14 32.5 33.5t79 69t121.5 89.5t155 80.5t185 56.5q40 7 98.5 14t121.5 12t135 10t136.5 8.5t127 7t106 5t74.5 3t32 1.5zM628 731l-28 -92q-41 13 -92 13q-34 0 -62 -12v2q-32 -13 -51.5 -42
t-19.5 -62q0 -17 8 -36l-1 1q15 -35 50.5 -58.5t77.5 -23.5q26 0 42 7q31 10 66 29t54 33l19 13l59 -78q-51 -37 -242 -142l-227 -126l-48 87l179 100q-40 17 -72 49t-49 71q-14 34 -14 74q0 62 36.5 115.5t96.5 77.5q47 19 98 19q27 0 57 -5t47 -9z" />
    <glyph glyph-name="uni06D0.init" unicode="&#x6d0;" horiz-adv-x="859" arabic-form="initial" 
d="M-98 98q0 41 28.5 69.5t69.5 28.5h235q61 -2 103.5 1t87 14t75.5 37t50 66q40 84 -29 308q-12 38 -34 91.5t-38 88.5l-15 34l178 88l15 -32q15 -33 39 -93t42 -117q93 -287 23 -448q-71 -161 -252 -212q-75 -22 -202 -22h-269h-9q-41 0 -69.5 28.5t-28.5 69.5zM329 -142
l164 -164l-163 -163l-164 164zM338 -541l164 -164l-163 -163l-164 164z" />
    <glyph glyph-name="uni06D0.medi" unicode="&#x6d0;" horiz-adv-x="923" arabic-form="medial" 
d="M-115 98q0 41 28.5 70t69.5 29h79q186 0 272.5 59.5t86.5 180.5q0 134 -46 297l187 53q55 -192 55 -350v-6q0 -111 81.5 -172.5t215.5 -61.5q41 0 70.5 -29t29.5 -70t-29 -69.5t-69 -28.5q-156 0 -247.5 30t-141.5 106q-65 -64 -184.5 -100t-280.5 -36h-79
q-41 0 -69.5 28.5t-28.5 69.5zM374 -138l164 -164l-163 -163l-164 164zM383 -537l164 -164l-163 -163l-164 164z" />
    <glyph glyph-name="uni0649.init" unicode="&#x649;" horiz-adv-x="795" arabic-form="initial" 
d="M-98 98q0 41 28.5 69.5t69.5 28.5h183q61 -2 103.5 1t87 14t75.5 37t50 66q40 84 -29 308q-12 38 -34 91.5t-38 88.5l-15 34l178 88l15 -32q15 -33 39 -93t42 -117q93 -287 23 -448q-71 -161 -252 -212q-75 -22 -202 -22h-217h-9q-41 0 -69.5 28.5t-28.5 69.5z" />
    <glyph glyph-name="uni0649.medi" unicode="&#x649;" horiz-adv-x="800" arabic-form="medial" 
d="M-94 98q0 41 28.5 69.5t69.5 28.5h101q166 0 243 59.5t77 180.5q0 135 -46 297l188 53q54 -187 54 -350v-5q0 -41 7.5 -78.5t24.5 -75t51.5 -59.5t83.5 -22q41 0 70 -29t29 -69q0 -41 -29 -69.5t-69 -28.5q-179 0 -274 124q-127 -124 -410 -124h-101q-41 0 -69.5 28.5
t-28.5 69.5z" />
    <glyph glyph-name="uni06CC.fina" unicode="&#x6cc;" horiz-adv-x="1761" arabic-form="final" 
d="M871 -652h-50q-153 0 -254 25q-224 56 -331 217q-108 158 -96 410q14 275 170 652l183 -74q-257 -633 -94 -879q23 -33 55 -58.5t61.5 -41.5t73 -27t70.5 -16t73 -8t62 -3h56h21q72 0 174 19.5t187 56.5q38 13 79 35t80 59.5t39 74.5q0 28 -51 67.5t-155 78.5
q-105 37 -230 63l-22 4l15 194l767 -1q41 0 70 -28.5t29 -69.5t-29 -69.5t-70 -28.5h-236q109 -90 109 -210q0 -43 -13.5 -85t-46.5 -90t-100 -94.5t-162 -83.5q-104 -44 -225.5 -66.5t-208.5 -22.5z" />
    <glyph glyph-name="uni06CC.init" unicode="&#x6cc;" horiz-adv-x="859" arabic-form="initial" 
d="M-98 98q0 41 28.5 69.5t69.5 28.5h235q61 -2 103.5 1t87 14t75.5 37t50 66q40 84 -29 308q-12 38 -34 91.5t-38 88.5l-15 34l178 88l15 -32q15 -33 39 -93t42 -117q93 -287 23 -448q-71 -161 -252 -212q-75 -22 -202 -22h-269h-9q-41 0 -69.5 28.5t-28.5 69.5zM203 -267
l164 -164l-162 -162l-164 163zM619 -269l164 -163l-162 -163l-164 164z" />
    <glyph glyph-name="uni06CC.medi" unicode="&#x6cc;" horiz-adv-x="923" arabic-form="medial" 
d="M-115 98q0 41 28.5 70t69.5 29h79q186 0 272.5 59.5t86.5 180.5q0 134 -46 297l187 53q55 -192 55 -350v-6q0 -111 81.5 -172.5t215.5 -61.5q41 0 70.5 -29t29.5 -70t-29 -69.5t-69 -28.5q-156 0 -247.5 30t-141.5 106q-65 -64 -184.5 -100t-280.5 -36h-79
q-41 0 -69.5 28.5t-28.5 69.5zM273 -295l164 -164l-162 -162l-164 163zM689 -297l164 -163l-162 -163l-164 164z" />
    <glyph glyph-name="uni0651064C" unicode="&#xfc5e;" arabic-form="isolated" 
d="M135 1153h-6q-96 4 -134 66q-17 28 -20.5 63.5t4 67t15 52.5t14.5 32l77 -36q-15 -31 -21.5 -68t4.5 -66q12 -21 52 -25t60 19q34 37 31 165q5 1 12 2t26.5 3t26.5 2.5t12 -0.5q7 -60 17.5 -99t23.5 -54.5t22.5 -20t21.5 -4.5q38 3 53.5 31.5t9 66t-23.5 75.5t-39 64
l71 49q104 -154 75 -246q-19 -63 -61.5 -93.5t-88.5 -30.5q-69 0 -109 52q-47 -67 -125 -67zM17 1545l-46 65q14 23 21.5 68.5t-5.5 75.5q-7 15 -28 17q-36 1 -74 -37l-61 61q65 65 140 61q69 -5 99 -61q30 -53 11 -146q137 41 203 88l-5 4q-9 4 -28 13t-27 13
q-38 19 -62 46t-31 54.5t-5.5 52t10.5 43.5q30 61 94.5 91.5t120.5 3.5q59 -28 79 -97q23 -77 -9 -182q26 -8 28 -8l-25 -83q-5 1 -21 6t-26 8q-36 -35 -92 -65.5t-115 -49.5t-91 -28t-55 -14zM290 1984q-21 0 -46 -17t-38 -41v-1q-15 -43 38 -74q5 -3 11 -6q9 -5 27.5 -14
t26.5 -13l24 -11q23 84 6 136q-10 25 -32 38q-15 3 -17 3z" />
    <glyph glyph-name="uni0651064D" unicode="&#xfc5f;" arabic-form="isolated" 
d="M149 1226h-6q-96 4 -134 66q-17 28 -20.5 63.5t4 67t15 52.5t14.5 32l77 -36q-15 -31 -21.5 -68t4.5 -66q12 -21 52 -25t60 19q34 37 31 165q5 1 12 2t26.5 3t26.5 2.5t12 -0.5q7 -60 17.5 -99t23.5 -54.5t22.5 -20t21.5 -4.5q38 3 53.5 31.5t9 66t-23.5 75.5t-39 64
l71 49q104 -154 75 -246q-19 -63 -61.5 -93.5t-88.5 -30.5q-69 0 -109 52q-47 -67 -125 -67zM490 869v-104l-422 -174v111zM490 1128v-104l-422 -174v111z" />
    <glyph glyph-name="uni0651064E" unicode="&#xfc60;" arabic-form="isolated" 
d="M111 1332h-6q-96 4 -134 66q-17 28 -20.5 63.5t4 67t15 52.5t14.5 32l77 -36q-15 -31 -21.5 -68t4.5 -66q12 -21 52 -25t60 19q34 37 31 165q5 1 12 2t26.5 3t26.5 2.5t12 -0.5q7 -60 17.5 -99t23.5 -54.5t22.5 -20t21.5 -4.5q38 3 53.5 31.5t9 66t-23.5 75.5t-39 64
l71 49q104 -154 75 -246q-19 -63 -61.5 -93.5t-88.5 -30.5q-69 0 -109 52q-47 -67 -125 -67zM388 1971v-104l-422 -174v111z" />
    <glyph glyph-name="uni0651064F" unicode="&#xfc61;" arabic-form="isolated" 
d="M131 1162h-6q-96 4 -134 66q-17 28 -20.5 63.5t4 67t15 52.5t14.5 32l77 -36q-15 -31 -21.5 -68t4.5 -66q12 -21 52 -25t60 19q34 37 31 165q5 1 12 2t26.5 3t26.5 2.5t12 -0.5q7 -60 17.5 -99t23.5 -54.5t22.5 -20t21.5 -4.5q38 3 53.5 31.5t9 66t-23.5 75.5t-39 64
l71 49q104 -154 75 -246q-19 -63 -61.5 -93.5t-88.5 -30.5q-69 0 -109 52q-47 -67 -125 -67zM-25 1519l-24 84q177 50 272 122l-9 4q-8 4 -54 26q-38 19 -62 46t-31.5 54.5t-6 52t10.5 44.5q29 60 94.5 90.5t121.5 3.5q59 -28 78 -95q24 -79 -8 -184q3 -1 13 -3.5t15 -4.5
l-25 -83q-23 6 -48 16q-20 -21 -48 -41.5t-58.5 -37t-59 -30t-59.5 -25.5t-50.5 -19t-40.5 -13zM232 1973q-22 0 -46.5 -17.5t-35.5 -41.5q-1 0 -3 -5t-1.5 -14t4 -19t15.5 -21.5t32 -21.5q10 -5 28.5 -14t26.5 -13l24 -11q21 89 5 136q-11 29 -32 38q-5 4 -17 4z" />
    <glyph glyph-name="uni06510650" unicode="&#xfc62;" arabic-form="isolated" 
d="M144 1137h-6q-96 4 -134 66q-17 28 -20.5 63.5t4 67t15 52.5t14.5 32l77 -36q-15 -31 -21.5 -68t4.5 -66q12 -21 52 -25t60 19q34 37 31 165q5 1 12 2t26.5 3t26.5 2.5t12 -0.5q7 -60 17.5 -99t23.5 -54.5t22.5 -20t21.5 -4.5q38 3 53.5 31.5t9 66t-23.5 75.5t-39 64
l71 49q104 -154 75 -246q-19 -63 -61.5 -93.5t-88.5 -30.5q-69 0 -109 52q-47 -67 -125 -67zM486 1074v-104l-422 -174v111z" />
    <glyph glyph-name="uniFC63" unicode="&#xfc63;" arabic-form="isolated" 
d="M144 1137h-6q-96 4 -134 66q-17 28 -20.5 63.5t4 67t15 52.5t14.5 32l77 -36q-15 -31 -21.5 -68t4.5 -66q12 -21 52 -25t60 19q34 37 31 165q5 1 12 2t26.5 3t26.5 2.5t12 -0.5q7 -60 17.5 -99t23.5 -54.5t22.5 -20t21.5 -4.5q38 3 53.5 31.5t9 66t-23.5 75.5t-39 64
l71 49q104 -154 75 -246q-19 -63 -61.5 -93.5t-88.5 -30.5q-69 0 -109 52q-47 -67 -125 -67zM300 1516l-71 22q38 142 0 287l72 22q38 -142 -1 -331z" />
    <glyph glyph-name="fathatan_01" unicode="&#xfe70;" arabic-form="isolated" 
d="M426 1317v-104l-422 -174v111zM426 1576v-104l-422 -174v111z" />
    </font>
</defs>
</svg>
